STARTFONT 2.1
FONT -Misc-Ditmap-Medium-R-Normal--8-70-75-75-C-60-GB2312.1980-0
SIZE 8 75 75
FONTBOUNDINGBOX 6 8 0 -2
COMMENT "Generated by fontforge, http://fontforge.sourceforge.net"
STARTPROPERTIES 19
FONTNAME_REGISTRY ""
FOUNDRY "Misc"
FAMILY_NAME "Ditmap"
WEIGHT_NAME "Medium"
SLANT "R"
SETWIDTH_NAME "Normal"
ADD_STYLE_NAME ""
PIXEL_SIZE 8
POINT_SIZE 70
RESOLUTION_X 75
RESOLUTION_Y 75
SPACING "C"
AVERAGE_WIDTH 60
CHARSET_REGISTRY "GB2312.1980"
CHARSET_ENCODING "0"
DEFAULT_CHAR 8481
FONT_DESCENT 2
FONT_ASCENT 6
COPYRIGHT "Copyright(C) 2000-2007 Num Kadoma, 2020 diaowinner"
ENDPROPERTIES
CHARS 6909
STARTCHAR $2121
ENCODING 8481
SWIDTH 822 0
DWIDTH 6 0
BBX 1 1 5 -2
BITMAP
00
ENDCHAR
STARTCHAR $2122
ENCODING 8482
SWIDTH 822 0
DWIDTH 6 0
BBX 2 2 0 -1
BITMAP
80
40
ENDCHAR
STARTCHAR $2123
ENCODING 8483
SWIDTH 822 0
DWIDTH 6 0
BBX 3 3 0 -1
BITMAP
40
A0
40
ENDCHAR
STARTCHAR $2126
ENCODING 8484
SWIDTH 822 0
DWIDTH 6 0
BBX 2 2 1 1
BITMAP
C0
C0
ENDCHAR
STARTCHAR uni02C9
ENCODING 8485
SWIDTH 1000 0
DWIDTH 8 0
BBX 3 1 1 5
BITMAP
E0
ENDCHAR
STARTCHAR caron
ENCODING 8486
SWIDTH 1000 0
DWIDTH 8 0
BBX 3 2 1 4
BITMAP
A0
40
ENDCHAR
STARTCHAR $212f
ENCODING 8487
SWIDTH 822 0
DWIDTH 6 0
BBX 3 1 1 5
BITMAP
A0
ENDCHAR
STARTCHAR $2137
ENCODING 8488
SWIDTH 822 0
DWIDTH 6 0
BBX 5 4 0 0
BITMAP
48
48
48
90
ENDCHAR
STARTCHAR $2139
ENCODING 8489
SWIDTH 822 0
DWIDTH 6 0
BBX 5 6 0 -1
BITMAP
40
78
48
90
20
10
ENDCHAR
STARTCHAR $213d
ENCODING 8490
SWIDTH 822 0
DWIDTH 6 0
BBX 6 1 0 2
BITMAP
FC
ENDCHAR
STARTCHAR $2142
ENCODING 8492
SWIDTH 822 0
DWIDTH 6 0
BBX 3 7 1 -1
BITMAP
A0
A0
A0
A0
A0
A0
A0
ENDCHAR
STARTCHAR $2144
ENCODING 8493
SWIDTH 822 0
DWIDTH 6 0
BBX 5 1 0 2
BITMAP
A8
ENDCHAR
STARTCHAR $2146
ENCODING 8494
SWIDTH 822 0
DWIDTH 6 0
BBX 2 3 3 3
BITMAP
40
80
C0
ENDCHAR
STARTCHAR $2147
ENCODING 8495
SWIDTH 822 0
DWIDTH 6 0
BBX 2 3 0 3
BITMAP
C0
40
80
ENDCHAR
STARTCHAR $2148
ENCODING 8496
SWIDTH 822 0
DWIDTH 6 0
BBX 4 3 1 3
BITMAP
50
A0
F0
ENDCHAR
STARTCHAR $2149
ENCODING 8497
SWIDTH 822 0
DWIDTH 6 0
BBX 4 3 0 3
BITMAP
F0
50
A0
ENDCHAR
STARTCHAR $214c
ENCODING 8498
SWIDTH 822 0
DWIDTH 6 0
BBX 4 7 1 -1
BITMAP
30
C0
80
80
80
C0
30
ENDCHAR
STARTCHAR $214d
ENCODING 8499
SWIDTH 822 0
DWIDTH 6 0
BBX 4 7 0 -1
BITMAP
C0
30
10
10
10
30
C0
ENDCHAR
STARTCHAR $2152
ENCODING 8500
SWIDTH 822 0
DWIDTH 6 0
BBX 4 7 1 -1
BITMAP
10
20
40
80
40
20
10
ENDCHAR
STARTCHAR $2153
ENCODING 8501
SWIDTH 822 0
DWIDTH 6 0
BBX 4 7 0 -1
BITMAP
80
40
20
10
20
40
80
ENDCHAR
STARTCHAR $2154
ENCODING 8502
SWIDTH 822 0
DWIDTH 6 0
BBX 5 7 0 -1
BITMAP
10
28
50
A0
50
28
10
ENDCHAR
STARTCHAR $2155
ENCODING 8503
SWIDTH 822 0
DWIDTH 6 0
BBX 5 7 0 -1
BITMAP
40
A0
50
28
50
A0
40
ENDCHAR
STARTCHAR $2156
ENCODING 8504
SWIDTH 822 0
DWIDTH 6 0
BBX 3 5 2 1
BITMAP
E0
80
80
80
80
ENDCHAR
STARTCHAR $2157
ENCODING 8505
SWIDTH 822 0
DWIDTH 6 0
BBX 3 5 0 -1
BITMAP
20
20
20
20
E0
ENDCHAR
STARTCHAR $2158
ENCODING 8506
SWIDTH 822 0
DWIDTH 6 0
BBX 4 6 1 0
BITMAP
F0
90
B0
A0
A0
E0
ENDCHAR
STARTCHAR $2159
ENCODING 8507
SWIDTH 822 0
DWIDTH 6 0
BBX 4 6 0 -1
BITMAP
70
50
50
D0
90
F0
ENDCHAR
STARTCHAR uni3016
ENCODING 8508
SWIDTH 1000 0
DWIDTH 8 0
BBX 5 7 0 -1
BITMAP
F8
88
90
A0
90
88
F8
ENDCHAR
STARTCHAR uni3017
ENCODING 8509
SWIDTH 1000 0
DWIDTH 8 0
BBX 5 7 0 -1
BITMAP
F8
88
48
28
48
88
F8
ENDCHAR
STARTCHAR $215a
ENCODING 8510
SWIDTH 822 0
DWIDTH 6 0
BBX 3 7 2 -1
BITMAP
E0
C0
80
80
80
C0
E0
ENDCHAR
STARTCHAR $215b
ENCODING 8511
SWIDTH 822 0
DWIDTH 6 0
BBX 3 7 0 -1
BITMAP
E0
60
20
20
20
60
E0
ENDCHAR
STARTCHAR $215e
ENCODING 8512
SWIDTH 822 0
DWIDTH 6 0
BBX 5 7 0 -1
BITMAP
20
20
F8
20
20
00
F8
ENDCHAR
STARTCHAR $215f
ENCODING 8513
SWIDTH 822 0
DWIDTH 6 0
BBX 5 5 0 0
BITMAP
88
50
20
50
88
ENDCHAR
STARTCHAR $2160
ENCODING 8514
SWIDTH 822 0
DWIDTH 6 0
BBX 5 5 0 0
BITMAP
20
00
F8
00
20
ENDCHAR
STARTCHAR uni2236
ENCODING 8515
SWIDTH 1000 0
DWIDTH 8 0
BBX 1 3 2 1
BITMAP
80
00
80
ENDCHAR
STARTCHAR $224a
ENCODING 8516
SWIDTH 822 0
DWIDTH 6 0
BBX 5 6 0 0
BITMAP
20
20
50
50
88
88
ENDCHAR
STARTCHAR $224b
ENCODING 8517
SWIDTH 822 0
DWIDTH 6 0
BBX 5 6 0 -1
BITMAP
88
88
50
50
20
20
ENDCHAR
STARTCHAR summation
ENCODING 8518
SWIDTH 1000 0
DWIDTH 8 0
BBX 5 7 0 -1
BITMAP
F8
88
40
20
40
88
F8
ENDCHAR
STARTCHAR product
ENCODING 8519
SWIDTH 1000 0
DWIDTH 8 0
BBX 5 7 0 -1
BITMAP
F8
50
50
50
50
50
D8
ENDCHAR
STARTCHAR $2240
ENCODING 8520
SWIDTH 822 0
DWIDTH 6 0
BBX 5 5 0 0
BITMAP
88
88
88
88
70
ENDCHAR
STARTCHAR $2241
ENCODING 8521
SWIDTH 822 0
DWIDTH 6 0
BBX 5 5 0 0
BITMAP
70
88
88
88
88
ENDCHAR
STARTCHAR $223a
ENCODING 8522
SWIDTH 822 0
DWIDTH 6 0
BBX 5 5 0 0
BITMAP
78
80
F8
80
78
ENDCHAR
STARTCHAR uni2237
ENCODING 8523
SWIDTH 1000 0
DWIDTH 8 0
BBX 3 3 1 1
BITMAP
A0
00
A0
ENDCHAR
STARTCHAR $2265
ENCODING 8524
SWIDTH 822 0
DWIDTH 6 0
BBX 5 7 0 -1
BITMAP
38
20
20
20
C0
40
40
ENDCHAR
STARTCHAR $225d
ENCODING 8525
SWIDTH 822 0
DWIDTH 6 0
BBX 5 5 0 0
BITMAP
20
20
20
20
F8
ENDCHAR
STARTCHAR uni2225
ENCODING 8526
SWIDTH 1000 0
DWIDTH 8 0
BBX 3 7 1 -1
BITMAP
A0
A0
A0
A0
A0
A0
A0
ENDCHAR
STARTCHAR $225c
ENCODING 8527
SWIDTH 822 0
DWIDTH 6 0
BBX 5 5 0 0
BITMAP
08
10
20
40
F8
ENDCHAR
STARTCHAR $225e
ENCODING 8528
SWIDTH 822 0
DWIDTH 6 0
BBX 5 2 0 4
BITMAP
70
88
ENDCHAR
STARTCHAR uni2299
ENCODING 8529
SWIDTH 1000 0
DWIDTH 8 0
BBX 5 5 0 0
BITMAP
70
88
A8
88
70
ENDCHAR
STARTCHAR $2269
ENCODING 8530
SWIDTH 822 0
DWIDTH 6 0
BBX 3 7 1 -1
BITMAP
40
A0
80
40
20
A0
40
ENDCHAR
STARTCHAR uni222E
ENCODING 8531
SWIDTH 1000 0
DWIDTH 8 0
BBX 5 7 0 -1
BITMAP
18
20
70
A8
70
20
C0
ENDCHAR
STARTCHAR $2261
ENCODING 8532
SWIDTH 822 0
DWIDTH 6 0
BBX 5 5 0 0
BITMAP
F8
00
F8
00
F8
ENDCHAR
STARTCHAR uni224C
ENCODING 8533
SWIDTH 1000 0
DWIDTH 8 0
BBX 5 7 0 -1
BITMAP
90
A8
48
00
F8
00
F8
ENDCHAR
STARTCHAR approxequal
ENCODING 8534
SWIDTH 1000 0
DWIDTH 8 0
BBX 5 7 0 -1
BITMAP
40
A8
10
00
40
A8
10
ENDCHAR
STARTCHAR $2266
ENCODING 8535
SWIDTH 822 0
DWIDTH 6 0
BBX 5 5 0 0
BITMAP
10
A8
A8
A8
40
ENDCHAR
STARTCHAR $2267
ENCODING 8536
SWIDTH 822 0
DWIDTH 6 0
BBX 5 5 0 0
BITMAP
50
A8
A0
A8
50
ENDCHAR
STARTCHAR $2162
ENCODING 8537
SWIDTH 822 0
DWIDTH 6 0
BBX 5 5 0 0
BITMAP
10
F8
20
F8
40
ENDCHAR
STARTCHAR uni226E
ENCODING 8538
SWIDTH 1000 0
DWIDTH 8 0
BBX 5 7 0 -1
BITMAP
10
18
70
90
70
18
10
ENDCHAR
STARTCHAR uni226F
ENCODING 8539
SWIDTH 1000 0
DWIDTH 8 0
BBX 5 7 0 -1
BITMAP
40
C0
70
48
70
C0
40
ENDCHAR
STARTCHAR lessequal
ENCODING 8540
SWIDTH 1000 0
DWIDTH 8 0
BBX 5 7 0 -1
BITMAP
18
60
80
60
18
00
F8
ENDCHAR
STARTCHAR greaterequal
ENCODING 8541
SWIDTH 1000 0
DWIDTH 8 0
BBX 5 7 0 -1
BITMAP
C0
30
08
30
C0
00
F8
ENDCHAR
STARTCHAR $2167
ENCODING 8542
SWIDTH 822 0
DWIDTH 6 0
BBX 5 5 0 0
BITMAP
50
A8
A8
A8
50
ENDCHAR
STARTCHAR $2268
ENCODING 8543
SWIDTH 822 0
DWIDTH 6 0
BBX 5 5 0 0
BITMAP
88
00
00
00
20
ENDCHAR
STARTCHAR $2168
ENCODING 8544
SWIDTH 822 0
DWIDTH 6 0
BBX 5 5 0 0
BITMAP
20
00
00
00
88
ENDCHAR
STARTCHAR $2169
ENCODING 8545
SWIDTH 822 0
DWIDTH 6 0
BBX 5 7 0 -1
BITMAP
38
18
28
60
90
90
60
ENDCHAR
STARTCHAR $216a
ENCODING 8546
SWIDTH 822 0
DWIDTH 6 0
BBX 5 7 0 -1
BITMAP
70
88
88
70
20
F8
20
ENDCHAR
STARTCHAR $216b
ENCODING 8547
SWIDTH 822 0
DWIDTH 6 0
BBX 3 3 0 3
BITMAP
40
A0
40
ENDCHAR
STARTCHAR $216c
ENCODING 8548
SWIDTH 822 0
DWIDTH 6 0
BBX 2 3 0 3
BITMAP
40
40
80
ENDCHAR
STARTCHAR $216d
ENCODING 8549
SWIDTH 822 0
DWIDTH 6 0
BBX 4 3 0 3
BITMAP
50
50
A0
ENDCHAR
STARTCHAR $216e
ENCODING 8550
SWIDTH 822 0
DWIDTH 6 0
BBX 5 7 0 -1
BITMAP
40
B0
48
40
40
48
30
ENDCHAR
STARTCHAR $2170
ENCODING 8551
SWIDTH 822 0
DWIDTH 6 0
BBX 5 7 0 -1
BITMAP
20
78
A0
70
28
F0
20
ENDCHAR
STARTCHAR currency
ENCODING 8552
SWIDTH 1000 0
DWIDTH 8 0
BBX 5 5 0 0
BITMAP
88
70
50
70
88
ENDCHAR
STARTCHAR uniFFE0
ENCODING 8553
SWIDTH 1000 0
DWIDTH 8 0
BBX 5 7 0 -1
BITMAP
20
20
78
A0
78
20
20
ENDCHAR
STARTCHAR uniFFE1
ENCODING 8554
SWIDTH 1000 0
DWIDTH 8 0
BBX 5 7 0 -1
BITMAP
10
28
70
20
60
A8
50
ENDCHAR
STARTCHAR $2273
ENCODING 8555
SWIDTH 822 0
DWIDTH 6 0
BBX 5 7 0 -1
BITMAP
C8
D0
20
40
80
D8
D8
ENDCHAR
STARTCHAR $2178
ENCODING 8556
SWIDTH 822 0
DWIDTH 6 0
BBX 4 7 1 -1
BITMAP
70
80
60
90
60
10
E0
ENDCHAR
STARTCHAR uni2116
ENCODING 8557
SWIDTH 1000 0
DWIDTH 8 0
BBX 5 7 0 -1
BITMAP
50
A8
A8
A8
B8
A0
B8
ENDCHAR
STARTCHAR $2179
ENCODING 8558
SWIDTH 822 0
DWIDTH 6 0
BBX 5 7 0 -1
BITMAP
20
20
F8
50
70
D8
88
ENDCHAR
STARTCHAR $217a
ENCODING 8559
SWIDTH 822 0
DWIDTH 6 0
BBX 5 7 0 -1
BITMAP
20
20
F8
70
70
D8
88
ENDCHAR
STARTCHAR $217b
ENCODING 8560
SWIDTH 822 0
DWIDTH 6 0
BBX 5 5 0 0
BITMAP
70
88
88
88
70
ENDCHAR
STARTCHAR $217c
ENCODING 8561
SWIDTH 822 0
DWIDTH 6 0
BBX 5 5 0 0
BITMAP
70
F8
F8
F8
70
ENDCHAR
STARTCHAR $217d
ENCODING 8562
SWIDTH 822 0
DWIDTH 6 0
BBX 5 5 0 0
BITMAP
70
A8
D8
A8
70
ENDCHAR
STARTCHAR $217e
ENCODING 8563
SWIDTH 822 0
DWIDTH 6 0
BBX 5 5 0 0
BITMAP
20
50
88
50
20
ENDCHAR
STARTCHAR $2221
ENCODING 8564
SWIDTH 822 0
DWIDTH 6 0
BBX 5 5 0 0
BITMAP
20
70
F8
70
20
ENDCHAR
STARTCHAR $2222
ENCODING 8565
SWIDTH 822 0
DWIDTH 6 0
BBX 5 5 0 0
BITMAP
F8
88
88
88
F8
ENDCHAR
STARTCHAR $2223
ENCODING 8566
SWIDTH 822 0
DWIDTH 6 0
BBX 5 5 0 0
BITMAP
F8
F8
F8
F8
F8
ENDCHAR
STARTCHAR $2224
ENCODING 8567
SWIDTH 822 0
DWIDTH 6 0
BBX 5 5 0 0
BITMAP
20
20
50
50
F8
ENDCHAR
STARTCHAR $2225
ENCODING 8568
SWIDTH 822 0
DWIDTH 6 0
BBX 5 5 0 0
BITMAP
20
20
70
70
F8
ENDCHAR
STARTCHAR $2228
ENCODING 8569
SWIDTH 822 0
DWIDTH 6 0
BBX 5 5 0 0
BITMAP
A8
50
A8
50
A8
ENDCHAR
STARTCHAR $222a
ENCODING 8570
SWIDTH 822 0
DWIDTH 6 0
BBX 5 5 0 0
BITMAP
20
10
F8
10
20
ENDCHAR
STARTCHAR $222b
ENCODING 8571
SWIDTH 822 0
DWIDTH 6 0
BBX 5 5 0 0
BITMAP
20
40
F8
40
20
ENDCHAR
STARTCHAR $222c
ENCODING 8572
SWIDTH 822 0
DWIDTH 6 0
BBX 5 7 0 -1
BITMAP
20
70
A8
20
20
20
20
ENDCHAR
STARTCHAR $222d
ENCODING 8573
SWIDTH 822 0
DWIDTH 6 0
BBX 5 7 0 -1
BITMAP
20
20
20
20
A8
70
20
ENDCHAR
STARTCHAR $222e
ENCODING 8574
SWIDTH 822 0
DWIDTH 6 0
BBX 5 5 0 0
BITMAP
F8
F8
00
F8
F8
ENDCHAR
STARTCHAR $212a
ENCODING 8993
SWIDTH 822 0
DWIDTH 6 0
BBX 1 7 2 -1
BITMAP
80
80
80
80
80
00
80
ENDCHAR
STARTCHAR uniFF02
ENCODING 8994
SWIDTH 1000 0
DWIDTH 8 0
BBX 3 2 1 4
BITMAP
A0
A0
ENDCHAR
STARTCHAR $2174
ENCODING 8995
SWIDTH 822 0
DWIDTH 6 0
BBX 5 7 0 -1
BITMAP
50
F8
50
50
50
F8
50
ENDCHAR
STARTCHAR $216f
ENCODING 8996
SWIDTH 822 0
DWIDTH 6 0
BBX 5 7 0 -1
BITMAP
88
50
F8
20
F8
20
20
ENDCHAR
STARTCHAR $2173
ENCODING 8997
SWIDTH 822 0
DWIDTH 6 0
BBX 5 7 0 -1
BITMAP
C0
C8
10
20
40
98
18
ENDCHAR
STARTCHAR $2175
ENCODING 8998
SWIDTH 822 0
DWIDTH 6 0
BBX 5 7 0 -1
BITMAP
20
50
50
60
A8
90
68
ENDCHAR
STARTCHAR uniFF07
ENCODING 8999
SWIDTH 1000 0
DWIDTH 8 0
BBX 1 2 2 4
BITMAP
80
80
ENDCHAR
STARTCHAR $214a
ENCODING 9000
SWIDTH 822 0
DWIDTH 6 0
BBX 3 7 2 -1
BITMAP
20
40
80
80
80
40
20
ENDCHAR
STARTCHAR $214b
ENCODING 9001
SWIDTH 822 0
DWIDTH 6 0
BBX 3 7 0 -1
BITMAP
80
40
20
20
20
40
80
ENDCHAR
STARTCHAR $2176
ENCODING 9002
SWIDTH 822 0
DWIDTH 6 0
BBX 5 5 0 0
BITMAP
20
A8
70
A8
20
ENDCHAR
STARTCHAR $215c
ENCODING 9003
SWIDTH 822 0
DWIDTH 6 0
BBX 5 5 0 0
BITMAP
20
20
F8
20
20
ENDCHAR
STARTCHAR $2124
ENCODING 9004
SWIDTH 822 0
DWIDTH 6 0
BBX 2 3 0 -1
BITMAP
C0
40
80
ENDCHAR
STARTCHAR uniFF0D
ENCODING 9005
SWIDTH 1000 0
DWIDTH 8 0
BBX 5 1 0 2
BITMAP
F8
ENDCHAR
STARTCHAR $2125
ENCODING 9006
SWIDTH 822 0
DWIDTH 6 0
BBX 2 2 0 -1
BITMAP
C0
C0
ENDCHAR
STARTCHAR $213f
ENCODING 9007
SWIDTH 822 0
DWIDTH 6 0
BBX 5 5 0 0
BITMAP
08
10
20
40
80
ENDCHAR
STARTCHAR $2330
ENCODING 9008
SWIDTH 822 0
DWIDTH 6 0
BBX 5 7 0 -1
BITMAP
70
88
98
A8
C8
88
70
ENDCHAR
STARTCHAR $2331
ENCODING 9009
SWIDTH 822 0
DWIDTH 6 0
BBX 3 7 1 -1
BITMAP
40
C0
40
40
40
40
E0
ENDCHAR
STARTCHAR $2332
ENCODING 9010
SWIDTH 822 0
DWIDTH 6 0
BBX 5 7 0 -1
BITMAP
70
88
08
30
40
80
F8
ENDCHAR
STARTCHAR $2333
ENCODING 9011
SWIDTH 822 0
DWIDTH 6 0
BBX 5 7 0 -1
BITMAP
70
88
08
30
08
88
70
ENDCHAR
STARTCHAR $2334
ENCODING 9012
SWIDTH 822 0
DWIDTH 6 0
BBX 5 7 0 -1
BITMAP
10
30
50
90
F8
10
10
ENDCHAR
STARTCHAR $2335
ENCODING 9013
SWIDTH 822 0
DWIDTH 6 0
BBX 5 7 0 -1
BITMAP
F8
80
F0
88
08
88
70
ENDCHAR
STARTCHAR $2336
ENCODING 9014
SWIDTH 822 0
DWIDTH 6 0
BBX 5 7 0 -1
BITMAP
70
88
80
F0
88
88
70
ENDCHAR
STARTCHAR $2337
ENCODING 9015
SWIDTH 822 0
DWIDTH 6 0
BBX 5 7 0 -1
BITMAP
F8
08
10
20
20
40
40
ENDCHAR
STARTCHAR $2338
ENCODING 9016
SWIDTH 822 0
DWIDTH 6 0
BBX 5 7 0 -1
BITMAP
70
88
88
70
88
88
70
ENDCHAR
STARTCHAR $2339
ENCODING 9017
SWIDTH 822 0
DWIDTH 6 0
BBX 5 7 0 -1
BITMAP
70
88
88
78
08
88
70
ENDCHAR
STARTCHAR $2127
ENCODING 9018
SWIDTH 822 0
DWIDTH 6 0
BBX 2 5 1 0
BITMAP
C0
C0
00
C0
C0
ENDCHAR
STARTCHAR $2128
ENCODING 9019
SWIDTH 822 0
DWIDTH 6 0
BBX 2 6 1 -1
BITMAP
C0
C0
00
C0
40
80
ENDCHAR
STARTCHAR $2163
ENCODING 9020
SWIDTH 822 0
DWIDTH 6 0
BBX 5 5 0 0
BITMAP
18
60
80
60
18
ENDCHAR
STARTCHAR $2161
ENCODING 9021
SWIDTH 822 0
DWIDTH 6 0
BBX 5 3 0 1
BITMAP
F8
00
F8
ENDCHAR
STARTCHAR $2164
ENCODING 9022
SWIDTH 822 0
DWIDTH 6 0
BBX 5 5 0 0
BITMAP
C0
30
08
30
C0
ENDCHAR
STARTCHAR $2129
ENCODING 9023
SWIDTH 822 0
DWIDTH 6 0
BBX 5 7 0 -1
BITMAP
70
88
08
30
20
00
20
ENDCHAR
STARTCHAR $2177
ENCODING 9024
SWIDTH 822 0
DWIDTH 6 0
BBX 5 7 0 -1
BITMAP
70
88
B8
A8
B0
88
70
ENDCHAR
STARTCHAR $2341
ENCODING 9025
SWIDTH 822 0
DWIDTH 6 0
BBX 5 7 0 -1
BITMAP
20
20
50
50
70
88
88
ENDCHAR
STARTCHAR $2342
ENCODING 9026
SWIDTH 822 0
DWIDTH 6 0
BBX 5 7 0 -1
BITMAP
F0
88
88
F0
88
88
F0
ENDCHAR
STARTCHAR $2343
ENCODING 9027
SWIDTH 822 0
DWIDTH 6 0
BBX 5 7 0 -1
BITMAP
30
48
80
80
80
48
30
ENDCHAR
STARTCHAR $2344
ENCODING 9028
SWIDTH 822 0
DWIDTH 6 0
BBX 5 7 0 -1
BITMAP
E0
90
88
88
88
90
E0
ENDCHAR
STARTCHAR $2345
ENCODING 9029
SWIDTH 822 0
DWIDTH 6 0
BBX 5 7 0 -1
BITMAP
F8
80
80
F0
80
80
F8
ENDCHAR
STARTCHAR $2346
ENCODING 9030
SWIDTH 822 0
DWIDTH 6 0
BBX 5 7 0 -1
BITMAP
F8
80
80
F0
80
80
80
ENDCHAR
STARTCHAR $2347
ENCODING 9031
SWIDTH 822 0
DWIDTH 6 0
BBX 5 7 0 -1
BITMAP
30
48
80
98
88
48
30
ENDCHAR
STARTCHAR $2348
ENCODING 9032
SWIDTH 822 0
DWIDTH 6 0
BBX 5 7 0 -1
BITMAP
88
88
88
F8
88
88
88
ENDCHAR
STARTCHAR $2349
ENCODING 9033
SWIDTH 822 0
DWIDTH 6 0
BBX 3 7 1 -1
BITMAP
E0
40
40
40
40
40
E0
ENDCHAR
STARTCHAR $234a
ENCODING 9034
SWIDTH 822 0
DWIDTH 6 0
BBX 5 7 0 -1
BITMAP
08
08
08
08
08
88
70
ENDCHAR
STARTCHAR $234b
ENCODING 9035
SWIDTH 822 0
DWIDTH 6 0
BBX 5 7 0 -1
BITMAP
88
90
A0
C0
A0
90
88
ENDCHAR
STARTCHAR $234c
ENCODING 9036
SWIDTH 822 0
DWIDTH 6 0
BBX 5 7 0 -1
BITMAP
80
80
80
80
80
80
F8
ENDCHAR
STARTCHAR $234d
ENCODING 9037
SWIDTH 822 0
DWIDTH 6 0
BBX 5 7 0 -1
BITMAP
88
88
D8
A8
A8
88
88
ENDCHAR
STARTCHAR $234e
ENCODING 9038
SWIDTH 822 0
DWIDTH 6 0
BBX 5 7 0 -1
BITMAP
88
88
C8
A8
98
88
88
ENDCHAR
STARTCHAR $234f
ENCODING 9039
SWIDTH 822 0
DWIDTH 6 0
BBX 5 7 0 -1
BITMAP
70
88
88
88
88
88
70
ENDCHAR
STARTCHAR $2350
ENCODING 9040
SWIDTH 822 0
DWIDTH 6 0
BBX 5 7 0 -1
BITMAP
F0
88
88
F0
80
80
80
ENDCHAR
STARTCHAR $2351
ENCODING 9041
SWIDTH 822 0
DWIDTH 6 0
BBX 5 7 0 -1
BITMAP
70
88
88
88
A8
90
68
ENDCHAR
STARTCHAR $2352
ENCODING 9042
SWIDTH 822 0
DWIDTH 6 0
BBX 5 7 0 -1
BITMAP
F0
88
88
F0
A0
90
88
ENDCHAR
STARTCHAR $2353
ENCODING 9043
SWIDTH 822 0
DWIDTH 6 0
BBX 5 7 0 -1
BITMAP
70
88
80
70
08
88
70
ENDCHAR
STARTCHAR $2354
ENCODING 9044
SWIDTH 822 0
DWIDTH 6 0
BBX 5 7 0 -1
BITMAP
F8
20
20
20
20
20
20
ENDCHAR
STARTCHAR $2355
ENCODING 9045
SWIDTH 822 0
DWIDTH 6 0
BBX 5 7 0 -1
BITMAP
88
88
88
88
88
88
70
ENDCHAR
STARTCHAR $2356
ENCODING 9046
SWIDTH 822 0
DWIDTH 6 0
BBX 5 7 0 -1
BITMAP
88
88
50
50
50
20
20
ENDCHAR
STARTCHAR $2357
ENCODING 9047
SWIDTH 822 0
DWIDTH 6 0
BBX 5 7 0 -1
BITMAP
A8
A8
A8
A8
50
50
50
ENDCHAR
STARTCHAR $2358
ENCODING 9048
SWIDTH 822 0
DWIDTH 6 0
BBX 5 7 0 -1
BITMAP
88
50
50
20
50
50
88
ENDCHAR
STARTCHAR $2359
ENCODING 9049
SWIDTH 822 0
DWIDTH 6 0
BBX 5 7 0 -1
BITMAP
88
50
50
20
20
20
20
ENDCHAR
STARTCHAR $235a
ENCODING 9050
SWIDTH 822 0
DWIDTH 6 0
BBX 5 7 0 -1
BITMAP
F8
08
10
20
40
80
F8
ENDCHAR
STARTCHAR $214e
ENCODING 9051
SWIDTH 822 0
DWIDTH 6 0
BBX 3 7 2 -1
BITMAP
E0
80
80
80
80
80
E0
ENDCHAR
STARTCHAR $2140
ENCODING 9052
SWIDTH 822 0
DWIDTH 6 0
BBX 5 5 0 0
BITMAP
80
40
20
10
08
ENDCHAR
STARTCHAR $214f
ENCODING 9053
SWIDTH 822 0
DWIDTH 6 0
BBX 3 7 0 -1
BITMAP
E0
20
20
20
20
20
E0
ENDCHAR
STARTCHAR $2130
ENCODING 9054
SWIDTH 822 0
DWIDTH 6 0
BBX 3 2 1 4
BITMAP
40
A0
ENDCHAR
STARTCHAR $2132
ENCODING 9055
SWIDTH 822 0
DWIDTH 6 0
BBX 5 1 0 -1
BITMAP
F8
ENDCHAR
STARTCHAR $212e
ENCODING 9056
SWIDTH 822 0
DWIDTH 6 0
BBX 2 2 1 4
BITMAP
80
40
ENDCHAR
STARTCHAR $2361
ENCODING 9057
SWIDTH 822 0
DWIDTH 6 0
BBX 4 5 1 -1
BITMAP
60
10
70
90
70
ENDCHAR
STARTCHAR $2362
ENCODING 9058
SWIDTH 822 0
DWIDTH 6 0
BBX 4 7 1 -1
BITMAP
80
80
E0
90
90
90
E0
ENDCHAR
STARTCHAR $2363
ENCODING 9059
SWIDTH 822 0
DWIDTH 6 0
BBX 4 5 1 -1
BITMAP
60
90
80
90
60
ENDCHAR
STARTCHAR $2364
ENCODING 9060
SWIDTH 822 0
DWIDTH 6 0
BBX 4 7 1 -1
BITMAP
10
10
70
90
90
90
70
ENDCHAR
STARTCHAR $2365
ENCODING 9061
SWIDTH 822 0
DWIDTH 6 0
BBX 4 5 1 -1
BITMAP
60
90
F0
80
60
ENDCHAR
STARTCHAR $2366
ENCODING 9062
SWIDTH 822 0
DWIDTH 6 0
BBX 4 7 1 -1
BITMAP
30
40
E0
40
40
40
40
ENDCHAR
STARTCHAR $2367
ENCODING 9063
SWIDTH 822 0
DWIDTH 6 0
BBX 4 5 1 -1
BITMAP
70
90
70
10
60
ENDCHAR
STARTCHAR $2368
ENCODING 9064
SWIDTH 822 0
DWIDTH 6 0
BBX 4 7 1 -1
BITMAP
80
80
E0
90
90
90
90
ENDCHAR
STARTCHAR $2369
ENCODING 9065
SWIDTH 822 0
DWIDTH 6 0
BBX 1 7 2 -1
BITMAP
80
00
80
80
80
80
80
ENDCHAR
STARTCHAR $236a
ENCODING 9066
SWIDTH 822 0
DWIDTH 6 0
BBX 3 7 1 -1
BITMAP
20
00
20
20
20
20
C0
ENDCHAR
STARTCHAR $236b
ENCODING 9067
SWIDTH 822 0
DWIDTH 6 0
BBX 4 7 1 -1
BITMAP
80
80
90
A0
C0
A0
90
ENDCHAR
STARTCHAR $236c
ENCODING 9068
SWIDTH 822 0
DWIDTH 6 0
BBX 2 7 1 -1
BITMAP
C0
40
40
40
40
40
40
ENDCHAR
STARTCHAR $236d
ENCODING 9069
SWIDTH 822 0
DWIDTH 6 0
BBX 5 5 0 -1
BITMAP
F0
A8
A8
A8
A8
ENDCHAR
STARTCHAR $236e
ENCODING 9070
SWIDTH 822 0
DWIDTH 6 0
BBX 4 5 1 -1
BITMAP
E0
90
90
90
90
ENDCHAR
STARTCHAR $236f
ENCODING 9071
SWIDTH 822 0
DWIDTH 6 0
BBX 4 5 1 -1
BITMAP
60
90
90
90
60
ENDCHAR
STARTCHAR $2370
ENCODING 9072
SWIDTH 822 0
DWIDTH 6 0
BBX 4 5 1 -1
BITMAP
E0
90
E0
80
80
ENDCHAR
STARTCHAR $2371
ENCODING 9073
SWIDTH 822 0
DWIDTH 6 0
BBX 4 5 1 -1
BITMAP
70
90
70
10
10
ENDCHAR
STARTCHAR $2372
ENCODING 9074
SWIDTH 822 0
DWIDTH 6 0
BBX 4 5 1 -1
BITMAP
B0
C0
80
80
80
ENDCHAR
STARTCHAR $2373
ENCODING 9075
SWIDTH 822 0
DWIDTH 6 0
BBX 4 5 1 -1
BITMAP
70
80
60
10
E0
ENDCHAR
STARTCHAR $2374
ENCODING 9076
SWIDTH 822 0
DWIDTH 6 0
BBX 4 6 1 -1
BITMAP
40
F0
40
40
40
30
ENDCHAR
STARTCHAR $2375
ENCODING 9077
SWIDTH 822 0
DWIDTH 6 0
BBX 4 5 1 -1
BITMAP
90
90
90
90
70
ENDCHAR
STARTCHAR $2376
ENCODING 9078
SWIDTH 822 0
DWIDTH 6 0
BBX 4 5 1 -1
BITMAP
90
90
90
A0
40
ENDCHAR
STARTCHAR $2377
ENCODING 9079
SWIDTH 822 0
DWIDTH 6 0
BBX 5 5 0 -1
BITMAP
A8
A8
A8
50
50
ENDCHAR
STARTCHAR $2378
ENCODING 9080
SWIDTH 822 0
DWIDTH 6 0
BBX 4 5 1 -1
BITMAP
90
90
60
90
90
ENDCHAR
STARTCHAR $2379
ENCODING 9081
SWIDTH 822 0
DWIDTH 6 0
BBX 4 5 1 -1
BITMAP
90
90
50
20
C0
ENDCHAR
STARTCHAR $237a
ENCODING 9082
SWIDTH 822 0
DWIDTH 6 0
BBX 4 5 1 -1
BITMAP
F0
10
20
40
F0
ENDCHAR
STARTCHAR $2150
ENCODING 9083
SWIDTH 822 0
DWIDTH 6 0
BBX 4 7 1 -1
BITMAP
30
40
40
80
40
40
30
ENDCHAR
STARTCHAR $2143
ENCODING 9084
SWIDTH 822 0
DWIDTH 6 0
BBX 1 7 2 -1
BITMAP
80
80
80
80
80
80
80
ENDCHAR
STARTCHAR $2151
ENCODING 9085
SWIDTH 822 0
DWIDTH 6 0
BBX 4 7 0 -1
BITMAP
C0
20
20
10
20
20
C0
ENDCHAR
STARTCHAR $2131
ENCODING 9086
SWIDTH 822 0
DWIDTH 6 0
BBX 5 1 0 5
BITMAP
F8
ENDCHAR
STARTCHAR $2421
ENCODING 9249
SWIDTH 822 0
DWIDTH 6 0
BBX 5 6 0 -1
BITMAP
20
70
28
70
B8
68
ENDCHAR
STARTCHAR $2422
ENCODING 9250
SWIDTH 822 0
DWIDTH 6 0
BBX 5 7 0 -1
BITMAP
20
70
28
70
B8
A8
48
ENDCHAR
STARTCHAR $2423
ENCODING 9251
SWIDTH 822 0
DWIDTH 6 0
BBX 5 5 0 -1
BITMAP
90
88
88
A0
40
ENDCHAR
STARTCHAR $2424
ENCODING 9252
SWIDTH 822 0
DWIDTH 6 0
BBX 5 6 0 -1
BITMAP
90
88
88
88
A0
40
ENDCHAR
STARTCHAR $2425
ENCODING 9253
SWIDTH 822 0
DWIDTH 6 0
BBX 4 6 1 -1
BITMAP
60
00
60
90
20
40
ENDCHAR
STARTCHAR $2426
ENCODING 9254
SWIDTH 822 0
DWIDTH 6 0
BBX 5 7 0 -1
BITMAP
70
00
70
88
08
10
60
ENDCHAR
STARTCHAR $2427
ENCODING 9255
SWIDTH 822 0
DWIDTH 6 0
BBX 4 6 1 -1
BITMAP
60
00
E0
20
40
B0
ENDCHAR
STARTCHAR $2428
ENCODING 9256
SWIDTH 822 0
DWIDTH 6 0
BBX 5 7 0 -1
BITMAP
70
00
F0
10
20
50
98
ENDCHAR
STARTCHAR $2429
ENCODING 9257
SWIDTH 822 0
DWIDTH 6 0
BBX 5 6 0 -1
BITMAP
40
E8
40
70
C8
50
ENDCHAR
STARTCHAR $242a
ENCODING 9258
SWIDTH 822 0
DWIDTH 6 0
BBX 5 7 0 -1
BITMAP
50
E8
40
70
C8
C8
50
ENDCHAR
STARTCHAR $242b
ENCODING 9259
SWIDTH 822 0
DWIDTH 6 0
BBX 5 7 0 -1
BITMAP
40
50
E8
58
50
90
A0
ENDCHAR
STARTCHAR $242c
ENCODING 9260
SWIDTH 822 0
DWIDTH 6 0
BBX 5 7 0 -1
BITMAP
58
40
E8
58
50
90
A0
ENDCHAR
STARTCHAR $242d
ENCODING 9261
SWIDTH 822 0
DWIDTH 6 0
BBX 5 7 0 -1
BITMAP
20
F0
20
F8
50
80
70
ENDCHAR
STARTCHAR $242e
ENCODING 9262
SWIDTH 822 0
DWIDTH 6 0
BBX 5 7 0 -1
BITMAP
28
F0
20
F8
50
80
70
ENDCHAR
STARTCHAR $242f
ENCODING 9263
SWIDTH 822 0
DWIDTH 6 0
BBX 4 7 0 -1
BITMAP
10
10
60
80
60
10
10
ENDCHAR
STARTCHAR $2430
ENCODING 9264
SWIDTH 822 0
DWIDTH 6 0
BBX 5 7 0 -1
BITMAP
10
10
68
80
60
10
10
ENDCHAR
STARTCHAR $2431
ENCODING 9265
SWIDTH 822 0
DWIDTH 6 0
BBX 5 7 0 -1
BITMAP
90
90
B8
90
90
90
20
ENDCHAR
STARTCHAR $2432
ENCODING 9266
SWIDTH 822 0
DWIDTH 6 0
BBX 5 7 0 -1
BITMAP
98
90
B8
90
90
90
20
ENDCHAR
STARTCHAR $2433
ENCODING 9267
SWIDTH 822 0
DWIDTH 6 0
BBX 5 6 0 -1
BITMAP
70
00
00
40
80
78
ENDCHAR
STARTCHAR $2434
ENCODING 9268
SWIDTH 822 0
DWIDTH 6 0
BBX 5 7 0 -1
BITMAP
28
70
00
00
40
80
78
ENDCHAR
STARTCHAR $2435
ENCODING 9269
SWIDTH 822 0
DWIDTH 6 0
BBX 5 7 0 -1
BITMAP
20
20
F8
10
50
80
70
ENDCHAR
STARTCHAR $2436
ENCODING 9270
SWIDTH 822 0
DWIDTH 6 0
BBX 5 7 0 -1
BITMAP
28
20
F8
10
50
80
70
ENDCHAR
STARTCHAR $2437
ENCODING 9271
SWIDTH 822 0
DWIDTH 6 0
BBX 4 7 1 -1
BITMAP
80
80
80
80
80
90
60
ENDCHAR
STARTCHAR $2438
ENCODING 9272
SWIDTH 822 0
DWIDTH 6 0
BBX 4 7 1 -1
BITMAP
B0
80
80
80
80
90
60
ENDCHAR
STARTCHAR $2439
ENCODING 9273
SWIDTH 822 0
DWIDTH 6 0
BBX 5 7 0 -1
BITMAP
10
F8
30
50
30
10
20
ENDCHAR
STARTCHAR $243a
ENCODING 9274
SWIDTH 822 0
DWIDTH 6 0
BBX 5 7 0 -1
BITMAP
28
F8
30
50
30
10
20
ENDCHAR
STARTCHAR $243b
ENCODING 9275
SWIDTH 822 0
DWIDTH 6 0
BBX 5 7 0 -1
BITMAP
50
50
F8
50
50
40
38
ENDCHAR
STARTCHAR $243c
ENCODING 9276
SWIDTH 822 0
DWIDTH 6 0
BBX 5 7 0 -1
BITMAP
58
50
F8
50
50
40
38
ENDCHAR
STARTCHAR $243d
ENCODING 9277
SWIDTH 822 0
DWIDTH 6 0
BBX 5 7 0 -1
BITMAP
70
20
40
F8
20
20
10
ENDCHAR
STARTCHAR $243e
ENCODING 9278
SWIDTH 822 0
DWIDTH 6 0
BBX 5 7 0 -1
BITMAP
70
28
40
F8
20
20
10
ENDCHAR
STARTCHAR $243f
ENCODING 9279
SWIDTH 822 0
DWIDTH 6 0
BBX 5 7 0 -1
BITMAP
40
E0
58
40
90
A0
98
ENDCHAR
STARTCHAR $2440
ENCODING 9280
SWIDTH 822 0
DWIDTH 6 0
BBX 5 7 0 -1
BITMAP
58
E0
58
40
90
A0
98
ENDCHAR
STARTCHAR $2441
ENCODING 9281
SWIDTH 822 0
DWIDTH 6 0
BBX 5 7 0 -1
BITMAP
20
F8
40
70
48
08
30
ENDCHAR
STARTCHAR $2442
ENCODING 9282
SWIDTH 822 0
DWIDTH 6 0
BBX 5 7 0 -1
BITMAP
28
F8
40
70
48
08
30
ENDCHAR
STARTCHAR $2443
ENCODING 9283
SWIDTH 822 0
DWIDTH 6 0
BBX 5 4 0 -1
BITMAP
30
C8
08
30
ENDCHAR
STARTCHAR $2444
ENCODING 9284
SWIDTH 822 0
DWIDTH 6 0
BBX 5 5 0 0
BITMAP
30
C8
08
08
30
ENDCHAR
STARTCHAR $2445
ENCODING 9285
SWIDTH 822 0
DWIDTH 6 0
BBX 5 6 0 0
BITMAP
28
30
C8
08
08
30
ENDCHAR
STARTCHAR $2446
ENCODING 9286
SWIDTH 822 0
DWIDTH 6 0
BBX 5 7 0 -1
BITMAP
38
D0
20
20
20
10
08
ENDCHAR
STARTCHAR $2447
ENCODING 9287
SWIDTH 822 0
DWIDTH 6 0
BBX 5 7 0 -1
BITMAP
38
D0
28
20
20
10
08
ENDCHAR
STARTCHAR $2448
ENCODING 9288
SWIDTH 822 0
DWIDTH 6 0
BBX 5 7 0 -1
BITMAP
40
40
48
30
40
80
78
ENDCHAR
STARTCHAR $2449
ENCODING 9289
SWIDTH 822 0
DWIDTH 6 0
BBX 5 7 0 -1
BITMAP
58
40
48
30
40
80
78
ENDCHAR
STARTCHAR $244a
ENCODING 9290
SWIDTH 822 0
DWIDTH 6 0
BBX 5 7 0 -1
BITMAP
40
D8
50
90
30
58
20
ENDCHAR
STARTCHAR $244b
ENCODING 9291
SWIDTH 822 0
DWIDTH 6 0
BBX 5 7 0 -1
BITMAP
80
B8
80
80
A0
C0
B8
ENDCHAR
STARTCHAR $244c
ENCODING 9292
SWIDTH 822 0
DWIDTH 6 0
BBX 5 7 0 -1
BITMAP
10
50
70
D8
A8
B8
58
ENDCHAR
STARTCHAR $244d
ENCODING 9293
SWIDTH 822 0
DWIDTH 6 0
BBX 5 7 0 -1
BITMAP
40
50
E8
48
D8
E8
58
ENDCHAR
STARTCHAR $244e
ENCODING 9294
SWIDTH 822 0
DWIDTH 6 0
BBX 5 6 0 -1
BITMAP
70
A8
A8
A8
C8
10
ENDCHAR
STARTCHAR $244f
ENCODING 9295
SWIDTH 822 0
DWIDTH 6 0
BBX 5 7 0 -1
BITMAP
90
90
B8
90
B0
D8
A0
ENDCHAR
STARTCHAR $2450
ENCODING 9296
SWIDTH 822 0
DWIDTH 6 0
BBX 5 7 0 -1
BITMAP
98
90
B8
90
B0
D8
A0
ENDCHAR
STARTCHAR $2451
ENCODING 9297
SWIDTH 822 0
DWIDTH 6 0
BBX 5 7 0 -1
BITMAP
90
A8
B8
90
B0
D8
A0
ENDCHAR
STARTCHAR $2452
ENCODING 9298
SWIDTH 822 0
DWIDTH 6 0
BBX 5 7 0 -1
BITMAP
50
D0
58
90
90
90
60
ENDCHAR
STARTCHAR $2453
ENCODING 9299
SWIDTH 822 0
DWIDTH 6 0
BBX 5 7 0 -1
BITMAP
58
D0
58
90
90
90
60
ENDCHAR
STARTCHAR $2454
ENCODING 9300
SWIDTH 822 0
DWIDTH 6 0
BBX 5 7 0 -1
BITMAP
50
E8
58
90
90
90
60
ENDCHAR
STARTCHAR $2455
ENCODING 9301
SWIDTH 822 0
DWIDTH 6 0
BBX 5 7 0 -1
BITMAP
20
10
20
10
50
58
A8
ENDCHAR
STARTCHAR $2456
ENCODING 9302
SWIDTH 822 0
DWIDTH 6 0
BBX 5 7 0 -1
BITMAP
28
10
20
10
50
58
A8
ENDCHAR
STARTCHAR $2457
ENCODING 9303
SWIDTH 822 0
DWIDTH 6 0
BBX 5 7 0 -1
BITMAP
20
10
28
10
50
58
A8
ENDCHAR
STARTCHAR $2458
ENCODING 9304
SWIDTH 822 0
DWIDTH 6 0
BBX 5 3 0 1
BITMAP
40
A0
18
ENDCHAR
STARTCHAR $2459
ENCODING 9305
SWIDTH 822 0
DWIDTH 6 0
BBX 5 5 0 1
BITMAP
28
00
40
A0
18
ENDCHAR
STARTCHAR $245a
ENCODING 9306
SWIDTH 822 0
DWIDTH 6 0
BBX 5 5 0 1
BITMAP
10
28
50
A0
18
ENDCHAR
STARTCHAR $245b
ENCODING 9307
SWIDTH 822 0
DWIDTH 6 0
BBX 5 7 0 -1
BITMAP
80
B8
90
B8
90
B8
B0
ENDCHAR
STARTCHAR $245c
ENCODING 9308
SWIDTH 822 0
DWIDTH 6 0
BBX 5 7 0 -1
BITMAP
A8
B8
90
B8
90
B8
B0
ENDCHAR
STARTCHAR $245d
ENCODING 9309
SWIDTH 822 0
DWIDTH 6 0
BBX 5 7 0 -1
BITMAP
90
A8
90
B8
90
B8
B0
ENDCHAR
STARTCHAR $245e
ENCODING 9310
SWIDTH 822 0
DWIDTH 6 0
BBX 5 7 0 -1
BITMAP
20
F8
20
F8
20
F0
E8
ENDCHAR
STARTCHAR $245f
ENCODING 9311
SWIDTH 822 0
DWIDTH 6 0
BBX 5 7 0 -1
BITMAP
60
20
50
70
D8
D0
20
ENDCHAR
STARTCHAR $2460
ENCODING 9312
SWIDTH 822 0
DWIDTH 6 0
BBX 5 7 0 -1
BITMAP
50
E8
40
40
C0
C8
70
ENDCHAR
STARTCHAR $2461
ENCODING 9313
SWIDTH 822 0
DWIDTH 6 0
BBX 5 7 0 -1
BITMAP
10
50
70
D8
A8
A8
48
ENDCHAR
STARTCHAR $2462
ENCODING 9314
SWIDTH 822 0
DWIDTH 6 0
BBX 5 7 0 -1
BITMAP
20
F0
40
F0
40
48
30
ENDCHAR
STARTCHAR $2463
ENCODING 9315
SWIDTH 822 0
DWIDTH 6 0
BBX 5 6 0 -1
BITMAP
50
70
C8
58
20
20
ENDCHAR
STARTCHAR $2464
ENCODING 9316
SWIDTH 822 0
DWIDTH 6 0
BBX 5 7 0 -1
BITMAP
50
70
C8
58
20
20
20
ENDCHAR
STARTCHAR $2465
ENCODING 9317
SWIDTH 822 0
DWIDTH 6 0
BBX 5 6 0 -1
BITMAP
20
B0
E8
A8
30
40
ENDCHAR
STARTCHAR $2466
ENCODING 9318
SWIDTH 822 0
DWIDTH 6 0
BBX 5 7 0 -1
BITMAP
20
B0
E8
A8
B0
20
40
ENDCHAR
STARTCHAR $2467
ENCODING 9319
SWIDTH 822 0
DWIDTH 6 0
BBX 5 6 0 -1
BITMAP
20
20
38
60
B0
48
ENDCHAR
STARTCHAR $2468
ENCODING 9320
SWIDTH 822 0
DWIDTH 6 0
BBX 5 7 0 -1
BITMAP
20
20
38
20
60
B0
48
ENDCHAR
STARTCHAR $2469
ENCODING 9321
SWIDTH 822 0
DWIDTH 6 0
BBX 5 7 0 -1
BITMAP
40
20
80
B0
C8
08
70
ENDCHAR
STARTCHAR $246a
ENCODING 9322
SWIDTH 822 0
DWIDTH 6 0
BBX 4 7 1 -1
BITMAP
A0
D0
90
90
10
20
40
ENDCHAR
STARTCHAR $246b
ENCODING 9323
SWIDTH 822 0
DWIDTH 6 0
BBX 5 7 0 -1
BITMAP
70
10
20
70
88
68
70
ENDCHAR
STARTCHAR $246c
ENCODING 9324
SWIDTH 822 0
DWIDTH 6 0
BBX 5 7 0 -1
BITMAP
40
50
E8
48
D0
D0
48
ENDCHAR
STARTCHAR $246d
ENCODING 9325
SWIDTH 822 0
DWIDTH 6 0
BBX 5 7 0 -1
BITMAP
70
10
20
70
88
08
70
ENDCHAR
STARTCHAR $246e
ENCODING 9326
SWIDTH 822 0
DWIDTH 6 0
BBX 5 6 0 -1
BITMAP
40
50
E8
48
C8
50
ENDCHAR
STARTCHAR $246f
ENCODING 9327
SWIDTH 822 0
DWIDTH 6 0
BBX 5 7 0 -1
BITMAP
40
50
E8
48
C8
C8
50
ENDCHAR
STARTCHAR $2470
ENCODING 9328
SWIDTH 822 0
DWIDTH 6 0
BBX 5 7 0 -1
BITMAP
60
20
30
68
A8
B8
58
ENDCHAR
STARTCHAR $2471
ENCODING 9329
SWIDTH 822 0
DWIDTH 6 0
BBX 5 7 0 -1
BITMAP
70
20
70
88
30
50
A8
ENDCHAR
STARTCHAR $2472
ENCODING 9330
SWIDTH 822 0
DWIDTH 6 0
BBX 5 7 0 -1
BITMAP
20
F0
48
70
A8
40
38
ENDCHAR
STARTCHAR $2473
ENCODING 9331
SWIDTH 822 0
DWIDTH 6 0
BBX 5 7 0 -1
BITMAP
20
20
40
40
60
A8
90
ENDCHAR
STARTCHAR $2521
ENCODING 9505
SWIDTH 822 0
DWIDTH 6 0
BBX 5 5 0 -1
BITMAP
F8
28
30
20
40
ENDCHAR
STARTCHAR $2522
ENCODING 9506
SWIDTH 822 0
DWIDTH 6 0
BBX 5 7 0 -1
BITMAP
F8
08
28
30
20
20
40
ENDCHAR
STARTCHAR $2523
ENCODING 9507
SWIDTH 822 0
DWIDTH 6 0
BBX 5 5 0 -1
BITMAP
08
10
30
D0
10
ENDCHAR
STARTCHAR $2524
ENCODING 9508
SWIDTH 822 0
DWIDTH 6 0
BBX 5 7 0 -1
BITMAP
08
08
10
30
D0
10
10
ENDCHAR
STARTCHAR $2525
ENCODING 9509
SWIDTH 822 0
DWIDTH 6 0
BBX 5 5 0 -1
BITMAP
20
F8
88
10
60
ENDCHAR
STARTCHAR $2526
ENCODING 9510
SWIDTH 822 0
DWIDTH 6 0
BBX 5 7 0 -1
BITMAP
20
F8
88
08
08
10
60
ENDCHAR
STARTCHAR $2527
ENCODING 9511
SWIDTH 822 0
DWIDTH 6 0
BBX 5 4 0 -1
BITMAP
70
20
20
F8
ENDCHAR
STARTCHAR $2528
ENCODING 9512
SWIDTH 822 0
DWIDTH 6 0
BBX 5 5 0 0
BITMAP
70
20
20
20
F8
ENDCHAR
STARTCHAR $2529
ENCODING 9513
SWIDTH 822 0
DWIDTH 6 0
BBX 5 5 0 -1
BITMAP
10
F8
30
D0
30
ENDCHAR
STARTCHAR $252a
ENCODING 9514
SWIDTH 822 0
DWIDTH 6 0
BBX 5 7 0 -1
BITMAP
10
F8
10
30
50
90
30
ENDCHAR
STARTCHAR $252b
ENCODING 9515
SWIDTH 822 0
DWIDTH 6 0
BBX 5 7 0 -1
BITMAP
20
F8
28
28
48
48
98
ENDCHAR
STARTCHAR $252c
ENCODING 9516
SWIDTH 822 0
DWIDTH 6 0
BBX 5 7 0 -1
BITMAP
28
F8
28
28
48
48
98
ENDCHAR
STARTCHAR $252d
ENCODING 9517
SWIDTH 822 0
DWIDTH 6 0
BBX 5 7 0 -1
BITMAP
20
F8
20
20
F8
20
20
ENDCHAR
STARTCHAR $252e
ENCODING 9518
SWIDTH 822 0
DWIDTH 6 0
BBX 5 7 0 -1
BITMAP
28
F8
20
20
F8
20
20
ENDCHAR
STARTCHAR $252f
ENCODING 9519
SWIDTH 822 0
DWIDTH 6 0
BBX 5 7 0 -1
BITMAP
20
38
48
88
10
20
C0
ENDCHAR
STARTCHAR $2530
ENCODING 9520
SWIDTH 822 0
DWIDTH 6 0
BBX 5 7 0 -1
BITMAP
28
38
48
88
10
20
C0
ENDCHAR
STARTCHAR $2531
ENCODING 9521
SWIDTH 822 0
DWIDTH 6 0
BBX 5 7 0 -1
BITMAP
40
78
50
90
10
10
20
ENDCHAR
STARTCHAR $2532
ENCODING 9522
SWIDTH 822 0
DWIDTH 6 0
BBX 5 7 0 -1
BITMAP
48
78
50
90
10
10
20
ENDCHAR
STARTCHAR $2533
ENCODING 9523
SWIDTH 822 0
DWIDTH 6 0
BBX 5 6 0 -1
BITMAP
F8
08
08
08
08
F8
ENDCHAR
STARTCHAR $2534
ENCODING 9524
SWIDTH 822 0
DWIDTH 6 0
BBX 5 7 0 -1
BITMAP
28
F8
08
08
08
08
F8
ENDCHAR
STARTCHAR $2535
ENCODING 9525
SWIDTH 822 0
DWIDTH 6 0
BBX 5 7 0 -1
BITMAP
50
F8
50
50
10
20
40
ENDCHAR
STARTCHAR $2536
ENCODING 9526
SWIDTH 822 0
DWIDTH 6 0
BBX 5 7 0 -1
BITMAP
58
F0
50
50
10
20
40
ENDCHAR
STARTCHAR $2537
ENCODING 9527
SWIDTH 822 0
DWIDTH 6 0
BBX 5 7 0 -1
BITMAP
80
40
88
48
10
20
C0
ENDCHAR
STARTCHAR $2538
ENCODING 9528
SWIDTH 822 0
DWIDTH 6 0
BBX 5 7 0 -1
BITMAP
98
40
88
48
10
20
C0
ENDCHAR
STARTCHAR $2539
ENCODING 9529
SWIDTH 822 0
DWIDTH 6 0
BBX 5 6 0 -1
BITMAP
F8
08
10
20
50
88
ENDCHAR
STARTCHAR $253a
ENCODING 9530
SWIDTH 822 0
DWIDTH 6 0
BBX 5 7 0 -1
BITMAP
28
F8
08
10
20
50
88
ENDCHAR
STARTCHAR $253b
ENCODING 9531
SWIDTH 822 0
DWIDTH 6 0
BBX 5 7 0 -1
BITMAP
40
40
F8
48
50
40
38
ENDCHAR
STARTCHAR $253c
ENCODING 9532
SWIDTH 822 0
DWIDTH 6 0
BBX 5 7 0 -1
BITMAP
58
40
F8
48
50
40
38
ENDCHAR
STARTCHAR $253d
ENCODING 9533
SWIDTH 822 0
DWIDTH 6 0
BBX 5 7 0 -1
BITMAP
88
48
48
10
10
20
40
ENDCHAR
STARTCHAR $253e
ENCODING 9534
SWIDTH 822 0
DWIDTH 6 0
BBX 5 7 0 -1
BITMAP
98
48
48
10
10
20
40
ENDCHAR
STARTCHAR $253f
ENCODING 9535
SWIDTH 822 0
DWIDTH 6 0
BBX 5 7 0 -1
BITMAP
20
38
48
A8
10
20
C0
ENDCHAR
STARTCHAR $2540
ENCODING 9536
SWIDTH 822 0
DWIDTH 6 0
BBX 5 7 0 -1
BITMAP
28
38
48
A8
10
20
C0
ENDCHAR
STARTCHAR $2541
ENCODING 9537
SWIDTH 822 0
DWIDTH 6 0
BBX 5 7 0 -1
BITMAP
10
60
20
F8
20
20
40
ENDCHAR
STARTCHAR $2542
ENCODING 9538
SWIDTH 822 0
DWIDTH 6 0
BBX 5 7 0 -1
BITMAP
10
68
20
F8
20
20
40
ENDCHAR
STARTCHAR $2543
ENCODING 9539
SWIDTH 822 0
DWIDTH 6 0
BBX 5 4 0 -1
BITMAP
A8
A8
10
60
ENDCHAR
STARTCHAR $2544
ENCODING 9540
SWIDTH 822 0
DWIDTH 6 0
BBX 5 6 0 -1
BITMAP
A8
A8
A8
08
10
60
ENDCHAR
STARTCHAR $2545
ENCODING 9541
SWIDTH 822 0
DWIDTH 6 0
BBX 5 7 0 -1
BITMAP
18
A0
A8
A8
08
10
60
ENDCHAR
STARTCHAR $2546
ENCODING 9542
SWIDTH 822 0
DWIDTH 6 0
BBX 5 7 0 -1
BITMAP
70
00
F8
20
20
20
40
ENDCHAR
STARTCHAR $2547
ENCODING 9543
SWIDTH 822 0
DWIDTH 6 0
BBX 5 7 0 -1
BITMAP
68
00
F8
20
20
20
40
ENDCHAR
STARTCHAR $2548
ENCODING 9544
SWIDTH 822 0
DWIDTH 6 0
BBX 3 7 1 -1
BITMAP
80
80
80
C0
A0
80
80
ENDCHAR
STARTCHAR $2549
ENCODING 9545
SWIDTH 822 0
DWIDTH 6 0
BBX 4 7 1 -1
BITMAP
B0
80
80
C0
A0
80
80
ENDCHAR
STARTCHAR $254a
ENCODING 9546
SWIDTH 822 0
DWIDTH 6 0
BBX 5 7 0 -1
BITMAP
20
20
F8
20
20
20
40
ENDCHAR
STARTCHAR $254b
ENCODING 9547
SWIDTH 822 0
DWIDTH 6 0
BBX 5 5 0 0
BITMAP
70
00
00
00
F8
ENDCHAR
STARTCHAR $254c
ENCODING 9548
SWIDTH 822 0
DWIDTH 6 0
BBX 5 6 0 -1
BITMAP
F8
08
70
10
28
C0
ENDCHAR
STARTCHAR $254d
ENCODING 9549
SWIDTH 822 0
DWIDTH 6 0
BBX 5 7 0 -1
BITMAP
20
F8
10
20
70
A8
20
ENDCHAR
STARTCHAR $254e
ENCODING 9550
SWIDTH 822 0
DWIDTH 6 0
BBX 4 7 0 -1
BITMAP
10
10
10
20
20
40
80
ENDCHAR
STARTCHAR $254f
ENCODING 9551
SWIDTH 822 0
DWIDTH 6 0
BBX 5 6 0 -1
BITMAP
50
50
50
48
88
88
ENDCHAR
STARTCHAR $2550
ENCODING 9552
SWIDTH 822 0
DWIDTH 6 0
BBX 5 7 0 -1
BITMAP
28
40
50
50
48
88
88
ENDCHAR
STARTCHAR $2551
ENCODING 9553
SWIDTH 822 0
DWIDTH 6 0
BBX 5 7 0 -1
BITMAP
10
68
50
50
48
88
88
ENDCHAR
STARTCHAR $2552
ENCODING 9554
SWIDTH 822 0
DWIDTH 6 0
BBX 5 7 0 -1
BITMAP
80
80
98
E0
80
80
78
ENDCHAR
STARTCHAR $2553
ENCODING 9555
SWIDTH 822 0
DWIDTH 6 0
BBX 5 7 0 -1
BITMAP
A8
80
98
E0
80
80
78
ENDCHAR
STARTCHAR $2554
ENCODING 9556
SWIDTH 822 0
DWIDTH 6 0
BBX 5 7 0 -1
BITMAP
90
A8
98
E0
80
80
78
ENDCHAR
STARTCHAR $2555
ENCODING 9557
SWIDTH 822 0
DWIDTH 6 0
BBX 5 6 0 -1
BITMAP
F8
08
08
10
20
40
ENDCHAR
STARTCHAR $2556
ENCODING 9558
SWIDTH 822 0
DWIDTH 6 0
BBX 5 7 0 -1
BITMAP
28
F8
08
08
10
20
40
ENDCHAR
STARTCHAR $2557
ENCODING 9559
SWIDTH 822 0
DWIDTH 6 0
BBX 5 7 0 -1
BITMAP
10
E8
18
08
10
20
40
ENDCHAR
STARTCHAR $2558
ENCODING 9560
SWIDTH 822 0
DWIDTH 6 0
BBX 5 4 0 0
BITMAP
40
A0
10
08
ENDCHAR
STARTCHAR $2559
ENCODING 9561
SWIDTH 822 0
DWIDTH 6 0
BBX 5 6 0 0
BITMAP
28
00
40
A0
10
08
ENDCHAR
STARTCHAR $255a
ENCODING 9562
SWIDTH 822 0
DWIDTH 6 0
BBX 5 6 0 0
BITMAP
10
28
50
A0
10
08
ENDCHAR
STARTCHAR $255b
ENCODING 9563
SWIDTH 822 0
DWIDTH 6 0
BBX 5 7 0 -1
BITMAP
20
20
F8
20
A8
A8
20
ENDCHAR
STARTCHAR $255c
ENCODING 9564
SWIDTH 822 0
DWIDTH 6 0
BBX 5 7 0 -1
BITMAP
28
20
F8
20
A8
A8
20
ENDCHAR
STARTCHAR $255d
ENCODING 9565
SWIDTH 822 0
DWIDTH 6 0
BBX 5 7 0 -1
BITMAP
30
28
F0
20
A8
A8
20
ENDCHAR
STARTCHAR $255e
ENCODING 9566
SWIDTH 822 0
DWIDTH 6 0
BBX 5 6 0 -1
BITMAP
F8
08
10
60
20
10
ENDCHAR
STARTCHAR $255f
ENCODING 9567
SWIDTH 822 0
DWIDTH 6 0
BBX 4 7 1 -1
BITMAP
C0
30
40
20
00
C0
30
ENDCHAR
STARTCHAR $2560
ENCODING 9568
SWIDTH 822 0
DWIDTH 6 0
BBX 5 7 0 -1
BITMAP
20
20
20
40
40
90
E8
ENDCHAR
STARTCHAR $2561
ENCODING 9569
SWIDTH 822 0
DWIDTH 6 0
BBX 5 7 0 -1
BITMAP
08
08
68
10
10
28
C0
ENDCHAR
STARTCHAR $2562
ENCODING 9570
SWIDTH 822 0
DWIDTH 6 0
BBX 5 7 0 -1
BITMAP
70
20
20
F8
20
20
18
ENDCHAR
STARTCHAR $2563
ENCODING 9571
SWIDTH 822 0
DWIDTH 6 0
BBX 5 5 0 -1
BITMAP
40
F8
48
20
20
ENDCHAR
STARTCHAR $2564
ENCODING 9572
SWIDTH 822 0
DWIDTH 6 0
BBX 5 7 0 -1
BITMAP
40
F8
48
50
20
20
20
ENDCHAR
STARTCHAR $2565
ENCODING 9573
SWIDTH 822 0
DWIDTH 6 0
BBX 5 4 0 -1
BITMAP
70
10
10
F8
ENDCHAR
STARTCHAR $2566
ENCODING 9574
SWIDTH 822 0
DWIDTH 6 0
BBX 5 5 0 0
BITMAP
70
10
10
10
F8
ENDCHAR
STARTCHAR $2567
ENCODING 9575
SWIDTH 822 0
DWIDTH 6 0
BBX 4 5 1 -1
BITMAP
F0
10
70
10
F0
ENDCHAR
STARTCHAR $2568
ENCODING 9576
SWIDTH 822 0
DWIDTH 6 0
BBX 5 6 0 -1
BITMAP
F8
08
78
08
08
F8
ENDCHAR
STARTCHAR $2569
ENCODING 9577
SWIDTH 822 0
DWIDTH 6 0
BBX 5 7 0 -1
BITMAP
70
00
F8
08
08
10
60
ENDCHAR
STARTCHAR $256a
ENCODING 9578
SWIDTH 822 0
DWIDTH 6 0
BBX 4 7 1 -1
BITMAP
90
90
90
90
10
20
40
ENDCHAR
STARTCHAR $256b
ENCODING 9579
SWIDTH 822 0
DWIDTH 6 0
BBX 5 7 0 -1
BITMAP
10
50
50
50
50
58
90
ENDCHAR
STARTCHAR $256c
ENCODING 9580
SWIDTH 822 0
DWIDTH 6 0
BBX 4 7 1 -1
BITMAP
80
80
80
80
90
A0
C0
ENDCHAR
STARTCHAR $256d
ENCODING 9581
SWIDTH 822 0
DWIDTH 6 0
BBX 5 6 0 -1
BITMAP
F8
88
88
88
88
F8
ENDCHAR
STARTCHAR $256e
ENCODING 9582
SWIDTH 822 0
DWIDTH 6 0
BBX 5 5 0 -1
BITMAP
F8
88
08
10
60
ENDCHAR
STARTCHAR $256f
ENCODING 9583
SWIDTH 822 0
DWIDTH 6 0
BBX 5 6 0 -1
BITMAP
F8
88
08
08
10
60
ENDCHAR
STARTCHAR $2570
ENCODING 9584
SWIDTH 822 0
DWIDTH 6 0
BBX 5 7 0 -1
BITMAP
10
F8
50
50
F8
10
10
ENDCHAR
STARTCHAR $2571
ENCODING 9585
SWIDTH 822 0
DWIDTH 6 0
BBX 5 5 0 0
BITMAP
F8
10
20
20
F8
ENDCHAR
STARTCHAR $2572
ENCODING 9586
SWIDTH 822 0
DWIDTH 6 0
BBX 5 6 0 -1
BITMAP
F8
08
78
08
10
60
ENDCHAR
STARTCHAR $2573
ENCODING 9587
SWIDTH 822 0
DWIDTH 6 0
BBX 5 7 0 -1
BITMAP
80
40
08
08
10
20
C0
ENDCHAR
STARTCHAR $2574
ENCODING 9588
SWIDTH 822 0
DWIDTH 6 0
BBX 5 7 0 -1
BITMAP
28
F8
88
08
08
10
60
ENDCHAR
STARTCHAR $2575
ENCODING 9589
SWIDTH 822 0
DWIDTH 6 0
BBX 5 5 0 -1
BITMAP
20
F8
28
48
98
ENDCHAR
STARTCHAR $2576
ENCODING 9590
SWIDTH 822 0
DWIDTH 6 0
BBX 5 5 0 -1
BITMAP
40
78
90
10
20
ENDCHAR
STARTCHAR $2621
ENCODING 9761
SWIDTH 822 0
DWIDTH 6 0
BBX 5 7 0 -1
BITMAP
20
20
50
50
70
88
88
ENDCHAR
STARTCHAR $2622
ENCODING 9762
SWIDTH 822 0
DWIDTH 6 0
BBX 5 7 0 -1
BITMAP
F0
88
88
F0
88
88
F0
ENDCHAR
STARTCHAR $2623
ENCODING 9763
SWIDTH 822 0
DWIDTH 6 0
BBX 5 7 0 -1
BITMAP
F8
80
80
80
80
80
80
ENDCHAR
STARTCHAR $2624
ENCODING 9764
SWIDTH 822 0
DWIDTH 6 0
BBX 5 7 0 -1
BITMAP
20
20
50
50
50
88
F8
ENDCHAR
STARTCHAR $2625
ENCODING 9765
SWIDTH 822 0
DWIDTH 6 0
BBX 5 7 0 -1
BITMAP
F8
80
80
F0
80
80
F8
ENDCHAR
STARTCHAR $2626
ENCODING 9766
SWIDTH 822 0
DWIDTH 6 0
BBX 5 7 0 -1
BITMAP
F8
08
10
20
40
80
F8
ENDCHAR
STARTCHAR $2627
ENCODING 9767
SWIDTH 822 0
DWIDTH 6 0
BBX 5 7 0 -1
BITMAP
88
88
88
F8
88
88
88
ENDCHAR
STARTCHAR $2628
ENCODING 9768
SWIDTH 822 0
DWIDTH 6 0
BBX 5 7 0 -1
BITMAP
70
88
D8
F8
D8
88
70
ENDCHAR
STARTCHAR $2629
ENCODING 9769
SWIDTH 822 0
DWIDTH 6 0
BBX 3 7 1 -1
BITMAP
E0
40
40
40
40
40
E0
ENDCHAR
STARTCHAR $262a
ENCODING 9770
SWIDTH 822 0
DWIDTH 6 0
BBX 5 7 0 -1
BITMAP
88
90
A0
C0
A0
90
88
ENDCHAR
STARTCHAR $262b
ENCODING 9771
SWIDTH 822 0
DWIDTH 6 0
BBX 5 7 0 -1
BITMAP
20
20
50
50
50
88
88
ENDCHAR
STARTCHAR $262c
ENCODING 9772
SWIDTH 822 0
DWIDTH 6 0
BBX 5 7 0 -1
BITMAP
88
88
D8
A8
A8
88
88
ENDCHAR
STARTCHAR $262d
ENCODING 9773
SWIDTH 822 0
DWIDTH 6 0
BBX 5 7 0 -1
BITMAP
88
88
C8
A8
98
88
88
ENDCHAR
STARTCHAR $262e
ENCODING 9774
SWIDTH 822 0
DWIDTH 6 0
BBX 5 7 0 -1
BITMAP
F8
00
00
70
00
00
F8
ENDCHAR
STARTCHAR $262f
ENCODING 9775
SWIDTH 822 0
DWIDTH 6 0
BBX 5 7 0 -1
BITMAP
70
88
88
88
88
88
70
ENDCHAR
STARTCHAR $2630
ENCODING 9776
SWIDTH 822 0
DWIDTH 6 0
BBX 5 7 0 -1
BITMAP
F8
88
88
88
88
88
88
ENDCHAR
STARTCHAR $2631
ENCODING 9777
SWIDTH 822 0
DWIDTH 6 0
BBX 5 7 0 -1
BITMAP
F0
88
88
F0
80
80
80
ENDCHAR
STARTCHAR $2632
ENCODING 9778
SWIDTH 822 0
DWIDTH 6 0
BBX 5 7 0 -1
BITMAP
F8
40
20
10
20
40
F8
ENDCHAR
STARTCHAR $2633
ENCODING 9779
SWIDTH 822 0
DWIDTH 6 0
BBX 5 7 0 -1
BITMAP
F8
20
20
20
20
20
20
ENDCHAR
STARTCHAR $2634
ENCODING 9780
SWIDTH 822 0
DWIDTH 6 0
BBX 5 7 0 -1
BITMAP
88
50
50
20
20
20
20
ENDCHAR
STARTCHAR $2635
ENCODING 9781
SWIDTH 822 0
DWIDTH 6 0
BBX 5 7 0 -1
BITMAP
20
70
A8
A8
A8
70
20
ENDCHAR
STARTCHAR $2636
ENCODING 9782
SWIDTH 822 0
DWIDTH 6 0
BBX 5 7 0 -1
BITMAP
88
50
50
20
50
50
88
ENDCHAR
STARTCHAR $2637
ENCODING 9783
SWIDTH 822 0
DWIDTH 6 0
BBX 5 7 0 -1
BITMAP
A8
A8
A8
70
20
20
20
ENDCHAR
STARTCHAR $2638
ENCODING 9784
SWIDTH 822 0
DWIDTH 6 0
BBX 5 7 0 -1
BITMAP
70
88
88
88
88
50
D8
ENDCHAR
STARTCHAR $2641
ENCODING 9793
SWIDTH 822 0
DWIDTH 6 0
BBX 5 5 0 -1
BITMAP
28
50
90
A0
58
ENDCHAR
STARTCHAR $2642
ENCODING 9794
SWIDTH 822 0
DWIDTH 6 0
BBX 5 7 0 -1
BITMAP
18
28
50
48
48
B0
80
ENDCHAR
STARTCHAR $2643
ENCODING 9795
SWIDTH 822 0
DWIDTH 6 0
BBX 5 5 0 -1
BITMAP
C8
30
20
60
40
ENDCHAR
STARTCHAR $2644
ENCODING 9796
SWIDTH 822 0
DWIDTH 6 0
BBX 5 7 0 -1
BITMAP
30
48
20
50
90
90
60
ENDCHAR
STARTCHAR $2645
ENCODING 9797
SWIDTH 822 0
DWIDTH 6 0
BBX 5 5 0 -1
BITMAP
30
48
60
88
70
ENDCHAR
STARTCHAR $2646
ENCODING 9798
SWIDTH 822 0
DWIDTH 6 0
BBX 4 7 1 -1
BITMAP
B0
40
80
80
40
20
C0
ENDCHAR
STARTCHAR $2647
ENCODING 9799
SWIDTH 822 0
DWIDTH 6 0
BBX 5 5 0 -1
BITMAP
D0
28
48
50
10
ENDCHAR
STARTCHAR $2648
ENCODING 9800
SWIDTH 822 0
DWIDTH 6 0
BBX 5 7 0 -1
BITMAP
30
48
48
F8
90
90
60
ENDCHAR
STARTCHAR $2649
ENCODING 9801
SWIDTH 822 0
DWIDTH 6 0
BBX 3 5 1 -1
BITMAP
40
40
80
A0
40
ENDCHAR
STARTCHAR $264a
ENCODING 9802
SWIDTH 822 0
DWIDTH 6 0
BBX 5 5 0 -1
BITMAP
48
50
60
A0
98
ENDCHAR
STARTCHAR $264b
ENCODING 9803
SWIDTH 822 0
DWIDTH 6 0
BBX 5 7 0 -1
BITMAP
20
10
10
30
50
50
88
ENDCHAR
STARTCHAR $264c
ENCODING 9804
SWIDTH 822 0
DWIDTH 6 0
BBX 5 5 0 -1
BITMAP
48
48
50
A8
80
ENDCHAR
STARTCHAR $264d
ENCODING 9805
SWIDTH 822 0
DWIDTH 6 0
BBX 5 5 0 -1
BITMAP
88
48
50
60
40
ENDCHAR
STARTCHAR $264e
ENCODING 9806
SWIDTH 822 0
DWIDTH 6 0
BBX 5 7 0 -1
BITMAP
38
40
78
80
60
10
60
ENDCHAR
STARTCHAR $264f
ENCODING 9807
SWIDTH 822 0
DWIDTH 6 0
BBX 5 5 0 -1
BITMAP
30
48
88
90
60
ENDCHAR
STARTCHAR $2650
ENCODING 9808
SWIDTH 822 0
DWIDTH 6 0
BBX 5 5 0 -1
BITMAP
F8
50
50
90
98
ENDCHAR
STARTCHAR $2651
ENCODING 9809
SWIDTH 822 0
DWIDTH 6 0
BBX 5 5 0 -1
BITMAP
30
48
48
B0
80
ENDCHAR
STARTCHAR $2652
ENCODING 9810
SWIDTH 822 0
DWIDTH 6 0
BBX 5 5 0 -1
BITMAP
38
50
90
90
60
ENDCHAR
STARTCHAR $2653
ENCODING 9811
SWIDTH 822 0
DWIDTH 6 0
BBX 5 5 0 -1
BITMAP
78
A0
20
28
10
ENDCHAR
STARTCHAR $2654
ENCODING 9812
SWIDTH 822 0
DWIDTH 6 0
BBX 5 5 0 -1
BITMAP
68
A8
48
48
30
ENDCHAR
STARTCHAR $2655
ENCODING 9813
SWIDTH 822 0
DWIDTH 6 0
BBX 5 7 0 -1
BITMAP
10
10
70
A8
A8
70
40
ENDCHAR
STARTCHAR $2656
ENCODING 9814
SWIDTH 822 0
DWIDTH 6 0
BBX 5 5 0 -1
BITMAP
68
10
20
60
98
ENDCHAR
STARTCHAR $2657
ENCODING 9815
SWIDTH 822 0
DWIDTH 6 0
BBX 5 7 0 -1
BITMAP
10
10
A0
A8
A8
70
40
ENDCHAR
STARTCHAR $2658
ENCODING 9816
SWIDTH 822 0
DWIDTH 6 0
BBX 5 5 0 -1
BITMAP
48
88
A8
A8
50
ENDCHAR
STARTCHAR $2721
ENCODING 10017
SWIDTH 822 0
DWIDTH 6 0
BBX 5 7 0 -1
BITMAP
20
20
50
50
70
88
88
ENDCHAR
STARTCHAR $2722
ENCODING 10018
SWIDTH 822 0
DWIDTH 6 0
BBX 5 7 0 -1
BITMAP
F8
80
80
F0
88
88
F0
ENDCHAR
STARTCHAR $2723
ENCODING 10019
SWIDTH 822 0
DWIDTH 6 0
BBX 5 7 0 -1
BITMAP
F0
88
88
F0
88
88
F0
ENDCHAR
STARTCHAR $2724
ENCODING 10020
SWIDTH 822 0
DWIDTH 6 0
BBX 5 7 0 -1
BITMAP
F8
80
80
80
80
80
80
ENDCHAR
STARTCHAR $2725
ENCODING 10021
SWIDTH 822 0
DWIDTH 6 0
BBX 5 7 0 -1
BITMAP
70
50
50
50
90
F8
88
ENDCHAR
STARTCHAR $2726
ENCODING 10022
SWIDTH 822 0
DWIDTH 6 0
BBX 5 7 0 -1
BITMAP
F8
80
80
F0
80
80
F8
ENDCHAR
STARTCHAR $2727
ENCODING 10023
SWIDTH 822 0
DWIDTH 6 0
BBX 5 7 0 -1
BITMAP
50
F8
80
F0
80
80
F8
ENDCHAR
STARTCHAR $2728
ENCODING 10024
SWIDTH 822 0
DWIDTH 6 0
BBX 5 7 0 -1
BITMAP
A8
A8
70
20
70
A8
A8
ENDCHAR
STARTCHAR $2729
ENCODING 10025
SWIDTH 822 0
DWIDTH 6 0
BBX 5 7 0 -1
BITMAP
70
88
08
30
08
88
70
ENDCHAR
STARTCHAR $272a
ENCODING 10026
SWIDTH 822 0
DWIDTH 6 0
BBX 5 7 0 -1
BITMAP
88
88
98
A8
C8
88
88
ENDCHAR
STARTCHAR $272b
ENCODING 10027
SWIDTH 822 0
DWIDTH 6 0
BBX 5 7 0 -1
BITMAP
50
20
88
98
A8
C8
88
ENDCHAR
STARTCHAR $272c
ENCODING 10028
SWIDTH 822 0
DWIDTH 6 0
BBX 5 7 0 -1
BITMAP
98
A0
A0
C0
A0
90
88
ENDCHAR
STARTCHAR $272d
ENCODING 10029
SWIDTH 822 0
DWIDTH 6 0
BBX 5 7 0 -1
BITMAP
78
48
48
48
48
48
88
ENDCHAR
STARTCHAR $272e
ENCODING 10030
SWIDTH 822 0
DWIDTH 6 0
BBX 5 7 0 -1
BITMAP
50
50
50
A8
A8
A8
88
ENDCHAR
STARTCHAR $272f
ENCODING 10031
SWIDTH 822 0
DWIDTH 6 0
BBX 5 7 0 -1
BITMAP
88
88
88
F8
88
88
88
ENDCHAR
STARTCHAR $2730
ENCODING 10032
SWIDTH 822 0
DWIDTH 6 0
BBX 5 7 0 -1
BITMAP
70
88
88
88
88
88
70
ENDCHAR
STARTCHAR $2731
ENCODING 10033
SWIDTH 822 0
DWIDTH 6 0
BBX 5 7 0 -1
BITMAP
F8
88
88
88
88
88
88
ENDCHAR
STARTCHAR $2732
ENCODING 10034
SWIDTH 822 0
DWIDTH 6 0
BBX 5 7 0 -1
BITMAP
F0
88
88
F0
80
80
80
ENDCHAR
STARTCHAR $2733
ENCODING 10035
SWIDTH 822 0
DWIDTH 6 0
BBX 5 7 0 -1
BITMAP
30
48
80
80
80
48
30
ENDCHAR
STARTCHAR $2734
ENCODING 10036
SWIDTH 822 0
DWIDTH 6 0
BBX 5 7 0 -1
BITMAP
F8
20
20
20
20
20
20
ENDCHAR
STARTCHAR $2735
ENCODING 10037
SWIDTH 822 0
DWIDTH 6 0
BBX 5 7 0 -1
BITMAP
88
50
50
50
20
20
C0
ENDCHAR
STARTCHAR $2736
ENCODING 10038
SWIDTH 822 0
DWIDTH 6 0
BBX 5 7 0 -1
BITMAP
20
70
A8
A8
A8
70
20
ENDCHAR
STARTCHAR $2737
ENCODING 10039
SWIDTH 822 0
DWIDTH 6 0
BBX 5 7 0 -1
BITMAP
88
50
50
20
50
50
88
ENDCHAR
STARTCHAR $2738
ENCODING 10040
SWIDTH 822 0
DWIDTH 6 0
BBX 5 7 0 -1
BITMAP
90
90
90
90
90
F8
08
ENDCHAR
STARTCHAR $2739
ENCODING 10041
SWIDTH 822 0
DWIDTH 6 0
BBX 5 7 0 -1
BITMAP
88
88
88
88
78
08
08
ENDCHAR
STARTCHAR $273a
ENCODING 10042
SWIDTH 822 0
DWIDTH 6 0
BBX 5 7 0 -1
BITMAP
A8
A8
A8
A8
A8
A8
F8
ENDCHAR
STARTCHAR $273b
ENCODING 10043
SWIDTH 822 0
DWIDTH 6 0
BBX 5 7 0 -1
BITMAP
A8
A8
A8
A8
A8
F8
08
ENDCHAR
STARTCHAR $273c
ENCODING 10044
SWIDTH 822 0
DWIDTH 6 0
BBX 5 7 0 -1
BITMAP
C0
40
40
70
48
48
70
ENDCHAR
STARTCHAR $273d
ENCODING 10045
SWIDTH 822 0
DWIDTH 6 0
BBX 5 7 0 -1
BITMAP
88
88
88
C8
A8
A8
C8
ENDCHAR
STARTCHAR $273e
ENCODING 10046
SWIDTH 822 0
DWIDTH 6 0
BBX 5 7 0 -1
BITMAP
80
80
80
F0
88
88
F0
ENDCHAR
STARTCHAR $273f
ENCODING 10047
SWIDTH 822 0
DWIDTH 6 0
BBX 5 7 0 -1
BITMAP
60
90
08
78
08
90
60
ENDCHAR
STARTCHAR $2740
ENCODING 10048
SWIDTH 822 0
DWIDTH 6 0
BBX 5 7 0 -1
BITMAP
90
A8
A8
E8
A8
A8
90
ENDCHAR
STARTCHAR $2741
ENCODING 10049
SWIDTH 822 0
DWIDTH 6 0
BBX 5 7 0 -1
BITMAP
78
88
88
78
48
48
88
ENDCHAR
STARTCHAR $2751
ENCODING 10065
SWIDTH 822 0
DWIDTH 6 0
BBX 4 5 1 -1
BITMAP
60
10
70
90
70
ENDCHAR
STARTCHAR $2752
ENCODING 10066
SWIDTH 822 0
DWIDTH 6 0
BBX 4 7 1 -1
BITMAP
30
40
E0
90
90
90
60
ENDCHAR
STARTCHAR $2753
ENCODING 10067
SWIDTH 822 0
DWIDTH 6 0
BBX 4 5 1 -1
BITMAP
E0
90
E0
90
E0
ENDCHAR
STARTCHAR $2754
ENCODING 10068
SWIDTH 822 0
DWIDTH 6 0
BBX 4 5 1 -1
BITMAP
F0
80
80
80
80
ENDCHAR
STARTCHAR $2755
ENCODING 10069
SWIDTH 822 0
DWIDTH 6 0
BBX 5 5 0 -1
BITMAP
70
50
50
F8
88
ENDCHAR
STARTCHAR $2756
ENCODING 10070
SWIDTH 822 0
DWIDTH 6 0
BBX 4 5 1 -1
BITMAP
60
90
F0
80
60
ENDCHAR
STARTCHAR $2757
ENCODING 10071
SWIDTH 822 0
DWIDTH 6 0
BBX 4 7 1 -1
BITMAP
A0
00
60
90
F0
80
60
ENDCHAR
STARTCHAR $2758
ENCODING 10072
SWIDTH 822 0
DWIDTH 6 0
BBX 5 5 0 -1
BITMAP
A8
70
20
70
A8
ENDCHAR
STARTCHAR $2759
ENCODING 10073
SWIDTH 822 0
DWIDTH 6 0
BBX 4 5 1 -1
BITMAP
60
90
20
90
60
ENDCHAR
STARTCHAR $275a
ENCODING 10074
SWIDTH 822 0
DWIDTH 6 0
BBX 4 5 1 -1
BITMAP
90
90
B0
D0
90
ENDCHAR
STARTCHAR $275b
ENCODING 10075
SWIDTH 822 0
DWIDTH 6 0
BBX 4 7 1 -1
BITMAP
A0
40
90
90
B0
D0
90
ENDCHAR
STARTCHAR $275c
ENCODING 10076
SWIDTH 822 0
DWIDTH 6 0
BBX 4 5 1 -1
BITMAP
B0
A0
C0
A0
90
ENDCHAR
STARTCHAR $275d
ENCODING 10077
SWIDTH 822 0
DWIDTH 6 0
BBX 5 5 0 -1
BITMAP
78
48
48
48
88
ENDCHAR
STARTCHAR $275e
ENCODING 10078
SWIDTH 822 0
DWIDTH 6 0
BBX 5 5 0 -1
BITMAP
88
D8
A8
A8
88
ENDCHAR
STARTCHAR $275f
ENCODING 10079
SWIDTH 822 0
DWIDTH 6 0
BBX 4 5 1 -1
BITMAP
90
90
F0
90
90
ENDCHAR
STARTCHAR $2760
ENCODING 10080
SWIDTH 822 0
DWIDTH 6 0
BBX 4 5 1 -1
BITMAP
60
90
90
90
60
ENDCHAR
STARTCHAR $2761
ENCODING 10081
SWIDTH 822 0
DWIDTH 6 0
BBX 4 5 1 -1
BITMAP
F0
90
90
90
90
ENDCHAR
STARTCHAR $2762
ENCODING 10082
SWIDTH 822 0
DWIDTH 6 0
BBX 4 5 1 -1
BITMAP
E0
90
E0
80
80
ENDCHAR
STARTCHAR $2763
ENCODING 10083
SWIDTH 822 0
DWIDTH 6 0
BBX 4 5 1 -1
BITMAP
60
90
80
90
60
ENDCHAR
STARTCHAR $2764
ENCODING 10084
SWIDTH 822 0
DWIDTH 6 0
BBX 5 5 0 -1
BITMAP
F8
20
20
20
20
ENDCHAR
STARTCHAR $2765
ENCODING 10085
SWIDTH 822 0
DWIDTH 6 0
BBX 5 5 0 -1
BITMAP
88
50
50
20
C0
ENDCHAR
STARTCHAR $2766
ENCODING 10086
SWIDTH 822 0
DWIDTH 6 0
BBX 5 7 0 -1
BITMAP
20
20
70
A8
A8
70
20
ENDCHAR
STARTCHAR $2767
ENCODING 10087
SWIDTH 822 0
DWIDTH 6 0
BBX 4 5 1 -1
BITMAP
90
90
60
90
90
ENDCHAR
STARTCHAR $2768
ENCODING 10088
SWIDTH 822 0
DWIDTH 6 0
BBX 5 5 0 -1
BITMAP
90
90
90
F8
08
ENDCHAR
STARTCHAR $2769
ENCODING 10089
SWIDTH 822 0
DWIDTH 6 0
BBX 4 5 1 -1
BITMAP
90
90
70
10
10
ENDCHAR
STARTCHAR $276a
ENCODING 10090
SWIDTH 822 0
DWIDTH 6 0
BBX 5 5 0 -1
BITMAP
A8
A8
A8
A8
F8
ENDCHAR
STARTCHAR $276b
ENCODING 10091
SWIDTH 822 0
DWIDTH 6 0
BBX 5 5 0 -1
BITMAP
A8
A8
A8
F8
08
ENDCHAR
STARTCHAR $276c
ENCODING 10092
SWIDTH 822 0
DWIDTH 6 0
BBX 5 5 0 -1
BITMAP
C0
40
70
48
70
ENDCHAR
STARTCHAR $276d
ENCODING 10093
SWIDTH 822 0
DWIDTH 6 0
BBX 4 5 1 -1
BITMAP
90
90
D0
B0
D0
ENDCHAR
STARTCHAR $276e
ENCODING 10094
SWIDTH 822 0
DWIDTH 6 0
BBX 4 5 1 -1
BITMAP
80
80
E0
90
E0
ENDCHAR
STARTCHAR $276f
ENCODING 10095
SWIDTH 822 0
DWIDTH 6 0
BBX 4 5 1 -1
BITMAP
60
90
30
90
60
ENDCHAR
STARTCHAR $2770
ENCODING 10096
SWIDTH 822 0
DWIDTH 6 0
BBX 5 5 0 -1
BITMAP
90
A8
E8
A8
90
ENDCHAR
STARTCHAR $2771
ENCODING 10097
SWIDTH 822 0
DWIDTH 6 0
BBX 4 5 1 -1
BITMAP
70
90
70
50
90
ENDCHAR
STARTCHAR uni3105
ENCODING 10309
SWIDTH 1000 0
DWIDTH 8 0
BBX 5 7 0 -1
BITMAP
40
80
F8
08
08
08
18
ENDCHAR
STARTCHAR uni3106
ENCODING 10310
SWIDTH 1000 0
DWIDTH 8 0
BBX 5 7 0 -1
BITMAP
40
80
F8
08
88
70
88
ENDCHAR
STARTCHAR uni3107
ENCODING 10311
SWIDTH 1000 0
DWIDTH 8 0
BBX 5 7 0 -1
BITMAP
F8
88
88
88
88
88
88
ENDCHAR
STARTCHAR uni3108
ENCODING 10312
SWIDTH 1000 0
DWIDTH 8 0
BBX 5 7 0 -1
BITMAP
F8
80
80
80
80
80
F8
ENDCHAR
STARTCHAR uni3109
ENCODING 10313
SWIDTH 1000 0
DWIDTH 8 0
BBX 5 7 0 -1
BITMAP
40
80
F8
48
48
48
98
ENDCHAR
STARTCHAR uni310A
ENCODING 10314
SWIDTH 1000 0
DWIDTH 8 0
BBX 5 7 0 -1
BITMAP
20
20
F8
20
48
98
E8
ENDCHAR
STARTCHAR uni310B
ENCODING 10315
SWIDTH 1000 0
DWIDTH 8 0
BBX 5 7 0 -1
BITMAP
F8
08
10
38
08
08
18
ENDCHAR
STARTCHAR uni310C
ENCODING 10316
SWIDTH 1000 0
DWIDTH 8 0
BBX 5 7 0 -1
BITMAP
90
90
F8
28
48
48
98
ENDCHAR
STARTCHAR uni310D
ENCODING 10317
SWIDTH 1000 0
DWIDTH 8 0
BBX 5 7 0 -1
BITMAP
48
48
48
90
48
48
48
ENDCHAR
STARTCHAR uni310E
ENCODING 10318
SWIDTH 1000 0
DWIDTH 8 0
BBX 5 7 0 -1
BITMAP
F8
20
40
F8
08
08
18
ENDCHAR
STARTCHAR uni310F
ENCODING 10319
SWIDTH 1000 0
DWIDTH 8 0
BBX 5 7 0 -1
BITMAP
F8
80
80
80
80
80
80
ENDCHAR
STARTCHAR uni3110
ENCODING 10320
SWIDTH 1000 0
DWIDTH 8 0
BBX 5 7 0 -1
BITMAP
88
88
88
F8
08
08
08
ENDCHAR
STARTCHAR uni3111
ENCODING 10321
SWIDTH 1000 0
DWIDTH 8 0
BBX 5 7 0 -1
BITMAP
08
08
30
C0
30
08
08
ENDCHAR
STARTCHAR uni3112
ENCODING 10322
SWIDTH 1000 0
DWIDTH 8 0
BBX 5 7 0 -1
BITMAP
F8
20
20
20
20
20
20
ENDCHAR
STARTCHAR uni3113
ENCODING 10323
SWIDTH 1000 0
DWIDTH 8 0
BBX 5 7 0 -1
BITMAP
A8
A8
A8
F8
20
20
F8
ENDCHAR
STARTCHAR uni3114
ENCODING 10324
SWIDTH 1000 0
DWIDTH 8 0
BBX 5 7 0 -1
BITMAP
38
C0
18
E0
20
20
20
ENDCHAR
STARTCHAR uni3115
ENCODING 10325
SWIDTH 1000 0
DWIDTH 8 0
BBX 5 7 0 -1
BITMAP
F8
08
F8
80
80
80
80
ENDCHAR
STARTCHAR uni3116
ENCODING 10326
SWIDTH 1000 0
DWIDTH 8 0
BBX 5 7 0 -1
BITMAP
F8
88
C8
A8
98
88
F8
ENDCHAR
STARTCHAR uni3117
ENCODING 10327
SWIDTH 1000 0
DWIDTH 8 0
BBX 5 7 0 -1
BITMAP
F8
48
48
48
58
40
40
ENDCHAR
STARTCHAR uni3118
ENCODING 10328
SWIDTH 1000 0
DWIDTH 8 0
BBX 5 7 0 -1
BITMAP
20
F8
20
40
F8
08
10
ENDCHAR
STARTCHAR uni3119
ENCODING 10329
SWIDTH 1000 0
DWIDTH 8 0
BBX 5 7 0 -1
BITMAP
40
40
40
80
88
98
E8
ENDCHAR
STARTCHAR uni311A
ENCODING 10330
SWIDTH 1000 0
DWIDTH 8 0
BBX 5 7 0 -1
BITMAP
88
50
20
20
20
20
20
ENDCHAR
STARTCHAR uni311B
ENCODING 10331
SWIDTH 1000 0
DWIDTH 8 0
BBX 5 7 0 -1
BITMAP
F8
20
20
60
80
80
78
ENDCHAR
STARTCHAR uni311C
ENCODING 10332
SWIDTH 1000 0
DWIDTH 8 0
BBX 5 7 0 -1
BITMAP
20
F8
20
60
80
80
78
ENDCHAR
STARTCHAR uni311D
ENCODING 10333
SWIDTH 1000 0
DWIDTH 8 0
BBX 5 7 0 -1
BITMAP
50
F8
50
50
50
40
78
ENDCHAR
STARTCHAR uni311E
ENCODING 10334
SWIDTH 1000 0
DWIDTH 8 0
BBX 5 7 0 -1
BITMAP
F8
20
A0
F8
48
48
88
ENDCHAR
STARTCHAR uni311F
ENCODING 10335
SWIDTH 1000 0
DWIDTH 8 0
BBX 5 7 0 -1
BITMAP
F8
08
08
08
08
08
08
ENDCHAR
STARTCHAR uni3120
ENCODING 10336
SWIDTH 1000 0
DWIDTH 8 0
BBX 5 7 0 -1
BITMAP
20
48
F8
20
40
98
E8
ENDCHAR
STARTCHAR uni3121
ENCODING 10337
SWIDTH 1000 0
DWIDTH 8 0
BBX 5 7 0 -1
BITMAP
F8
08
88
50
20
50
88
ENDCHAR
STARTCHAR uni3122
ENCODING 10338
SWIDTH 1000 0
DWIDTH 8 0
BBX 5 7 0 -1
BITMAP
F0
50
78
08
08
08
08
ENDCHAR
STARTCHAR uni3123
ENCODING 10339
SWIDTH 1000 0
DWIDTH 8 0
BBX 5 7 0 -1
BITMAP
80
80
80
F8
08
08
08
ENDCHAR
STARTCHAR uni3124
ENCODING 10340
SWIDTH 1000 0
DWIDTH 8 0
BBX 5 7 0 -1
BITMAP
20
20
F8
60
60
A8
B8
ENDCHAR
STARTCHAR uni3125
ENCODING 10341
SWIDTH 1000 0
DWIDTH 8 0
BBX 5 7 0 -1
BITMAP
20
20
40
40
40
80
F8
ENDCHAR
STARTCHAR uni3126
ENCODING 10342
SWIDTH 1000 0
DWIDTH 8 0
BBX 5 7 0 -1
BITMAP
50
50
50
50
50
50
98
ENDCHAR
STARTCHAR uni3127
ENCODING 10343
SWIDTH 1000 0
DWIDTH 8 0
BBX 5 1 0 2
BITMAP
F8
ENDCHAR
STARTCHAR uni3128
ENCODING 10344
SWIDTH 1000 0
DWIDTH 8 0
BBX 5 7 0 -1
BITMAP
88
50
50
20
50
50
88
ENDCHAR
STARTCHAR uni3129
ENCODING 10345
SWIDTH 1000 0
DWIDTH 8 0
BBX 5 7 0 -1
BITMAP
88
88
88
88
88
88
F8
ENDCHAR
STARTCHAR NameMe.10346
ENCODING 10346
SWIDTH 1000 0
DWIDTH 8 0
BBX 5 2 0 1
BITMAP
A8
A8
ENDCHAR
STARTCHAR $3024
ENCODING 12322
SWIDTH 822 0
DWIDTH 6 0
BBX 5 7 0 -1
BITMAP
F8
C8
B8
E8
F8
88
98
ENDCHAR
STARTCHAR $543c
ENCODING 12323
SWIDTH 822 0
DWIDTH 6 0
BBX 5 7 0 -1
BITMAP
50
60
F8
50
78
D0
28
ENDCHAR
STARTCHAR $3027
ENCODING 12324
SWIDTH 822 0
DWIDTH 6 0
BBX 5 7 0 -1
BITMAP
50
E0
78
50
F8
50
E8
ENDCHAR
STARTCHAR $3025
ENCODING 12327
SWIDTH 822 0
DWIDTH 6 0
BBX 5 7 0 -1
BITMAP
20
F8
50
70
68
D0
68
ENDCHAR
STARTCHAR $3462
ENCODING 12329
SWIDTH 822 0
DWIDTH 6 0
BBX 5 7 0 -1
BITMAP
10
78
D0
68
C0
68
B8
ENDCHAR
STARTCHAR $6264
ENCODING 12331
SWIDTH 822 0
DWIDTH 6 0
BBX 5 7 0 -1
BITMAP
B8
D0
78
D0
68
50
A8
ENDCHAR
STARTCHAR $6768
ENCODING 12332
SWIDTH 822 0
DWIDTH 6 0
BBX 5 7 0 -1
BITMAP
50
F8
50
00
50
20
D8
ENDCHAR
STARTCHAR $3337
ENCODING 12333
SWIDTH 822 0
DWIDTH 6 0
BBX 5 7 0 -1
BITMAP
D8
58
78
88
78
68
18
ENDCHAR
STARTCHAR $7027
ENCODING 12335
SWIDTH 822 0
DWIDTH 6 0
BBX 5 7 0 -1
BITMAP
E8
C0
90
E8
C0
B0
B8
ENDCHAR
STARTCHAR $3048
ENCODING 12336
SWIDTH 822 0
DWIDTH 6 0
BBX 5 7 0 -1
BITMAP
90
F8
E8
58
E8
D0
68
ENDCHAR
STARTCHAR $3042
ENCODING 12338
SWIDTH 822 0
DWIDTH 6 0
BBX 5 7 0 -1
BITMAP
20
F8
A8
F8
50
30
C8
ENDCHAR
STARTCHAR $3236
ENCODING 12339
SWIDTH 822 0
DWIDTH 6 0
BBX 5 7 0 -1
BITMAP
50
78
D0
E8
70
70
58
ENDCHAR
STARTCHAR $3044
ENCODING 12340
SWIDTH 822 0
DWIDTH 6 0
BBX 5 7 0 -1
BITMAP
50
F8
68
58
E8
50
E8
ENDCHAR
STARTCHAR $3045
ENCODING 12341
SWIDTH 822 0
DWIDTH 6 0
BBX 5 7 0 -1
BITMAP
10
F8
E8
F8
C0
D8
18
ENDCHAR
STARTCHAR $345f
ENCODING 12342
SWIDTH 822 0
DWIDTH 6 0
BBX 5 7 0 -1
BITMAP
A8
F8
80
B8
90
F8
90
ENDCHAR
STARTCHAR $3046
ENCODING 12344
SWIDTH 822 0
DWIDTH 6 0
BBX 5 7 0 -1
BITMAP
20
F8
A8
50
F8
70
A8
ENDCHAR
STARTCHAR $3937
ENCODING 12346
SWIDTH 822 0
DWIDTH 6 0
BBX 5 7 0 -1
BITMAP
F8
88
F8
40
98
D8
10
ENDCHAR
STARTCHAR $317a
ENCODING 12348
SWIDTH 822 0
DWIDTH 6 0
BBX 5 7 0 -1
BITMAP
D8
D8
D8
F8
88
88
F8
ENDCHAR
STARTCHAR $5a44
ENCODING 12349
SWIDTH 822 0
DWIDTH 6 0
BBX 5 7 0 -1
BITMAP
50
D8
68
E8
68
70
A8
ENDCHAR
STARTCHAR $5f72
ENCODING 12350
SWIDTH 822 0
DWIDTH 6 0
BBX 5 7 0 -1
BITMAP
50
78
E8
70
A8
00
A8
ENDCHAR
STARTCHAR $507e
ENCODING 12353
SWIDTH 822 0
DWIDTH 6 0
BBX 5 7 0 -1
BITMAP
50
78
D8
F8
58
70
68
ENDCHAR
STARTCHAR $317c
ENCODING 12354
SWIDTH 822 0
DWIDTH 6 0
BBX 5 7 0 -1
BITMAP
20
78
58
68
F8
20
D8
ENDCHAR
STARTCHAR $5865
ENCODING 12355
SWIDTH 822 0
DWIDTH 6 0
BBX 5 7 0 -1
BITMAP
50
F8
F8
78
78
50
68
ENDCHAR
STARTCHAR $5f34
ENCODING 12356
SWIDTH 822 0
DWIDTH 6 0
BBX 5 7 0 -1
BITMAP
90
38
B8
38
F8
90
A8
ENDCHAR
STARTCHAR $474e
ENCODING 12357
SWIDTH 822 0
DWIDTH 6 0
BBX 5 7 0 -1
BITMAP
50
F8
F8
A8
F8
80
78
ENDCHAR
STARTCHAR $3b2b
ENCODING 12358
SWIDTH 822 0
DWIDTH 6 0
BBX 5 7 0 -1
BITMAP
78
E8
78
58
D8
68
E8
ENDCHAR
STARTCHAR $525c
ENCODING 12360
SWIDTH 822 0
DWIDTH 6 0
BBX 5 7 0 -1
BITMAP
50
D0
D0
D0
D0
50
88
ENDCHAR
STARTCHAR $6376
ENCODING 12362
SWIDTH 822 0
DWIDTH 6 0
BBX 5 7 0 -1
BITMAP
90
D8
F8
A8
F8
80
78
ENDCHAR
STARTCHAR $482c
ENCODING 12363
SWIDTH 822 0
DWIDTH 6 0
BBX 5 7 0 -1
BITMAP
50
50
50
50
50
50
88
ENDCHAR
STARTCHAR $4743
ENCODING 12365
SWIDTH 822 0
DWIDTH 6 0
BBX 5 7 0 -1
BITMAP
F8
A8
A8
F8
80
88
78
ENDCHAR
STARTCHAR $5936
ENCODING 12366
SWIDTH 822 0
DWIDTH 6 0
BBX 5 7 0 -1
BITMAP
60
F8
60
68
E8
50
E8
ENDCHAR
STARTCHAR $6c6d
ENCODING 12367
SWIDTH 822 0
DWIDTH 6 0
BBX 5 7 0 -1
BITMAP
E0
B8
E0
68
E8
D0
E8
ENDCHAR
STARTCHAR $4744
ENCODING 12369
SWIDTH 822 0
DWIDTH 6 0
BBX 5 7 0 -1
BITMAP
78
E8
68
78
E0
68
D8
ENDCHAR
STARTCHAR $6652
ENCODING 12370
SWIDTH 822 0
DWIDTH 6 0
BBX 5 7 0 -1
BITMAP
78
E8
68
F8
60
E8
58
ENDCHAR
STARTCHAR $5b31
ENCODING 12372
SWIDTH 822 0
DWIDTH 6 0
BBX 5 7 0 -1
BITMAP
70
F8
A8
00
B8
F8
58
ENDCHAR
STARTCHAR $4772
ENCODING 12375
SWIDTH 822 0
DWIDTH 6 0
BBX 5 7 0 -1
BITMAP
20
F8
88
F8
88
88
F8
ENDCHAR
STARTCHAR $4770
ENCODING 12376
SWIDTH 822 0
DWIDTH 6 0
BBX 5 7 0 -1
BITMAP
50
F8
68
F8
E8
68
78
ENDCHAR
STARTCHAR $4934
ENCODING 12377
SWIDTH 822 0
DWIDTH 6 0
BBX 5 7 0 -1
BITMAP
F8
20
70
50
70
50
70
ENDCHAR
STARTCHAR $5051
ENCODING 12379
SWIDTH 822 0
DWIDTH 6 0
BBX 5 7 0 -1
BITMAP
78
50
F8
E8
78
68
78
ENDCHAR
STARTCHAR $5941
ENCODING 12381
SWIDTH 822 0
DWIDTH 6 0
BBX 5 7 0 -1
BITMAP
38
D0
F8
50
F8
50
90
ENDCHAR
STARTCHAR $4923
ENCODING 12382
SWIDTH 822 0
DWIDTH 6 0
BBX 5 7 0 -1
BITMAP
D0
78
E8
78
D8
F8
48
ENDCHAR
STARTCHAR $4843
ENCODING 12383
SWIDTH 822 0
DWIDTH 6 0
BBX 5 7 0 -1
BITMAP
D8
70
50
D8
70
70
D8
ENDCHAR
STARTCHAR $4849
ENCODING 12384
SWIDTH 822 0
DWIDTH 6 0
BBX 5 7 0 -1
BITMAP
D8
70
70
F8
70
50
98
ENDCHAR
STARTCHAR $4842
ENCODING 12385
SWIDTH 822 0
DWIDTH 6 0
BBX 5 7 0 -1
BITMAP
58
E8
60
78
E8
70
E8
ENDCHAR
STARTCHAR $484c
ENCODING 12387
SWIDTH 822 0
DWIDTH 6 0
BBX 5 7 0 -1
BITMAP
78
E8
C0
F8
E8
D0
A8
ENDCHAR
STARTCHAR $4844
ENCODING 12389
SWIDTH 822 0
DWIDTH 6 0
BBX 5 7 0 -1
BITMAP
78
E0
78
E8
E8
50
68
ENDCHAR
STARTCHAR $4847
ENCODING 12390
SWIDTH 822 0
DWIDTH 6 0
BBX 5 7 0 -1
BITMAP
B8
A0
F8
A8
E8
B0
A8
ENDCHAR
STARTCHAR $4a31
ENCODING 12391
SWIDTH 822 0
DWIDTH 6 0
BBX 5 7 0 -1
BITMAP
68
E8
40
78
D8
58
E8
ENDCHAR
STARTCHAR $5942
ENCODING 12392
SWIDTH 822 0
DWIDTH 6 0
BBX 5 7 0 -1
BITMAP
68
C0
50
78
D0
78
D0
ENDCHAR
STARTCHAR $483c
ENCODING 12393
SWIDTH 822 0
DWIDTH 6 0
BBX 5 7 0 -1
BITMAP
68
68
D0
F8
50
78
50
ENDCHAR
STARTCHAR $6122
ENCODING 12394
SWIDTH 822 0
DWIDTH 6 0
BBX 5 7 0 -1
BITMAP
58
F8
B8
78
F8
78
A8
ENDCHAR
STARTCHAR $483e
ENCODING 12395
SWIDTH 822 0
DWIDTH 6 0
BBX 5 7 0 -1
BITMAP
20
A8
20
F8
20
F8
20
ENDCHAR
STARTCHAR $4b2e
ENCODING 12398
SWIDTH 822 0
DWIDTH 6 0
BBX 5 7 0 -1
BITMAP
58
F8
50
F8
58
F0
50
ENDCHAR
STARTCHAR $5c56
ENCODING 12401
SWIDTH 822 0
DWIDTH 6 0
BBX 5 7 0 -1
BITMAP
50
F8
68
F8
D0
58
68
ENDCHAR
STARTCHAR $672f
ENCODING 12402
SWIDTH 822 0
DWIDTH 6 0
BBX 5 7 0 -1
BITMAP
D0
F8
E8
F8
D0
D8
A8
ENDCHAR
STARTCHAR $4b40
ENCODING 12404
SWIDTH 822 0
DWIDTH 6 0
BBX 5 7 0 -1
BITMAP
50
F8
78
E8
D0
78
50
ENDCHAR
STARTCHAR $627c
ENCODING 12405
SWIDTH 822 0
DWIDTH 6 0
BBX 5 7 0 -1
BITMAP
D0
78
68
B8
50
58
28
ENDCHAR
STARTCHAR $6953
ENCODING 12406
SWIDTH 822 0
DWIDTH 6 0
BBX 5 7 0 -1
BITMAP
50
F8
D0
F8
50
78
D0
ENDCHAR
STARTCHAR $4b35
ENCODING 12408
SWIDTH 822 0
DWIDTH 6 0
BBX 5 7 0 -1
BITMAP
50
78
E8
F8
50
58
68
ENDCHAR
STARTCHAR $677a
ENCODING 12410
SWIDTH 822 0
DWIDTH 6 0
BBX 5 7 0 -1
BITMAP
50
F8
78
E8
68
40
78
ENDCHAR
STARTCHAR $4b26
ENCODING 12411
SWIDTH 822 0
DWIDTH 6 0
BBX 5 7 0 -1
BITMAP
E0
F8
C8
F0
D0
E0
B8
ENDCHAR
STARTCHAR $4a71
ENCODING 12412
SWIDTH 822 0
DWIDTH 6 0
BBX 5 7 0 -1
BITMAP
40
78
E8
28
68
40
78
ENDCHAR
STARTCHAR $4b2b
ENCODING 12413
SWIDTH 822 0
DWIDTH 6 0
BBX 5 7 0 -1
BITMAP
20
F8
58
D8
60
D0
68
ENDCHAR
STARTCHAR $476d
ENCODING 12414
SWIDTH 822 0
DWIDTH 6 0
BBX 5 7 0 -1
BITMAP
68
28
F8
28
A8
78
A8
ENDCHAR
STARTCHAR $4776
ENCODING 12577
SWIDTH 822 0
DWIDTH 6 0
BBX 5 7 0 -1
BITMAP
50
F8
98
18
B8
28
98
ENDCHAR
STARTCHAR $703b
ENCODING 12578
SWIDTH 822 0
DWIDTH 6 0
BBX 5 7 0 -1
BITMAP
70
F8
A8
78
88
60
78
ENDCHAR
STARTCHAR $4a5d
ENCODING 12579
SWIDTH 822 0
DWIDTH 6 0
BBX 5 7 0 -1
BITMAP
78
68
D0
F8
50
78
50
ENDCHAR
STARTCHAR $5448
ENCODING 12580
SWIDTH 822 0
DWIDTH 6 0
BBX 5 7 0 -1
BITMAP
78
68
D0
78
50
20
F8
ENDCHAR
STARTCHAR $4a75
ENCODING 12582
SWIDTH 822 0
DWIDTH 6 0
BBX 5 7 0 -1
BITMAP
20
F8
B8
20
70
28
F8
ENDCHAR
STARTCHAR $4a7a
ENCODING 12583
SWIDTH 822 0
DWIDTH 6 0
BBX 5 7 0 -1
BITMAP
60
F8
48
70
D0
60
F8
ENDCHAR
STARTCHAR $4b3d
ENCODING 12585
SWIDTH 822 0
DWIDTH 6 0
BBX 5 7 0 -1
BITMAP
F8
F8
50
F8
A8
70
A8
ENDCHAR
STARTCHAR $493f
ENCODING 12586
SWIDTH 822 0
DWIDTH 6 0
BBX 5 7 0 -1
BITMAP
30
D8
48
B8
78
A8
58
ENDCHAR
STARTCHAR $477a
ENCODING 12588
SWIDTH 822 0
DWIDTH 6 0
BBX 5 7 0 -1
BITMAP
78
78
D0
E8
50
68
90
ENDCHAR
STARTCHAR $4755
ENCODING 12589
SWIDTH 822 0
DWIDTH 6 0
BBX 5 7 0 -1
BITMAP
78
D0
50
E8
D0
50
50
ENDCHAR
STARTCHAR $486a
ENCODING 12590
SWIDTH 822 0
DWIDTH 6 0
BBX 5 7 0 -1
BITMAP
D0
78
68
B8
58
78
08
ENDCHAR
STARTCHAR $4861
ENCODING 12591
SWIDTH 822 0
DWIDTH 6 0
BBX 5 7 0 -1
BITMAP
50
D8
50
D8
50
C8
B8
ENDCHAR
STARTCHAR $485c
ENCODING 12592
SWIDTH 822 0
DWIDTH 6 0
BBX 5 7 0 -1
BITMAP
20
F8
A8
F8
50
F8
10
ENDCHAR
STARTCHAR $4b4c
ENCODING 12593
SWIDTH 822 0
DWIDTH 6 0
BBX 5 7 0 -1
BITMAP
50
50
D8
50
50
D0
58
ENDCHAR
STARTCHAR $4758
ENCODING 12595
SWIDTH 822 0
DWIDTH 6 0
BBX 5 7 0 -1
BITMAP
50
D8
50
F8
50
70
50
ENDCHAR
STARTCHAR $475c
ENCODING 12598
SWIDTH 822 0
DWIDTH 6 0
BBX 5 7 0 -1
BITMAP
50
78
E8
F8
40
58
58
ENDCHAR
STARTCHAR $5f64
ENCODING 12602
SWIDTH 822 0
DWIDTH 6 0
BBX 5 7 0 -1
BITMAP
50
78
E8
F8
40
58
98
ENDCHAR
STARTCHAR $486f
ENCODING 12603
SWIDTH 822 0
DWIDTH 6 0
BBX 5 7 0 -1
BITMAP
50
F8
70
B8
68
50
68
ENDCHAR
STARTCHAR $4b5b
ENCODING 12604
SWIDTH 822 0
DWIDTH 6 0
BBX 5 7 0 -1
BITMAP
20
F8
50
A8
30
F8
50
ENDCHAR
STARTCHAR $4b5c
ENCODING 12606
SWIDTH 822 0
DWIDTH 6 0
BBX 5 7 0 -1
BITMAP
20
F8
20
70
A8
70
20
ENDCHAR
STARTCHAR $637c
ENCODING 12607
SWIDTH 822 0
DWIDTH 6 0
BBX 5 7 0 -1
BITMAP
90
D8
48
70
A8
70
20
ENDCHAR
STARTCHAR $4a78
ENCODING 12608
SWIDTH 822 0
DWIDTH 6 0
BBX 5 7 0 -1
BITMAP
A8
F8
78
68
78
68
D8
ENDCHAR
STARTCHAR $6d7e
ENCODING 12613
SWIDTH 822 0
DWIDTH 6 0
BBX 5 7 0 -1
BITMAP
A8
00
B8
28
B8
A8
F8
ENDCHAR
STARTCHAR $492f
ENCODING 12614
SWIDTH 822 0
DWIDTH 6 0
BBX 5 7 0 -1
BITMAP
B8
18
18
80
B8
B8
F8
ENDCHAR
STARTCHAR $4921
ENCODING 12615
SWIDTH 822 0
DWIDTH 6 0
BBX 5 7 0 -1
BITMAP
20
70
50
F8
A8
F8
50
ENDCHAR
STARTCHAR $4866
ENCODING 12616
SWIDTH 822 0
DWIDTH 6 0
BBX 5 7 0 -1
BITMAP
50
50
78
50
50
70
D8
ENDCHAR
STARTCHAR $6e41
ENCODING 12617
SWIDTH 822 0
DWIDTH 6 0
BBX 5 7 0 -1
BITMAP
F8
B8
50
F8
F8
B0
F0
ENDCHAR
STARTCHAR $4860
ENCODING 12619
SWIDTH 822 0
DWIDTH 6 0
BBX 5 7 0 -1
BITMAP
50
B8
70
F8
68
50
68
ENDCHAR
STARTCHAR $4a4b
ENCODING 12620
SWIDTH 822 0
DWIDTH 6 0
BBX 5 7 0 -1
BITMAP
D0
78
E8
78
F8
70
B0
ENDCHAR
STARTCHAR $686f
ENCODING 12621
SWIDTH 822 0
DWIDTH 6 0
BBX 5 7 0 -1
BITMAP
50
F8
68
58
F8
90
D8
ENDCHAR
STARTCHAR $4a43
ENCODING 12622
SWIDTH 822 0
DWIDTH 6 0
BBX 5 7 0 -1
BITMAP
50
F8
00
B8
68
F0
A8
ENDCHAR
STARTCHAR $485f
ENCODING 12627
SWIDTH 822 0
DWIDTH 6 0
BBX 5 7 0 -1
BITMAP
20
F8
80
90
D8
90
D8
ENDCHAR
STARTCHAR $5a49
ENCODING 12630
SWIDTH 822 0
DWIDTH 6 0
BBX 5 7 0 -1
BITMAP
50
F8
68
E8
E8
F0
A8
ENDCHAR
STARTCHAR $4a40
ENCODING 12631
SWIDTH 822 0
DWIDTH 6 0
BBX 5 7 0 -1
BITMAP
B8
68
F0
A8
50
F8
50
ENDCHAR
STARTCHAR $492c
ENCODING 12632
SWIDTH 822 0
DWIDTH 6 0
BBX 5 7 0 -1
BITMAP
40
20
48
D0
E8
40
B8
ENDCHAR
STARTCHAR $6d64
ENCODING 12633
SWIDTH 822 0
DWIDTH 6 0
BBX 5 7 0 -1
BITMAP
D0
F8
E8
B8
D0
F8
D0
ENDCHAR
STARTCHAR $4a49
ENCODING 12634
SWIDTH 822 0
DWIDTH 6 0
BBX 5 7 0 -1
BITMAP
D0
F8
A8
F8
D0
20
F8
ENDCHAR
STARTCHAR $673e
ENCODING 12635
SWIDTH 822 0
DWIDTH 6 0
BBX 5 7 0 -1
BITMAP
D0
F8
A8
D0
70
70
50
ENDCHAR
STARTCHAR $4872
ENCODING 12636
SWIDTH 822 0
DWIDTH 6 0
BBX 5 7 0 -1
BITMAP
90
78
68
D0
F8
90
F8
ENDCHAR
STARTCHAR $4a45
ENCODING 12637
SWIDTH 822 0
DWIDTH 6 0
BBX 5 7 0 -1
BITMAP
F0
F8
B0
F8
C0
90
B8
ENDCHAR
STARTCHAR $4a5c
ENCODING 12638
SWIDTH 822 0
DWIDTH 6 0
BBX 5 7 0 -1
BITMAP
B8
D0
F8
78
F0
D0
68
ENDCHAR
STARTCHAR $5928
ENCODING 12642
SWIDTH 822 0
DWIDTH 6 0
BBX 5 7 0 -1
BITMAP
F8
50
70
40
78
B8
28
ENDCHAR
STARTCHAR $4a58
ENCODING 12643
SWIDTH 822 0
DWIDTH 6 0
BBX 5 7 0 -1
BITMAP
78
50
F8
F8
70
50
68
ENDCHAR
STARTCHAR $5246
ENCODING 12645
SWIDTH 822 0
DWIDTH 6 0
BBX 5 7 0 -1
BITMAP
20
F8
20
30
28
20
20
ENDCHAR
STARTCHAR $517e
ENCODING 12646
SWIDTH 822 0
DWIDTH 6 0
BBX 5 7 0 -1
BITMAP
48
F8
A8
78
E8
78
88
ENDCHAR
STARTCHAR $4a57
ENCODING 12649
SWIDTH 822 0
DWIDTH 6 0
BBX 5 7 0 -1
BITMAP
B8
30
20
B8
F8
A8
F8
ENDCHAR
STARTCHAR $4937
ENCODING 12651
SWIDTH 822 0
DWIDTH 6 0
BBX 5 7 0 -1
BITMAP
48
70
C8
F0
88
D0
B8
ENDCHAR
STARTCHAR $493d
ENCODING 12653
SWIDTH 822 0
DWIDTH 6 0
BBX 5 7 0 -1
BITMAP
20
70
20
F0
68
D0
68
ENDCHAR
STARTCHAR $494b
ENCODING 12658
SWIDTH 822 0
DWIDTH 6 0
BBX 5 7 0 -1
BITMAP
68
F0
68
F0
E0
68
70
ENDCHAR
STARTCHAR $494c
ENCODING 12659
SWIDTH 822 0
DWIDTH 6 0
BBX 5 7 0 -1
BITMAP
68
D0
38
90
70
70
A8
ENDCHAR
STARTCHAR $4a3c
ENCODING 12664
SWIDTH 822 0
DWIDTH 6 0
BBX 5 7 0 -1
BITMAP
10
60
78
50
F8
00
88
ENDCHAR
STARTCHAR $5156
ENCODING 12665
SWIDTH 822 0
DWIDTH 6 0
BBX 5 7 0 -1
BITMAP
90
18
70
30
D0
98
B0
ENDCHAR
STARTCHAR $4a41
ENCODING 12666
SWIDTH 822 0
DWIDTH 6 0
BBX 5 7 0 -1
BITMAP
78
D0
78
F8
F8
68
68
ENDCHAR
STARTCHAR $4a3a
ENCODING 12667
SWIDTH 822 0
DWIDTH 6 0
BBX 5 7 0 -1
BITMAP
F8
20
F8
A8
D8
88
98
ENDCHAR
STARTCHAR $633d
ENCODING 12668
SWIDTH 822 0
DWIDTH 6 0
BBX 5 7 0 -1
BITMAP
70
F8
70
38
F0
70
A8
ENDCHAR
STARTCHAR $5f5b
ENCODING 12670
SWIDTH 822 0
DWIDTH 6 0
BBX 5 7 0 -1
BITMAP
78
50
F8
F8
78
68
A8
ENDCHAR
STARTCHAR $4942
ENCODING 12833
SWIDTH 822 0
DWIDTH 6 0
BBX 5 7 0 -1
BITMAP
10
78
C0
78
D0
78
A8
ENDCHAR
STARTCHAR $5675
ENCODING 12834
SWIDTH 822 0
DWIDTH 6 0
BBX 5 7 0 -1
BITMAP
50
00
F8
50
F8
50
90
ENDCHAR
STARTCHAR $6060
ENCODING 12835
SWIDTH 822 0
DWIDTH 6 0
BBX 5 7 0 -1
BITMAP
10
F8
70
F8
68
D0
28
ENDCHAR
STARTCHAR $684a
ENCODING 12836
SWIDTH 822 0
DWIDTH 6 0
BBX 5 7 0 -1
BITMAP
50
F8
90
38
A8
30
A8
ENDCHAR
STARTCHAR $4745
ENCODING 12837
SWIDTH 822 0
DWIDTH 6 0
BBX 5 7 0 -1
BITMAP
78
D0
78
50
E8
58
D8
ENDCHAR
STARTCHAR $4748
ENCODING 12840
SWIDTH 822 0
DWIDTH 6 0
BBX 5 7 0 -1
BITMAP
90
78
D0
78
E8
D0
A8
ENDCHAR
STARTCHAR $476e
ENCODING 12841
SWIDTH 822 0
DWIDTH 6 0
BBX 5 7 0 -1
BITMAP
50
78
D8
58
78
68
58
ENDCHAR
STARTCHAR $4b56
ENCODING 12842
SWIDTH 822 0
DWIDTH 6 0
BBX 5 7 0 -1
BITMAP
50
F8
F8
B8
58
E8
68
ENDCHAR
STARTCHAR $5973
ENCODING 12843
SWIDTH 822 0
DWIDTH 6 0
BBX 5 7 0 -1
BITMAP
50
F8
58
58
F8
68
D8
ENDCHAR
STARTCHAR $4773
ENCODING 12845
SWIDTH 822 0
DWIDTH 6 0
BBX 5 7 0 -1
BITMAP
90
D8
48
90
38
A8
B8
ENDCHAR
STARTCHAR $476c
ENCODING 12846
SWIDTH 822 0
DWIDTH 6 0
BBX 5 7 0 -1
BITMAP
50
78
E8
F8
68
68
78
ENDCHAR
STARTCHAR $5667
ENCODING 12847
SWIDTH 822 0
DWIDTH 6 0
BBX 5 7 0 -1
BITMAP
20
70
50
70
F8
A8
A8
ENDCHAR
STARTCHAR $4775
ENCODING 12848
SWIDTH 822 0
DWIDTH 6 0
BBX 5 7 0 -1
BITMAP
50
F8
A8
B8
E8
A8
B8
ENDCHAR
STARTCHAR $672e
ENCODING 12850
SWIDTH 822 0
DWIDTH 6 0
BBX 5 7 0 -1
BITMAP
D0
F8
D8
D8
F8
E8
D8
ENDCHAR
STARTCHAR $5e5f
ENCODING 12851
SWIDTH 822 0
DWIDTH 6 0
BBX 5 7 0 -1
BITMAP
B0
78
F8
58
B8
E8
A8
ENDCHAR
STARTCHAR $4771
ENCODING 12852
SWIDTH 822 0
DWIDTH 6 0
BBX 5 7 0 -1
BITMAP
90
38
A8
38
A8
A8
B8
ENDCHAR
STARTCHAR $4a61
ENCODING 12854
SWIDTH 822 0
DWIDTH 6 0
BBX 5 7 0 -1
BITMAP
50
F8
50
78
F8
78
E8
ENDCHAR
STARTCHAR $4b4e
ENCODING 12855
SWIDTH 822 0
DWIDTH 6 0
BBX 3 7 1 -1
BITMAP
80
80
C0
A0
80
80
80
ENDCHAR
STARTCHAR $532e
ENCODING 12856
SWIDTH 822 0
DWIDTH 6 0
BBX 5 7 0 -1
BITMAP
10
F8
D0
F8
D8
78
58
ENDCHAR
STARTCHAR $4956
ENCODING 12858
SWIDTH 822 0
DWIDTH 6 0
BBX 5 7 0 -1
BITMAP
50
70
F0
78
68
F8
10
ENDCHAR
STARTCHAR $4954
ENCODING 12859
SWIDTH 822 0
DWIDTH 6 0
BBX 5 7 0 -1
BITMAP
F8
20
20
70
A8
20
20
ENDCHAR
STARTCHAR $495b
ENCODING 12860
SWIDTH 822 0
DWIDTH 6 0
BBX 5 7 0 -1
BITMAP
40
F8
40
A0
78
68
20
ENDCHAR
STARTCHAR $4a6d
ENCODING 12862
SWIDTH 822 0
DWIDTH 6 0
BBX 5 7 0 -1
BITMAP
90
D8
48
B0
78
A8
98
ENDCHAR
STARTCHAR $4974
ENCODING 12863
SWIDTH 822 0
DWIDTH 6 0
BBX 5 7 0 -1
BITMAP
58
F8
B0
F8
18
D0
D0
ENDCHAR
STARTCHAR $495d
ENCODING 12864
SWIDTH 822 0
DWIDTH 6 0
BBX 5 7 0 -1
BITMAP
50
F8
E0
50
78
58
50
ENDCHAR
STARTCHAR $3b24
ENCODING 12865
SWIDTH 822 0
DWIDTH 6 0
BBX 5 7 0 -1
BITMAP
50
F8
68
50
E8
78
D0
ENDCHAR
STARTCHAR $604a
ENCODING 12866
SWIDTH 822 0
DWIDTH 6 0
BBX 5 7 0 -1
BITMAP
90
78
D0
78
F8
68
A8
ENDCHAR
STARTCHAR $3a5b
ENCODING 12867
SWIDTH 822 0
DWIDTH 6 0
BBX 5 7 0 -1
BITMAP
58
F0
50
F8
58
B0
C8
ENDCHAR
STARTCHAR $3a60
ENCODING 12868
SWIDTH 822 0
DWIDTH 6 0
BBX 5 7 0 -1
BITMAP
48
F8
48
D8
E8
48
58
ENDCHAR
STARTCHAR $3a4d
ENCODING 12869
SWIDTH 822 0
DWIDTH 6 0
BBX 5 7 0 -1
BITMAP
10
F8
10
18
30
D0
30
ENDCHAR
STARTCHAR $3a53
ENCODING 12873
SWIDTH 822 0
DWIDTH 6 0
BBX 5 7 0 -1
BITMAP
18
E0
A8
10
F8
70
A8
ENDCHAR
STARTCHAR $3a4c
ENCODING 12874
SWIDTH 822 0
DWIDTH 6 0
BBX 5 7 0 -1
BITMAP
E8
10
A8
50
E0
E8
50
ENDCHAR
STARTCHAR $3a5a
ENCODING 12875
SWIDTH 822 0
DWIDTH 6 0
BBX 5 7 0 -1
BITMAP
50
F8
10
60
F8
70
A8
ENDCHAR
STARTCHAR $6871
ENCODING 12876
SWIDTH 822 0
DWIDTH 6 0
BBX 5 7 0 -1
BITMAP
50
F8
D0
88
70
20
A8
ENDCHAR
STARTCHAR $3b41
ENCODING 12877
SWIDTH 822 0
DWIDTH 6 0
BBX 5 7 0 -1
BITMAP
40
78
A8
50
E8
60
58
ENDCHAR
STARTCHAR $3b32
ENCODING 12878
SWIDTH 822 0
DWIDTH 6 0
BBX 5 7 0 -1
BITMAP
20
48
F8
50
A8
10
60
ENDCHAR
STARTCHAR $3b3d
ENCODING 12879
SWIDTH 822 0
DWIDTH 6 0
BBX 5 7 0 -1
BITMAP
F8
20
D8
70
70
30
E8
ENDCHAR
STARTCHAR $3b44
ENCODING 12880
SWIDTH 822 0
DWIDTH 6 0
BBX 5 7 0 -1
BITMAP
F8
50
78
B0
78
50
A8
ENDCHAR
STARTCHAR $3b34
ENCODING 12882
SWIDTH 822 0
DWIDTH 6 0
BBX 5 7 0 -1
BITMAP
50
E0
F8
68
50
48
50
ENDCHAR
STARTCHAR $6936
ENCODING 12888
SWIDTH 822 0
DWIDTH 6 0
BBX 5 7 0 -1
BITMAP
50
F8
B8
F0
78
D0
A8
ENDCHAR
STARTCHAR $4160
ENCODING 12889
SWIDTH 822 0
DWIDTH 6 0
BBX 5 7 0 -1
BITMAP
50
C0
68
40
D0
78
D0
ENDCHAR
STARTCHAR $4165
ENCODING 12891
SWIDTH 822 0
DWIDTH 6 0
BBX 5 7 0 -1
BITMAP
68
F8
68
F8
F8
58
58
ENDCHAR
STARTCHAR $4162
ENCODING 12892
SWIDTH 822 0
DWIDTH 6 0
BBX 5 7 0 -1
BITMAP
50
F8
50
F8
F8
50
70
ENDCHAR
STARTCHAR $4170
ENCODING 12893
SWIDTH 822 0
DWIDTH 6 0
BBX 5 7 0 -1
BITMAP
50
F8
70
50
70
F8
20
ENDCHAR
STARTCHAR $3a76
ENCODING 12895
SWIDTH 822 0
DWIDTH 6 0
BBX 5 7 0 -1
BITMAP
90
D8
48
F8
A8
70
A8
ENDCHAR
STARTCHAR $5146
ENCODING 12897
SWIDTH 822 0
DWIDTH 6 0
BBX 5 7 0 -1
BITMAP
78
68
68
F8
68
68
A8
ENDCHAR
STARTCHAR $5967
ENCODING 12901
SWIDTH 822 0
DWIDTH 6 0
BBX 5 7 0 -1
BITMAP
48
F0
78
50
F8
78
F8
ENDCHAR
STARTCHAR $3a35
ENCODING 12902
SWIDTH 822 0
DWIDTH 6 0
BBX 5 7 0 -1
BITMAP
F8
28
88
50
20
50
88
ENDCHAR
STARTCHAR $4363
ENCODING 12904
SWIDTH 822 0
DWIDTH 6 0
BBX 5 7 0 -1
BITMAP
50
F8
20
50
F8
20
A8
ENDCHAR
STARTCHAR $3b21
ENCODING 12908
SWIDTH 822 0
DWIDTH 6 0
BBX 5 7 0 -1
BITMAP
20
F8
A8
50
88
70
A8
ENDCHAR
STARTCHAR $562b
ENCODING 12909
SWIDTH 822 0
DWIDTH 6 0
BBX 5 7 0 -1
BITMAP
50
88
30
50
00
A8
F8
ENDCHAR
STARTCHAR $3a39
ENCODING 12910
SWIDTH 822 0
DWIDTH 6 0
BBX 5 7 0 -1
BITMAP
50
F8
20
F8
78
50
B8
ENDCHAR
STARTCHAR $593e
ENCODING 12912
SWIDTH 822 0
DWIDTH 6 0
BBX 5 7 0 -1
BITMAP
48
F0
60
78
E8
68
C8
ENDCHAR
STARTCHAR $3c46
ENCODING 12913
SWIDTH 822 0
DWIDTH 6 0
BBX 5 7 0 -1
BITMAP
90
D8
90
D8
F8
70
A8
ENDCHAR
STARTCHAR $6c39
ENCODING 12914
SWIDTH 822 0
DWIDTH 6 0
BBX 5 7 0 -1
BITMAP
28
D8
68
B8
68
A8
58
ENDCHAR
STARTCHAR $4066
ENCODING 12917
SWIDTH 822 0
DWIDTH 6 0
BBX 5 7 0 -1
BITMAP
68
D0
B8
F8
50
78
D0
ENDCHAR
STARTCHAR $3e3b
ENCODING 12925
SWIDTH 822 0
DWIDTH 6 0
BBX 5 7 0 -1
BITMAP
70
50
F8
88
F8
88
F8
ENDCHAR
STARTCHAR $604b
ENCODING 12926
SWIDTH 822 0
DWIDTH 6 0
BBX 5 7 0 -1
BITMAP
98
58
F8
68
F8
68
B8
ENDCHAR
STARTCHAR $3e6f
ENCODING 13091
SWIDTH 822 0
DWIDTH 6 0
BBX 5 7 0 -1
BITMAP
A8
70
D8
70
F8
A8
20
ENDCHAR
STARTCHAR $524c
ENCODING 13095
SWIDTH 822 0
DWIDTH 6 0
BBX 5 7 0 -1
BITMAP
78
40
40
40
40
40
80
ENDCHAR
STARTCHAR $5a48
ENCODING 13096
SWIDTH 822 0
DWIDTH 6 0
BBX 5 7 0 -1
BITMAP
50
F8
68
E8
A8
F0
E8
ENDCHAR
STARTCHAR $3e27
ENCODING 13098
SWIDTH 822 0
DWIDTH 6 0
BBX 5 7 0 -1
BITMAP
18
D8
B8
A8
F8
28
38
ENDCHAR
STARTCHAR $5069
ENCODING 13099
SWIDTH 822 0
DWIDTH 6 0
BBX 5 7 0 -1
BITMAP
58
58
F8
E8
78
68
78
ENDCHAR
STARTCHAR $4436
ENCODING 13100
SWIDTH 822 0
DWIDTH 6 0
BBX 5 7 0 -1
BITMAP
78
D8
68
C0
58
D8
B8
ENDCHAR
STARTCHAR $3e36
ENCODING 13101
SWIDTH 822 0
DWIDTH 6 0
BBX 5 7 0 -1
BITMAP
50
F0
78
50
C8
50
E0
ENDCHAR
STARTCHAR $442b
ENCODING 13103
SWIDTH 822 0
DWIDTH 6 0
BBX 5 7 0 -1
BITMAP
F8
68
F8
E8
78
E8
58
ENDCHAR
STARTCHAR $535e
ENCODING 13104
SWIDTH 822 0
DWIDTH 6 0
BBX 5 7 0 -1
BITMAP
38
D8
F8
F8
D8
38
18
ENDCHAR
STARTCHAR $442c
ENCODING 13105
SWIDTH 822 0
DWIDTH 6 0
BBX 5 7 0 -1
BITMAP
F8
28
F8
68
B8
E8
A8
ENDCHAR
STARTCHAR $5f56
ENCODING 13108
SWIDTH 822 0
DWIDTH 6 0
BBX 5 7 0 -1
BITMAP
50
70
F8
D0
48
50
A0
ENDCHAR
STARTCHAR $4531
ENCODING 13111
SWIDTH 822 0
DWIDTH 6 0
BBX 5 7 0 -1
BITMAP
50
F8
78
58
F8
70
E8
ENDCHAR
STARTCHAR $595a
ENCODING 13112
SWIDTH 822 0
DWIDTH 6 0
BBX 5 7 0 -1
BITMAP
C8
E8
E8
A8
70
F8
20
ENDCHAR
STARTCHAR $3f43
ENCODING 13116
SWIDTH 822 0
DWIDTH 6 0
BBX 5 7 0 -1
BITMAP
F8
A0
F0
90
F0
A0
F8
ENDCHAR
STARTCHAR $4324
ENCODING 13117
SWIDTH 822 0
DWIDTH 6 0
BBX 5 7 0 -1
BITMAP
F8
80
B0
80
F8
D0
68
ENDCHAR
STARTCHAR $5a6f
ENCODING 13119
SWIDTH 822 0
DWIDTH 6 0
BBX 5 7 0 -1
BITMAP
70
50
F8
B0
F8
D0
68
ENDCHAR
STARTCHAR $575a
ENCODING 13120
SWIDTH 822 0
DWIDTH 6 0
BBX 5 7 0 -1
BITMAP
50
F8
E8
50
50
50
68
ENDCHAR
STARTCHAR $6c63
ENCODING 13123
SWIDTH 822 0
DWIDTH 6 0
BBX 5 7 0 -1
BITMAP
50
E8
50
C8
50
C0
B8
ENDCHAR
STARTCHAR $3e4e
ENCODING 13126
SWIDTH 822 0
DWIDTH 6 0
BBX 5 7 0 -1
BITMAP
E0
78
D0
78
F8
D0
50
ENDCHAR
STARTCHAR $3e6b
ENCODING 13127
SWIDTH 822 0
DWIDTH 6 0
BBX 5 7 0 -1
BITMAP
50
78
F0
70
78
F0
28
ENDCHAR
STARTCHAR $5c74
ENCODING 13128
SWIDTH 822 0
DWIDTH 6 0
BBX 5 7 0 -1
BITMAP
68
D0
68
F8
E8
50
78
ENDCHAR
STARTCHAR $402e
ENCODING 13129
SWIDTH 822 0
DWIDTH 6 0
BBX 5 7 0 -1
BITMAP
10
F8
90
F0
B8
D0
A8
ENDCHAR
STARTCHAR $4468
ENCODING 13130
SWIDTH 822 0
DWIDTH 6 0
BBX 5 7 0 -1
BITMAP
70
50
F8
20
70
20
F8
ENDCHAR
STARTCHAR $502b
ENCODING 13131
SWIDTH 822 0
DWIDTH 6 0
BBX 5 7 0 -1
BITMAP
10
60
F8
50
D8
70
A8
ENDCHAR
STARTCHAR $4478
ENCODING 13132
SWIDTH 822 0
DWIDTH 6 0
BBX 5 7 0 -1
BITMAP
D8
58
F8
50
F8
D0
78
ENDCHAR
STARTCHAR $4021
ENCODING 13134
SWIDTH 822 0
DWIDTH 6 0
BBX 5 7 0 -1
BITMAP
A8
10
A8
38
A8
90
B8
ENDCHAR
STARTCHAR $3e35
ENCODING 13136
SWIDTH 822 0
DWIDTH 6 0
BBX 5 7 0 -1
BITMAP
70
10
E8
70
70
A8
60
ENDCHAR
STARTCHAR $6d77
ENCODING 13137
SWIDTH 822 0
DWIDTH 6 0
BBX 5 7 0 -1
BITMAP
B8
38
80
38
90
B8
F8
ENDCHAR
STARTCHAR $4769
ENCODING 13139
SWIDTH 822 0
DWIDTH 6 0
BBX 5 7 0 -1
BITMAP
F8
50
F8
50
F8
D0
50
ENDCHAR
STARTCHAR $3549
ENCODING 13140
SWIDTH 822 0
DWIDTH 6 0
BBX 5 7 0 -1
BITMAP
20
F8
C0
F8
D0
20
18
ENDCHAR
STARTCHAR $4354
ENCODING 13141
SWIDTH 822 0
DWIDTH 6 0
BBX 5 7 0 -1
BITMAP
10
78
E0
78
F8
60
D0
ENDCHAR
STARTCHAR $3b7d
ENCODING 13142
SWIDTH 822 0
DWIDTH 6 0
BBX 5 7 0 -1
BITMAP
50
F8
50
78
C8
68
D8
ENDCHAR
STARTCHAR $3a7c
ENCODING 13143
SWIDTH 822 0
DWIDTH 6 0
BBX 5 7 0 -1
BITMAP
D0
D0
18
D0
58
C0
B8
ENDCHAR
STARTCHAR $4353
ENCODING 13144
SWIDTH 822 0
DWIDTH 6 0
BBX 5 7 0 -1
BITMAP
A0
28
B8
68
A8
A0
B8
ENDCHAR
STARTCHAR $4350
ENCODING 13146
SWIDTH 822 0
DWIDTH 6 0
BBX 5 7 0 -1
BITMAP
E0
68
F8
A8
E8
60
F8
ENDCHAR
STARTCHAR $6657
ENCODING 13148
SWIDTH 822 0
DWIDTH 6 0
BBX 5 7 0 -1
BITMAP
D0
D0
D8
D0
D0
D0
78
ENDCHAR
STARTCHAR $504c
ENCODING 13150
SWIDTH 822 0
DWIDTH 6 0
BBX 5 7 0 -1
BITMAP
58
68
D0
D8
68
50
60
ENDCHAR
STARTCHAR $3c5c
ENCODING 13151
SWIDTH 822 0
DWIDTH 6 0
BBX 5 7 0 -1
BITMAP
78
48
78
50
50
50
88
ENDCHAR
STARTCHAR $4056
ENCODING 13152
SWIDTH 822 0
DWIDTH 6 0
BBX 5 7 0 -1
BITMAP
20
70
20
F8
50
D8
50
ENDCHAR
STARTCHAR $6642
ENCODING 13153
SWIDTH 822 0
DWIDTH 6 0
BBX 5 7 0 -1
BITMAP
58
E8
58
E8
A8
40
B8
ENDCHAR
STARTCHAR $404d
ENCODING 13154
SWIDTH 822 0
DWIDTH 6 0
BBX 5 7 0 -1
BITMAP
08
70
40
78
70
58
90
ENDCHAR
STARTCHAR $3d3c
ENCODING 13156
SWIDTH 822 0
DWIDTH 6 0
BBX 5 7 0 -1
BITMAP
20
F8
50
E8
50
50
98
ENDCHAR
STARTCHAR $5155
ENCODING 13157
SWIDTH 822 0
DWIDTH 6 0
BBX 5 7 0 -1
BITMAP
90
78
58
58
F8
90
90
ENDCHAR
STARTCHAR $436e
ENCODING 13158
SWIDTH 822 0
DWIDTH 6 0
BBX 5 7 0 -1
BITMAP
20
F8
A8
F8
20
28
F8
ENDCHAR
STARTCHAR $3f72
ENCODING 13159
SWIDTH 822 0
DWIDTH 6 0
BBX 5 7 0 -1
BITMAP
A8
F8
88
70
F8
20
A8
ENDCHAR
STARTCHAR $436a
ENCODING 13161
SWIDTH 822 0
DWIDTH 6 0
BBX 5 7 0 -1
BITMAP
50
D0
78
78
F8
78
F8
ENDCHAR
STARTCHAR $3d37
ENCODING 13162
SWIDTH 822 0
DWIDTH 6 0
BBX 5 7 0 -1
BITMAP
E8
68
F8
F8
A8
E8
E8
ENDCHAR
STARTCHAR $6147
ENCODING 13163
SWIDTH 822 0
DWIDTH 6 0
BBX 5 7 0 -1
BITMAP
10
F8
F8
E8
F8
C8
28
ENDCHAR
STARTCHAR $6347
ENCODING 13165
SWIDTH 822 0
DWIDTH 6 0
BBX 5 7 0 -1
BITMAP
F8
58
F8
58
E8
F8
48
ENDCHAR
STARTCHAR $3d25
ENCODING 13166
SWIDTH 822 0
DWIDTH 6 0
BBX 5 7 0 -1
BITMAP
D0
78
D0
68
00
C8
B8
ENDCHAR
STARTCHAR $3558
ENCODING 13168
SWIDTH 822 0
DWIDTH 6 0
BBX 5 7 0 -1
BITMAP
50
70
D0
D0
50
50
68
ENDCHAR
STARTCHAR $312f
ENCODING 13171
SWIDTH 822 0
DWIDTH 6 0
BBX 5 7 0 -1
BITMAP
F0
50
50
F8
50
50
F8
ENDCHAR
STARTCHAR $3d2d
ENCODING 13172
SWIDTH 822 0
DWIDTH 6 0
BBX 5 7 0 -1
BITMAP
20
70
50
70
F8
20
D8
ENDCHAR
STARTCHAR $3d69
ENCODING 13173
SWIDTH 822 0
DWIDTH 6 0
BBX 5 7 0 -1
BITMAP
78
D8
58
98
58
68
68
ENDCHAR
STARTCHAR $3d50
ENCODING 13174
SWIDTH 822 0
DWIDTH 6 0
BBX 5 7 0 -1
BITMAP
20
A8
F8
20
A8
A8
F8
ENDCHAR
STARTCHAR $3f5f
ENCODING 13176
SWIDTH 822 0
DWIDTH 6 0
BBX 5 7 0 -1
BITMAP
F8
80
E8
B8
E8
58
E8
ENDCHAR
STARTCHAR $6d30
ENCODING 13177
SWIDTH 822 0
DWIDTH 6 0
BBX 5 7 0 -1
BITMAP
E8
F8
D8
48
F8
D8
D8
ENDCHAR
STARTCHAR $3d7c
ENCODING 13181
SWIDTH 822 0
DWIDTH 6 0
BBX 5 7 0 -1
BITMAP
D0
E8
B8
D0
F8
B0
90
ENDCHAR
STARTCHAR $413f
ENCODING 13182
SWIDTH 822 0
DWIDTH 6 0
BBX 5 7 0 -1
BITMAP
48
D8
48
F8
30
60
B8
ENDCHAR
STARTCHAR $6260
ENCODING 13347
SWIDTH 822 0
DWIDTH 6 0
BBX 5 7 0 -1
BITMAP
20
F8
30
B0
F8
90
D8
ENDCHAR
STARTCHAR $3f28
ENCODING 13349
SWIDTH 822 0
DWIDTH 6 0
BBX 5 7 0 -1
BITMAP
D0
78
E8
F8
D0
D8
B8
ENDCHAR
STARTCHAR $5965
ENCODING 13351
SWIDTH 822 0
DWIDTH 6 0
BBX 5 7 0 -1
BITMAP
68
F8
40
78
D0
78
E8
ENDCHAR
STARTCHAR $406e
ENCODING 13352
SWIDTH 822 0
DWIDTH 6 0
BBX 5 7 0 -1
BITMAP
88
A8
A8
A8
A8
88
08
ENDCHAR
STARTCHAR $407c
ENCODING 13353
SWIDTH 822 0
DWIDTH 6 0
BBX 5 7 0 -1
BITMAP
20
F8
D8
70
F8
50
B0
ENDCHAR
STARTCHAR $5c3d
ENCODING 13354
SWIDTH 822 0
DWIDTH 6 0
BBX 5 7 0 -1
BITMAP
58
E8
78
D0
E8
58
68
ENDCHAR
STARTCHAR $4125
ENCODING 13356
SWIDTH 822 0
DWIDTH 6 0
BBX 5 7 0 -1
BITMAP
68
E8
E8
C0
F8
E8
B8
ENDCHAR
STARTCHAR $5343
ENCODING 13357
SWIDTH 822 0
DWIDTH 6 0
BBX 5 7 0 -1
BITMAP
28
F8
C0
F8
D0
38
28
ENDCHAR
STARTCHAR $367a
ENCODING 13358
SWIDTH 822 0
DWIDTH 6 0
BBX 5 7 0 -1
BITMAP
20
70
70
20
F8
F8
20
ENDCHAR
STARTCHAR $6359
ENCODING 13360
SWIDTH 822 0
DWIDTH 6 0
BBX 5 7 0 -1
BITMAP
20
F8
D8
20
70
70
70
ENDCHAR
STARTCHAR $5671
ENCODING 13361
SWIDTH 822 0
DWIDTH 6 0
BBX 5 7 0 -1
BITMAP
50
F8
E8
F8
78
50
78
ENDCHAR
STARTCHAR $3e32
ENCODING 13362
SWIDTH 822 0
DWIDTH 6 0
BBX 5 7 0 -1
BITMAP
20
F8
90
F8
B0
D8
90
ENDCHAR
STARTCHAR $3f61
ENCODING 13365
SWIDTH 822 0
DWIDTH 6 0
BBX 5 7 0 -1
BITMAP
20
F8
D8
D0
D0
10
28
ENDCHAR
STARTCHAR $3f66
ENCODING 13366
SWIDTH 822 0
DWIDTH 6 0
BBX 5 7 0 -1
BITMAP
60
78
D8
D0
50
50
A8
ENDCHAR
STARTCHAR $5959
ENCODING 13367
SWIDTH 822 0
DWIDTH 6 0
BBX 5 7 0 -1
BITMAP
78
D0
78
70
F8
50
F8
ENDCHAR
STARTCHAR $3f62
ENCODING 13369
SWIDTH 822 0
DWIDTH 6 0
BBX 5 7 0 -1
BITMAP
70
20
F8
50
F8
20
F8
ENDCHAR
STARTCHAR $3d55
ENCODING 13370
SWIDTH 822 0
DWIDTH 6 0
BBX 5 7 0 -1
BITMAP
20
F8
70
F8
50
B8
30
ENDCHAR
STARTCHAR $4458
ENCODING 13371
SWIDTH 822 0
DWIDTH 6 0
BBX 5 7 0 -1
BITMAP
50
F8
70
F8
E8
58
58
ENDCHAR
STARTCHAR $3d66
ENCODING 13372
SWIDTH 822 0
DWIDTH 6 0
BBX 5 7 0 -1
BITMAP
D0
78
E8
F8
C8
F8
D0
ENDCHAR
STARTCHAR $3f30
ENCODING 13373
SWIDTH 822 0
DWIDTH 6 0
BBX 5 7 0 -1
BITMAP
F8
B0
F8
D0
E8
70
70
ENDCHAR
STARTCHAR $3d5f
ENCODING 13374
SWIDTH 822 0
DWIDTH 6 0
BBX 5 7 0 -1
BITMAP
90
78
A8
38
88
F8
90
ENDCHAR
STARTCHAR $6a41
ENCODING 13376
SWIDTH 822 0
DWIDTH 6 0
BBX 5 7 0 -1
BITMAP
70
F8
70
B8
70
78
A8
ENDCHAR
STARTCHAR $5927
ENCODING 13377
SWIDTH 822 0
DWIDTH 6 0
BBX 5 7 0 -1
BITMAP
F8
70
B8
10
78
D0
E8
ENDCHAR
STARTCHAR $6153
ENCODING 13379
SWIDTH 822 0
DWIDTH 6 0
BBX 5 7 0 -1
BITMAP
10
78
C0
70
F8
70
B8
ENDCHAR
STARTCHAR $3071
ENCODING 13380
SWIDTH 822 0
DWIDTH 6 0
BBX 5 7 0 -1
BITMAP
50
F8
20
B8
58
10
A8
ENDCHAR
STARTCHAR $3c27
ENCODING 13381
SWIDTH 822 0
DWIDTH 6 0
BBX 5 7 0 -1
BITMAP
E8
78
68
90
68
50
38
ENDCHAR
STARTCHAR $3b73
ENCODING 13382
SWIDTH 822 0
DWIDTH 6 0
BBX 5 7 0 -1
BITMAP
50
78
F0
F8
F0
F0
B8
ENDCHAR
STARTCHAR $3c2d
ENCODING 13383
SWIDTH 822 0
DWIDTH 6 0
BBX 5 7 0 -1
BITMAP
D0
78
E8
78
D0
F8
D0
ENDCHAR
STARTCHAR $3b7c
ENCODING 13384
SWIDTH 822 0
DWIDTH 6 0
BBX 5 7 0 -1
BITMAP
50
F8
50
A0
50
C8
B8
ENDCHAR
STARTCHAR $612a
ENCODING 13385
SWIDTH 822 0
DWIDTH 6 0
BBX 5 7 0 -1
BITMAP
A0
38
10
A8
F8
50
D8
ENDCHAR
STARTCHAR $3a21
ENCODING 13387
SWIDTH 822 0
DWIDTH 6 0
BBX 5 7 0 -1
BITMAP
50
50
78
D0
D0
F0
D8
ENDCHAR
STARTCHAR $3b49
ENCODING 13388
SWIDTH 822 0
DWIDTH 6 0
BBX 5 7 0 -1
BITMAP
28
F8
28
F8
A8
78
A8
ENDCHAR
STARTCHAR $3c21
ENCODING 13390
SWIDTH 822 0
DWIDTH 6 0
BBX 5 7 0 -1
BITMAP
A0
38
58
10
90
90
A8
ENDCHAR
STARTCHAR $472c
ENCODING 13392
SWIDTH 822 0
DWIDTH 6 0
BBX 5 7 0 -1
BITMAP
50
F8
78
A8
58
C0
B8
ENDCHAR
STARTCHAR $5232
ENCODING 13394
SWIDTH 822 0
DWIDTH 6 0
BBX 5 7 0 -1
BITMAP
40
78
A8
38
D8
28
58
ENDCHAR
STARTCHAR $503a
ENCODING 13395
SWIDTH 822 0
DWIDTH 6 0
BBX 5 7 0 -1
BITMAP
50
50
50
50
50
A8
A8
ENDCHAR
STARTCHAR $4146
ENCODING 13398
SWIDTH 822 0
DWIDTH 6 0
BBX 5 7 0 -1
BITMAP
B8
68
F8
68
F8
E8
78
ENDCHAR
STARTCHAR $6e4c
ENCODING 13399
SWIDTH 822 0
DWIDTH 6 0
BBX 5 7 0 -1
BITMAP
E8
78
E8
F8
C0
D8
D8
ENDCHAR
STARTCHAR $6448
ENCODING 13400
SWIDTH 822 0
DWIDTH 6 0
BBX 5 7 0 -1
BITMAP
90
D8
48
F0
58
70
A8
ENDCHAR
STARTCHAR $4225
ENCODING 13401
SWIDTH 822 0
DWIDTH 6 0
BBX 5 7 0 -1
BITMAP
78
68
F8
D0
58
70
58
ENDCHAR
STARTCHAR $5974
ENCODING 13405
SWIDTH 822 0
DWIDTH 6 0
BBX 5 7 0 -1
BITMAP
68
F8
50
58
F0
70
F8
ENDCHAR
STARTCHAR $5643
ENCODING 13406
SWIDTH 822 0
DWIDTH 6 0
BBX 5 7 0 -1
BITMAP
A8
F8
78
D0
78
50
78
ENDCHAR
STARTCHAR $3a45
ENCODING 13407
SWIDTH 822 0
DWIDTH 6 0
BBX 5 7 0 -1
BITMAP
68
78
D0
F8
70
70
78
ENDCHAR
STARTCHAR $4048
ENCODING 13408
SWIDTH 822 0
DWIDTH 6 0
BBX 5 7 0 -1
BITMAP
D8
E8
D0
F8
E8
E0
B8
ENDCHAR
STARTCHAR $6161
ENCODING 13409
SWIDTH 822 0
DWIDTH 6 0
BBX 5 7 0 -1
BITMAP
10
78
D0
50
E8
78
90
ENDCHAR
STARTCHAR $646f
ENCODING 13410
SWIDTH 822 0
DWIDTH 6 0
BBX 5 7 0 -1
BITMAP
90
78
D0
50
E8
F8
50
ENDCHAR
STARTCHAR $5e43
ENCODING 13411
SWIDTH 822 0
DWIDTH 6 0
BBX 5 7 0 -1
BITMAP
90
78
90
10
A8
F8
90
ENDCHAR
STARTCHAR $3f69
ENCODING 13412
SWIDTH 822 0
DWIDTH 6 0
BBX 5 7 0 -1
BITMAP
F8
78
A8
F8
50
F8
20
ENDCHAR
STARTCHAR $423c
ENCODING 13413
SWIDTH 822 0
DWIDTH 6 0
BBX 5 7 0 -1
BITMAP
48
F8
48
E8
D8
48
58
ENDCHAR
STARTCHAR $4238
ENCODING 13414
SWIDTH 822 0
DWIDTH 6 0
BBX 5 7 0 -1
BITMAP
20
F8
58
C8
50
78
50
ENDCHAR
STARTCHAR $4023
ENCODING 13415
SWIDTH 822 0
DWIDTH 6 0
BBX 5 7 0 -1
BITMAP
10
F8
10
50
30
10
30
ENDCHAR
STARTCHAR $6278
ENCODING 13416
SWIDTH 822 0
DWIDTH 6 0
BBX 5 7 0 -1
BITMAP
E8
78
50
B8
78
50
38
ENDCHAR
STARTCHAR $3b23
ENCODING 13417
SWIDTH 822 0
DWIDTH 6 0
BBX 5 7 0 -1
BITMAP
70
F0
78
68
F0
68
E0
ENDCHAR
STARTCHAR $596d
ENCODING 13418
SWIDTH 822 0
DWIDTH 6 0
BBX 5 7 0 -1
BITMAP
68
F8
50
78
F8
50
F8
ENDCHAR
STARTCHAR $413c
ENCODING 13419
SWIDTH 822 0
DWIDTH 6 0
BBX 5 7 0 -1
BITMAP
68
F8
68
78
C0
58
D8
ENDCHAR
STARTCHAR $3a43
ENCODING 13420
SWIDTH 822 0
DWIDTH 6 0
BBX 5 7 0 -1
BITMAP
50
D0
68
50
F8
50
F8
ENDCHAR
STARTCHAR $456b
ENCODING 13422
SWIDTH 822 0
DWIDTH 6 0
BBX 5 7 0 -1
BITMAP
68
F8
50
68
C0
58
D8
ENDCHAR
STARTCHAR $457a
ENCODING 13424
SWIDTH 822 0
DWIDTH 6 0
BBX 5 7 0 -1
BITMAP
90
D8
48
20
50
B8
30
ENDCHAR
STARTCHAR $4247
ENCODING 13426
SWIDTH 822 0
DWIDTH 6 0
BBX 5 7 0 -1
BITMAP
58
E8
48
68
C8
48
D8
ENDCHAR
STARTCHAR $4267
ENCODING 13427
SWIDTH 822 0
DWIDTH 6 0
BBX 5 7 0 -1
BITMAP
20
20
F8
20
20
50
88
ENDCHAR
STARTCHAR $4a72
ENCODING 13428
SWIDTH 822 0
DWIDTH 6 0
BBX 5 7 0 -1
BITMAP
70
50
70
20
F8
70
A8
ENDCHAR
STARTCHAR $5d46
ENCODING 13429
SWIDTH 822 0
DWIDTH 6 0
BBX 5 7 0 -1
BITMAP
F8
20
38
48
30
20
C0
ENDCHAR
STARTCHAR $4257
ENCODING 13431
SWIDTH 822 0
DWIDTH 6 0
BBX 5 7 0 -1
BITMAP
50
F0
F8
70
F8
10
A8
ENDCHAR
STARTCHAR $4b58
ENCODING 13433
SWIDTH 822 0
DWIDTH 6 0
BBX 5 7 0 -1
BITMAP
D0
50
68
B8
40
78
B8
ENDCHAR
STARTCHAR $4265
ENCODING 13434
SWIDTH 822 0
DWIDTH 6 0
BBX 5 7 0 -1
BITMAP
58
50
F8
D0
50
50
48
ENDCHAR
STARTCHAR $425e
ENCODING 13436
SWIDTH 822 0
DWIDTH 6 0
BBX 5 7 0 -1
BITMAP
50
78
D0
48
78
D0
68
ENDCHAR
STARTCHAR $4254
ENCODING 13437
SWIDTH 822 0
DWIDTH 6 0
BBX 5 7 0 -1
BITMAP
50
B8
50
F8
48
68
58
ENDCHAR
STARTCHAR $4261
ENCODING 13438
SWIDTH 822 0
DWIDTH 6 0
BBX 5 7 0 -1
BITMAP
90
78
38
D0
B8
D0
F8
ENDCHAR
STARTCHAR $4255
ENCODING 13601
SWIDTH 822 0
DWIDTH 6 0
BBX 5 7 0 -1
BITMAP
20
48
F8
50
70
C8
B8
ENDCHAR
STARTCHAR $433f
ENCODING 13602
SWIDTH 822 0
DWIDTH 6 0
BBX 5 7 0 -1
BITMAP
D0
F8
E8
D0
D0
D8
68
ENDCHAR
STARTCHAR $4334
ENCODING 13603
SWIDTH 822 0
DWIDTH 6 0
BBX 5 7 0 -1
BITMAP
78
E8
78
68
F8
40
F8
ENDCHAR
STARTCHAR $4330
ENCODING 13604
SWIDTH 822 0
DWIDTH 6 0
BBX 5 7 0 -1
BITMAP
78
48
68
48
F8
48
98
ENDCHAR
STARTCHAR $4340
ENCODING 13608
SWIDTH 822 0
DWIDTH 6 0
BBX 5 7 0 -1
BITMAP
F8
E8
F8
E8
F8
C0
B8
ENDCHAR
STARTCHAR $4336
ENCODING 13609
SWIDTH 822 0
DWIDTH 6 0
BBX 5 7 0 -1
BITMAP
70
50
70
50
70
00
F8
ENDCHAR
STARTCHAR $4322
ENCODING 13611
SWIDTH 822 0
DWIDTH 6 0
BBX 5 7 0 -1
BITMAP
78
68
F8
E8
78
40
78
ENDCHAR
STARTCHAR $4338
ENCODING 13613
SWIDTH 822 0
DWIDTH 6 0
BBX 5 7 0 -1
BITMAP
90
58
90
68
D8
90
E8
ENDCHAR
STARTCHAR $4341
ENCODING 13616
SWIDTH 822 0
DWIDTH 6 0
BBX 5 7 0 -1
BITMAP
F8
28
60
B8
70
28
F8
ENDCHAR
STARTCHAR $4576
ENCODING 13617
SWIDTH 822 0
DWIDTH 6 0
BBX 5 7 0 -1
BITMAP
A8
20
F8
08
78
08
F8
ENDCHAR
STARTCHAR $455e
ENCODING 13619
SWIDTH 822 0
DWIDTH 6 0
BBX 5 7 0 -1
BITMAP
A8
F8
88
70
50
70
98
ENDCHAR
STARTCHAR $5b63
ENCODING 13621
SWIDTH 822 0
DWIDTH 6 0
BBX 5 7 0 -1
BITMAP
68
D0
78
C8
D8
48
78
ENDCHAR
STARTCHAR $4561
ENCODING 13622
SWIDTH 822 0
DWIDTH 6 0
BBX 5 7 0 -1
BITMAP
F8
28
28
28
48
48
98
ENDCHAR
STARTCHAR $6d25
ENCODING 13624
SWIDTH 822 0
DWIDTH 6 0
BBX 5 7 0 -1
BITMAP
D8
A8
C0
50
E8
E8
F8
ENDCHAR
STARTCHAR $455d
ENCODING 13625
SWIDTH 822 0
DWIDTH 6 0
BBX 5 7 0 -1
BITMAP
48
78
D8
E8
58
78
48
ENDCHAR
STARTCHAR $4578
ENCODING 13627
SWIDTH 822 0
DWIDTH 6 0
BBX 5 7 0 -1
BITMAP
50
F8
78
A8
78
48
68
ENDCHAR
STARTCHAR $457e
ENCODING 13629
SWIDTH 822 0
DWIDTH 6 0
BBX 5 7 0 -1
BITMAP
E8
48
A8
48
E8
48
E8
ENDCHAR
STARTCHAR $634b
ENCODING 13630
SWIDTH 822 0
DWIDTH 6 0
BBX 5 7 0 -1
BITMAP
D8
68
C0
50
E8
E8
78
ENDCHAR
STARTCHAR $4569
ENCODING 13631
SWIDTH 822 0
DWIDTH 6 0
BBX 5 7 0 -1
BITMAP
50
D8
F0
78
50
78
50
ENDCHAR
STARTCHAR $463b
ENCODING 13632
SWIDTH 822 0
DWIDTH 6 0
BBX 5 7 0 -1
BITMAP
A8
78
10
A8
B8
A8
F8
ENDCHAR
STARTCHAR $4570
ENCODING 13633
SWIDTH 822 0
DWIDTH 6 0
BBX 5 7 0 -1
BITMAP
A0
38
10
A8
70
70
F8
ENDCHAR
STARTCHAR $4640
ENCODING 13635
SWIDTH 822 0
DWIDTH 6 0
BBX 5 7 0 -1
BITMAP
58
98
78
C8
78
68
58
ENDCHAR
STARTCHAR $452a
ENCODING 13636
SWIDTH 822 0
DWIDTH 6 0
BBX 5 7 0 -1
BITMAP
60
F8
C8
E8
D8
C8
18
ENDCHAR
STARTCHAR $4574
ENCODING 13638
SWIDTH 822 0
DWIDTH 6 0
BBX 5 7 0 -1
BITMAP
78
50
D0
D0
50
50
B0
ENDCHAR
STARTCHAR $4550
ENCODING 13639
SWIDTH 822 0
DWIDTH 6 0
BBX 5 7 0 -1
BITMAP
E8
50
88
70
50
20
F8
ENDCHAR
STARTCHAR $4579
ENCODING 13640
SWIDTH 822 0
DWIDTH 6 0
BBX 5 7 0 -1
BITMAP
90
D8
48
20
F8
50
30
ENDCHAR
STARTCHAR $4469
ENCODING 13644
SWIDTH 822 0
DWIDTH 6 0
BBX 5 7 0 -1
BITMAP
58
58
F8
50
58
F0
18
ENDCHAR
STARTCHAR $4463
ENCODING 13645
SWIDTH 822 0
DWIDTH 6 0
BBX 5 7 0 -1
BITMAP
48
70
D0
F8
50
48
78
ENDCHAR
STARTCHAR $4529
ENCODING 13646
SWIDTH 822 0
DWIDTH 6 0
BBX 5 7 0 -1
BITMAP
90
78
A8
78
D8
E8
F8
ENDCHAR
STARTCHAR $6d6c
ENCODING 13647
SWIDTH 822 0
DWIDTH 6 0
BBX 5 7 0 -1
BITMAP
90
10
B8
38
B8
B8
F8
ENDCHAR
STARTCHAR $452b
ENCODING 13649
SWIDTH 822 0
DWIDTH 6 0
BBX 5 7 0 -1
BITMAP
90
D8
48
20
F8
A8
F8
ENDCHAR
STARTCHAR $603f
ENCODING 13650
SWIDTH 822 0
DWIDTH 6 0
BBX 5 7 0 -1
BITMAP
90
50
F8
70
D0
50
A8
ENDCHAR
STARTCHAR $4364
ENCODING 13653
SWIDTH 822 0
DWIDTH 6 0
BBX 5 7 0 -1
BITMAP
90
B8
E8
F8
F8
78
A8
ENDCHAR
STARTCHAR $4471
ENCODING 13654
SWIDTH 822 0
DWIDTH 6 0
BBX 5 7 0 -1
BITMAP
48
F0
50
78
D0
48
F8
ENDCHAR
STARTCHAR $446c
ENCODING 13655
SWIDTH 822 0
DWIDTH 6 0
BBX 5 7 0 -1
BITMAP
20
F8
88
B0
B8
B0
A8
ENDCHAR
STARTCHAR $434f
ENCODING 13656
SWIDTH 822 0
DWIDTH 6 0
BBX 5 7 0 -1
BITMAP
60
68
F8
68
68
E0
38
ENDCHAR
STARTCHAR $685c
ENCODING 13657
SWIDTH 822 0
DWIDTH 6 0
BBX 5 7 0 -1
BITMAP
50
F8
50
F8
A8
70
50
ENDCHAR
STARTCHAR $4268
ENCODING 13658
SWIDTH 822 0
DWIDTH 6 0
BBX 5 7 0 -1
BITMAP
90
D8
48
F8
A0
78
A8
ENDCHAR
STARTCHAR $446b
ENCODING 13659
SWIDTH 822 0
DWIDTH 6 0
BBX 5 7 0 -1
BITMAP
20
F8
50
F8
A8
70
50
ENDCHAR
STARTCHAR $446f
ENCODING 13660
SWIDTH 822 0
DWIDTH 6 0
BBX 5 7 0 -1
BITMAP
50
F8
28
F8
A0
78
A8
ENDCHAR
STARTCHAR $4540
ENCODING 13667
SWIDTH 822 0
DWIDTH 6 0
BBX 5 7 0 -1
BITMAP
20
38
20
70
70
00
A8
ENDCHAR
STARTCHAR $4535
ENCODING 13668
SWIDTH 822 0
DWIDTH 6 0
BBX 5 7 0 -1
BITMAP
50
70
70
70
F8
00
88
ENDCHAR
STARTCHAR $4451
ENCODING 13672
SWIDTH 822 0
DWIDTH 6 0
BBX 5 7 0 -1
BITMAP
78
68
E8
F8
68
68
78
ENDCHAR
STARTCHAR $5234
ENCODING 13673
SWIDTH 822 0
DWIDTH 6 0
BBX 5 7 0 -1
BITMAP
40
78
E8
78
68
78
08
ENDCHAR
STARTCHAR $4539
ENCODING 13674
SWIDTH 822 0
DWIDTH 6 0
BBX 5 7 0 -1
BITMAP
20
F8
90
98
90
B8
B8
ENDCHAR
STARTCHAR $547b
ENCODING 13676
SWIDTH 822 0
DWIDTH 6 0
BBX 5 7 0 -1
BITMAP
50
88
70
70
F8
20
D8
ENDCHAR
STARTCHAR $4d64
ENCODING 13677
SWIDTH 822 0
DWIDTH 6 0
BBX 5 7 0 -1
BITMAP
90
78
D8
10
B8
B0
D8
ENDCHAR
STARTCHAR $4542
ENCODING 13678
SWIDTH 822 0
DWIDTH 6 0
BBX 5 7 0 -1
BITMAP
F8
E8
80
F8
E8
10
A8
ENDCHAR
STARTCHAR $703a
ENCODING 13681
SWIDTH 822 0
DWIDTH 6 0
BBX 5 7 0 -1
BITMAP
F0
B8
F0
B8
D0
F0
98
ENDCHAR
STARTCHAR $437c
ENCODING 13682
SWIDTH 822 0
DWIDTH 6 0
BBX 5 7 0 -1
BITMAP
F8
58
78
58
E8
F8
C8
ENDCHAR
STARTCHAR $595c
ENCODING 13684
SWIDTH 822 0
DWIDTH 6 0
BBX 5 7 0 -1
BITMAP
50
D8
70
78
D0
78
D0
ENDCHAR
STARTCHAR $445f
ENCODING 13685
SWIDTH 822 0
DWIDTH 6 0
BBX 5 7 0 -1
BITMAP
70
50
70
F8
A8
A8
20
ENDCHAR
STARTCHAR $6c6b
ENCODING 13688
SWIDTH 822 0
DWIDTH 6 0
BBX 5 7 0 -1
BITMAP
F0
B8
D0
78
D0
D0
E8
ENDCHAR
STARTCHAR $4433
ENCODING 13691
SWIDTH 822 0
DWIDTH 6 0
BBX 5 7 0 -1
BITMAP
68
F8
E0
F8
50
78
D0
ENDCHAR
STARTCHAR $4533
ENCODING 13692
SWIDTH 822 0
DWIDTH 6 0
BBX 5 7 0 -1
BITMAP
B0
38
50
B8
90
A8
F8
ENDCHAR
STARTCHAR $437a
ENCODING 13857
SWIDTH 822 0
DWIDTH 6 0
BBX 5 7 0 -1
BITMAP
F8
20
20
20
20
20
60
ENDCHAR
STARTCHAR $525a
ENCODING 13859
SWIDTH 822 0
DWIDTH 6 0
BBX 5 7 0 -1
BITMAP
38
D0
D0
D0
D0
10
30
ENDCHAR
STARTCHAR $4524
ENCODING 13862
SWIDTH 822 0
DWIDTH 6 0
BBX 5 7 0 -1
BITMAP
30
B8
88
D8
50
D8
50
ENDCHAR
STARTCHAR $446a
ENCODING 13864
SWIDTH 822 0
DWIDTH 6 0
BBX 5 7 0 -1
BITMAP
20
F8
B8
20
78
60
B8
ENDCHAR
STARTCHAR $455f
ENCODING 13868
SWIDTH 822 0
DWIDTH 6 0
BBX 5 7 0 -1
BITMAP
30
50
20
D8
20
00
30
ENDCHAR
STARTCHAR $4621
ENCODING 13869
SWIDTH 822 0
DWIDTH 6 0
BBX 5 7 0 -1
BITMAP
50
F8
70
F8
70
70
F8
ENDCHAR
STARTCHAR $5778
ENCODING 13874
SWIDTH 822 0
DWIDTH 6 0
BBX 5 7 0 -1
BITMAP
78
C8
F8
48
78
78
48
ENDCHAR
STARTCHAR $4636
ENCODING 13876
SWIDTH 822 0
DWIDTH 6 0
BBX 5 7 0 -1
BITMAP
F8
48
F8
48
F8
F8
C8
ENDCHAR
STARTCHAR $3375
ENCODING 13877
SWIDTH 822 0
DWIDTH 6 0
BBX 5 7 0 -1
BITMAP
A8
D8
F8
D8
F8
50
98
ENDCHAR
STARTCHAR $5935
ENCODING 13878
SWIDTH 822 0
DWIDTH 6 0
BBX 5 7 0 -1
BITMAP
48
E8
48
68
C8
78
C8
ENDCHAR
STARTCHAR $454d
ENCODING 13879
SWIDTH 822 0
DWIDTH 6 0
BBX 5 7 0 -1
BITMAP
10
50
10
50
18
F0
10
ENDCHAR
STARTCHAR $4626
ENCODING 13881
SWIDTH 822 0
DWIDTH 6 0
BBX 5 7 0 -1
BITMAP
F8
00
F8
88
F8
50
F8
ENDCHAR
STARTCHAR $3f60
ENCODING 13882
SWIDTH 822 0
DWIDTH 6 0
BBX 5 7 0 -1
BITMAP
B8
38
28
B8
90
B8
F8
ENDCHAR
STARTCHAR $4577
ENCODING 13883
SWIDTH 822 0
DWIDTH 6 0
BBX 5 7 0 -1
BITMAP
10
78
C0
78
E8
50
B8
ENDCHAR
STARTCHAR $4554
ENCODING 13884
SWIDTH 822 0
DWIDTH 6 0
BBX 5 7 0 -1
BITMAP
58
F8
50
F8
58
F0
70
ENDCHAR
STARTCHAR $4644
ENCODING 13885
SWIDTH 822 0
DWIDTH 6 0
BBX 5 7 0 -1
BITMAP
58
68
50
E8
40
70
70
ENDCHAR
STARTCHAR $4647
ENCODING 13886
SWIDTH 822 0
DWIDTH 6 0
BBX 5 7 0 -1
BITMAP
20
70
20
F8
70
F8
70
ENDCHAR
STARTCHAR $4648
ENCODING 13888
SWIDTH 822 0
DWIDTH 6 0
BBX 5 7 0 -1
BITMAP
90
78
E8
78
D0
58
B8
ENDCHAR
STARTCHAR $4548
ENCODING 13890
SWIDTH 822 0
DWIDTH 6 0
BBX 5 7 0 -1
BITMAP
50
78
D0
78
60
D8
18
ENDCHAR
STARTCHAR $6251
ENCODING 13891
SWIDTH 822 0
DWIDTH 6 0
BBX 5 7 0 -1
BITMAP
D0
F8
D0
F8
E0
D8
D8
ENDCHAR
STARTCHAR $454e
ENCODING 13893
SWIDTH 822 0
DWIDTH 6 0
BBX 5 7 0 -1
BITMAP
50
D0
78
D0
D0
50
78
ENDCHAR
STARTCHAR $666c
ENCODING 13895
SWIDTH 822 0
DWIDTH 6 0
BBX 5 7 0 -1
BITMAP
D0
D0
F8
D0
D0
D0
B8
ENDCHAR
STARTCHAR $4559
ENCODING 13896
SWIDTH 822 0
DWIDTH 6 0
BBX 5 7 0 -1
BITMAP
20
F8
B0
F8
A8
90
A8
ENDCHAR
STARTCHAR $454f
ENCODING 13897
SWIDTH 822 0
DWIDTH 6 0
BBX 5 7 0 -1
BITMAP
90
78
F0
78
E8
D0
A8
ENDCHAR
STARTCHAR $433c
ENCODING 13899
SWIDTH 822 0
DWIDTH 6 0
BBX 5 7 0 -1
BITMAP
68
F8
A0
B8
50
F8
28
ENDCHAR
STARTCHAR $433b
ENCODING 13900
SWIDTH 822 0
DWIDTH 6 0
BBX 5 7 0 -1
BITMAP
B8
C0
78
E8
78
50
B8
ENDCHAR
STARTCHAR $434a
ENCODING 13902
SWIDTH 822 0
DWIDTH 6 0
BBX 5 7 0 -1
BITMAP
78
A8
C0
B8
E8
90
A8
ENDCHAR
STARTCHAR $4347
ENCODING 13903
SWIDTH 822 0
DWIDTH 6 0
BBX 5 7 0 -1
BITMAP
A8
D0
F0
D8
B8
98
E8
ENDCHAR
STARTCHAR $424f
ENCODING 13905
SWIDTH 822 0
DWIDTH 6 0
BBX 5 7 0 -1
BITMAP
68
78
F0
78
70
F0
38
ENDCHAR
STARTCHAR $6d2d
ENCODING 13911
SWIDTH 822 0
DWIDTH 6 0
BBX 5 7 0 -1
BITMAP
E8
B8
F8
48
F8
E8
D8
ENDCHAR
STARTCHAR $4658
ENCODING 13912
SWIDTH 822 0
DWIDTH 6 0
BBX 5 7 0 -1
BITMAP
50
F8
A8
E8
28
F0
48
ENDCHAR
STARTCHAR $3d62
ENCODING 13916
SWIDTH 822 0
DWIDTH 6 0
BBX 5 7 0 -1
BITMAP
F8
90
F8
90
B8
B8
38
ENDCHAR
STARTCHAR $465b
ENCODING 13917
SWIDTH 822 0
DWIDTH 6 0
BBX 5 7 0 -1
BITMAP
88
30
38
B0
D8
98
F8
ENDCHAR
STARTCHAR $423f
ENCODING 13920
SWIDTH 822 0
DWIDTH 6 0
BBX 5 7 0 -1
BITMAP
30
50
20
D8
28
10
60
ENDCHAR
STARTCHAR $4249
ENCODING 13926
SWIDTH 822 0
DWIDTH 6 0
BBX 5 7 0 -1
BITMAP
50
F8
E8
D0
D8
D0
D8
ENDCHAR
STARTCHAR $4246
ENCODING 13928
SWIDTH 822 0
DWIDTH 6 0
BBX 5 7 0 -1
BITMAP
50
F8
E0
58
78
78
68
ENDCHAR
STARTCHAR $4244
ENCODING 13929
SWIDTH 822 0
DWIDTH 6 0
BBX 5 7 0 -1
BITMAP
D0
F8
A0
D8
98
20
F8
ENDCHAR
STARTCHAR $326b
ENCODING 13930
SWIDTH 822 0
DWIDTH 6 0
BBX 5 7 0 -1
BITMAP
78
D0
F8
D0
58
70
C8
ENDCHAR
STARTCHAR $3265
ENCODING 13931
SWIDTH 822 0
DWIDTH 6 0
BBX 5 7 0 -1
BITMAP
78
50
78
D0
D8
F0
08
ENDCHAR
STARTCHAR $3264
ENCODING 13933
SWIDTH 822 0
DWIDTH 6 0
BBX 5 7 0 -1
BITMAP
78
50
F8
D0
58
70
48
ENDCHAR
STARTCHAR $552e
ENCODING 13936
SWIDTH 822 0
DWIDTH 6 0
BBX 5 7 0 -1
BITMAP
B8
90
F8
D0
D8
70
88
ENDCHAR
STARTCHAR $4c71
ENCODING 13938
SWIDTH 822 0
DWIDTH 6 0
BBX 5 7 0 -1
BITMAP
F8
80
B8
A8
A8
A0
B8
ENDCHAR
STARTCHAR $592f
ENCODING 13939
SWIDTH 822 0
DWIDTH 6 0
BBX 5 7 0 -1
BITMAP
78
C0
78
68
E8
60
D8
ENDCHAR
STARTCHAR $6e21
ENCODING 13940
SWIDTH 822 0
DWIDTH 6 0
BBX 5 7 0 -1
BITMAP
98
18
98
28
B8
88
F8
ENDCHAR
STARTCHAR $6e3f
ENCODING 13941
SWIDTH 822 0
DWIDTH 6 0
BBX 5 7 0 -1
BITMAP
B8
B8
10
F8
58
70
30
ENDCHAR
STARTCHAR $3238
ENCODING 13943
SWIDTH 822 0
DWIDTH 6 0
BBX 5 7 0 -1
BITMAP
F8
A8
D8
F8
00
C8
B8
ENDCHAR
STARTCHAR $3c29
ENCODING 13944
SWIDTH 822 0
DWIDTH 6 0
BBX 5 7 0 -1
BITMAP
F8
40
F8
A8
A8
A8
A8
ENDCHAR
STARTCHAR $5139
ENCODING 13945
SWIDTH 822 0
DWIDTH 6 0
BBX 5 7 0 -1
BITMAP
50
50
50
50
50
50
98
ENDCHAR
STARTCHAR $3c2a
ENCODING 13946
SWIDTH 822 0
DWIDTH 6 0
BBX 5 7 0 -1
BITMAP
F8
50
70
70
50
F8
10
ENDCHAR
STARTCHAR $4673
ENCODING 13950
SWIDTH 822 0
DWIDTH 6 0
BBX 5 6 0 -1
BITMAP
70
00
00
00
00
F8
ENDCHAR
STARTCHAR $4835
ENCODING 14116
SWIDTH 822 0
DWIDTH 6 0
BBX 5 7 0 -1
BITMAP
90
D8
48
58
F0
50
68
ENDCHAR
STARTCHAR $4832
ENCODING 14117
SWIDTH 822 0
DWIDTH 6 0
BBX 5 7 0 -1
BITMAP
58
50
F8
D0
58
50
68
ENDCHAR
STARTCHAR $4b33
ENCODING 14118
SWIDTH 822 0
DWIDTH 6 0
BBX 5 7 0 -1
BITMAP
70
20
F8
10
20
C0
B8
ENDCHAR
STARTCHAR $4b21
ENCODING 14120
SWIDTH 822 0
DWIDTH 6 0
BBX 5 7 0 -1
BITMAP
90
38
90
78
90
A0
B8
ENDCHAR
STARTCHAR $484d
ENCODING 14122
SWIDTH 822 0
DWIDTH 6 0
BBX 5 7 0 -1
BITMAP
50
F8
B0
78
B0
78
B0
ENDCHAR
STARTCHAR $4841
ENCODING 14123
SWIDTH 822 0
DWIDTH 6 0
BBX 5 7 0 -1
BITMAP
78
C8
E8
D8
48
48
48
ENDCHAR
STARTCHAR $4856
ENCODING 14124
SWIDTH 822 0
DWIDTH 6 0
BBX 5 7 0 -1
BITMAP
F8
50
F8
70
A8
70
70
ENDCHAR
STARTCHAR $4b5d
ENCODING 14125
SWIDTH 822 0
DWIDTH 6 0
BBX 5 7 0 -1
BITMAP
F8
48
F8
48
B8
68
68
ENDCHAR
STARTCHAR $5c68
ENCODING 14126
SWIDTH 822 0
DWIDTH 6 0
BBX 5 7 0 -1
BITMAP
68
D8
68
D8
70
20
D8
ENDCHAR
STARTCHAR $484b
ENCODING 14129
SWIDTH 822 0
DWIDTH 6 0
BBX 5 7 0 -1
BITMAP
98
E8
70
E8
70
20
A8
ENDCHAR
STARTCHAR $4b5e
ENCODING 14130
SWIDTH 822 0
DWIDTH 6 0
BBX 5 7 0 -1
BITMAP
F8
88
C8
A8
A8
88
88
ENDCHAR
STARTCHAR $483f
ENCODING 14132
SWIDTH 822 0
DWIDTH 6 0
BBX 5 7 0 -1
BITMAP
F8
80
F8
A8
A8
90
A8
ENDCHAR
STARTCHAR $4a56
ENCODING 14133
SWIDTH 822 0
DWIDTH 6 0
BBX 5 7 0 -1
BITMAP
B8
20
38
A8
D0
A8
F8
ENDCHAR
STARTCHAR $6777
ENCODING 14134
SWIDTH 822 0
DWIDTH 6 0
BBX 5 7 0 -1
BITMAP
50
F8
B8
28
A8
20
B8
ENDCHAR
STARTCHAR $4848
ENCODING 14136
SWIDTH 822 0
DWIDTH 6 0
BBX 5 7 0 -1
BITMAP
B8
68
E8
68
E0
68
B8
ENDCHAR
STARTCHAR $5e22
ENCODING 14138
SWIDTH 822 0
DWIDTH 6 0
BBX 5 7 0 -1
BITMAP
B8
10
B8
08
90
A0
D8
ENDCHAR
STARTCHAR $4b37
ENCODING 14139
SWIDTH 822 0
DWIDTH 6 0
BBX 5 7 0 -1
BITMAP
50
78
D0
58
58
E8
28
ENDCHAR
STARTCHAR $4b27
ENCODING 14140
SWIDTH 822 0
DWIDTH 6 0
BBX 5 7 0 -1
BITMAP
50
F8
20
F8
40
70
90
ENDCHAR
STARTCHAR $4a7d
ENCODING 14141
SWIDTH 822 0
DWIDTH 6 0
BBX 5 7 0 -1
BITMAP
20
F8
40
78
48
48
98
ENDCHAR
STARTCHAR $4b43
ENCODING 14142
SWIDTH 822 0
DWIDTH 6 0
BBX 5 7 0 -1
BITMAP
D0
F8
D0
D8
D8
E8
A8
ENDCHAR
STARTCHAR $4b3c
ENCODING 14143
SWIDTH 822 0
DWIDTH 6 0
BBX 5 7 0 -1
BITMAP
F8
48
78
50
78
A8
58
ENDCHAR
STARTCHAR $4b49
ENCODING 14144
SWIDTH 822 0
DWIDTH 6 0
BBX 5 7 0 -1
BITMAP
D0
F8
90
D8
D8
A8
A8
ENDCHAR
STARTCHAR $4b38
ENCODING 14145
SWIDTH 822 0
DWIDTH 6 0
BBX 5 7 0 -1
BITMAP
90
B8
D0
D8
D8
68
A8
ENDCHAR
STARTCHAR $4a7c
ENCODING 14149
SWIDTH 822 0
DWIDTH 6 0
BBX 5 7 0 -1
BITMAP
50
F8
58
78
78
B0
A8
ENDCHAR
STARTCHAR $684b
ENCODING 14150
SWIDTH 822 0
DWIDTH 6 0
BBX 5 7 0 -1
BITMAP
50
F8
50
D8
50
D8
50
ENDCHAR
STARTCHAR $4873
ENCODING 14151
SWIDTH 822 0
DWIDTH 6 0
BBX 5 7 0 -1
BITMAP
50
D8
50
D8
50
D8
50
ENDCHAR
STARTCHAR $486e
ENCODING 14154
SWIDTH 822 0
DWIDTH 6 0
BBX 5 7 0 -1
BITMAP
F8
A8
E8
B8
E0
A8
B8
ENDCHAR
STARTCHAR $485b
ENCODING 14155
SWIDTH 822 0
DWIDTH 6 0
BBX 5 7 0 -1
BITMAP
F8
B0
F8
B0
F8
D0
F8
ENDCHAR
STARTCHAR $4b4a
ENCODING 14157
SWIDTH 822 0
DWIDTH 6 0
BBX 5 7 0 -1
BITMAP
18
D0
F8
D0
D0
10
28
ENDCHAR
STARTCHAR $4759
ENCODING 14158
SWIDTH 822 0
DWIDTH 6 0
BBX 5 7 0 -1
BITMAP
D0
F8
D0
F8
D8
D8
D0
ENDCHAR
STARTCHAR $4a28
ENCODING 14160
SWIDTH 822 0
DWIDTH 6 0
BBX 5 7 0 -1
BITMAP
B0
78
B8
70
F8
B8
D0
ENDCHAR
STARTCHAR $676e
ENCODING 14162
SWIDTH 822 0
DWIDTH 6 0
BBX 5 7 0 -1
BITMAP
50
F8
50
88
70
30
50
ENDCHAR
STARTCHAR $5266
ENCODING 14164
SWIDTH 822 0
DWIDTH 6 0
BBX 5 7 0 -1
BITMAP
28
E8
C0
F8
E8
28
58
ENDCHAR
STARTCHAR $5d64
ENCODING 14165
SWIDTH 822 0
DWIDTH 6 0
BBX 5 7 0 -1
BITMAP
80
F8
70
F8
98
68
A8
ENDCHAR
STARTCHAR $4a2c
ENCODING 14166
SWIDTH 822 0
DWIDTH 6 0
BBX 5 7 0 -1
BITMAP
50
50
88
70
50
50
B0
ENDCHAR
STARTCHAR $4a32
ENCODING 14169
SWIDTH 822 0
DWIDTH 6 0
BBX 5 7 0 -1
BITMAP
48
D8
48
20
A8
20
D8
ENDCHAR
STARTCHAR $5d70
ENCODING 14170
SWIDTH 822 0
DWIDTH 6 0
BBX 5 7 0 -1
BITMAP
A8
28
80
38
98
98
A8
ENDCHAR
STARTCHAR $4a34
ENCODING 14171
SWIDTH 822 0
DWIDTH 6 0
BBX 5 7 0 -1
BITMAP
A8
68
C0
78
D8
D8
68
ENDCHAR
STARTCHAR $575d
ENCODING 14174
SWIDTH 822 0
DWIDTH 6 0
BBX 5 7 0 -1
BITMAP
50
88
30
50
00
C8
B8
ENDCHAR
STARTCHAR $4975
ENCODING 14178
SWIDTH 822 0
DWIDTH 6 0
BBX 5 7 0 -1
BITMAP
48
F8
48
E8
58
68
C8
ENDCHAR
STARTCHAR $4b2a
ENCODING 14180
SWIDTH 822 0
DWIDTH 6 0
BBX 5 7 0 -1
BITMAP
58
E8
D0
E8
50
78
D0
ENDCHAR
STARTCHAR $4a76
ENCODING 14181
SWIDTH 822 0
DWIDTH 6 0
BBX 5 7 0 -1
BITMAP
58
68
50
E8
D0
F8
10
ENDCHAR
STARTCHAR $5f62
ENCODING 14185
SWIDTH 822 0
DWIDTH 6 0
BBX 5 7 0 -1
BITMAP
58
68
D0
E8
50
78
90
ENDCHAR
STARTCHAR $3029
ENCODING 14186
SWIDTH 822 0
DWIDTH 6 0
BBX 5 7 0 -1
BITMAP
98
28
10
A8
F8
90
F8
ENDCHAR
STARTCHAR $4a74
ENCODING 14190
SWIDTH 822 0
DWIDTH 6 0
BBX 5 7 0 -1
BITMAP
20
70
F8
70
A8
70
20
ENDCHAR
STARTCHAR $5047
ENCODING 14192
SWIDTH 822 0
DWIDTH 6 0
BBX 5 7 0 -1
BITMAP
50
78
D8
F0
78
58
50
ENDCHAR
STARTCHAR $485d
ENCODING 14193
SWIDTH 822 0
DWIDTH 6 0
BBX 5 7 0 -1
BITMAP
F8
20
70
A8
70
50
70
ENDCHAR
STARTCHAR $4957
ENCODING 14194
SWIDTH 822 0
DWIDTH 6 0
BBX 5 7 0 -1
BITMAP
20
70
20
F8
20
50
88
ENDCHAR
STARTCHAR $495f
ENCODING 14195
SWIDTH 822 0
DWIDTH 6 0
BBX 5 7 0 -1
BITMAP
50
F8
68
68
E8
50
A8
ENDCHAR
STARTCHAR $555b
ENCODING 14197
SWIDTH 822 0
DWIDTH 6 0
BBX 5 7 0 -1
BITMAP
58
A8
C0
D8
C8
78
90
ENDCHAR
STARTCHAR $495e
ENCODING 14198
SWIDTH 822 0
DWIDTH 6 0
BBX 5 7 0 -1
BITMAP
50
F8
50
78
D0
50
E8
ENDCHAR
STARTCHAR $5944
ENCODING 14199
SWIDTH 822 0
DWIDTH 6 0
BBX 5 7 0 -1
BITMAP
50
F8
58
70
F8
58
D0
ENDCHAR
STARTCHAR $497d
ENCODING 14201
SWIDTH 822 0
DWIDTH 6 0
BBX 5 7 0 -1
BITMAP
78
D8
D8
C0
78
78
78
ENDCHAR
STARTCHAR $4964
ENCODING 14203
SWIDTH 822 0
DWIDTH 6 0
BBX 5 7 0 -1
BITMAP
90
D8
48
78
C8
68
58
ENDCHAR
STARTCHAR $497a
ENCODING 14204
SWIDTH 822 0
DWIDTH 6 0
BBX 5 7 0 -1
BITMAP
58
50
F8
D0
50
50
68
ENDCHAR
STARTCHAR $505a
ENCODING 14205
SWIDTH 822 0
DWIDTH 6 0
BBX 5 7 0 -1
BITMAP
58
68
C0
D8
48
78
50
ENDCHAR
STARTCHAR $497e
ENCODING 14206
SWIDTH 822 0
DWIDTH 6 0
BBX 5 7 0 -1
BITMAP
F8
A8
E0
B8
E8
B0
A8
ENDCHAR
STARTCHAR $4962
ENCODING 14369
SWIDTH 822 0
DWIDTH 6 0
BBX 5 7 0 -1
BITMAP
B8
50
80
30
90
F8
A0
ENDCHAR
STARTCHAR $4a21
ENCODING 14371
SWIDTH 822 0
DWIDTH 6 0
BBX 5 7 0 -1
BITMAP
78
D8
58
80
78
78
78
ENDCHAR
STARTCHAR $6a60
ENCODING 14372
SWIDTH 822 0
DWIDTH 6 0
BBX 5 7 0 -1
BITMAP
78
F0
78
B0
70
70
68
ENDCHAR
STARTCHAR $4a26
ENCODING 14373
SWIDTH 822 0
DWIDTH 6 0
BBX 5 7 0 -1
BITMAP
50
F8
78
D0
F8
58
90
ENDCHAR
STARTCHAR $4a63
ENCODING 14374
SWIDTH 822 0
DWIDTH 6 0
BBX 5 7 0 -1
BITMAP
28
F8
20
F8
A8
F8
A8
ENDCHAR
STARTCHAR $506d
ENCODING 14377
SWIDTH 822 0
DWIDTH 6 0
BBX 5 7 0 -1
BITMAP
50
78
C0
E8
78
68
68
ENDCHAR
STARTCHAR $3378
ENCODING 14378
SWIDTH 822 0
DWIDTH 6 0
BBX 5 7 0 -1
BITMAP
50
D8
20
D8
20
70
F8
ENDCHAR
STARTCHAR $4960
ENCODING 14379
SWIDTH 822 0
DWIDTH 6 0
BBX 5 7 0 -1
BITMAP
50
D8
20
D8
40
78
90
ENDCHAR
STARTCHAR $667d
ENCODING 14380
SWIDTH 822 0
DWIDTH 6 0
BBX 5 7 0 -1
BITMAP
D0
F8
D0
F8
F8
F8
A8
ENDCHAR
STARTCHAR $6725
ENCODING 14381
SWIDTH 822 0
DWIDTH 6 0
BBX 5 7 0 -1
BITMAP
D0
F8
C0
E8
F8
E8
E8
ENDCHAR
STARTCHAR $495c
ENCODING 14382
SWIDTH 822 0
DWIDTH 6 0
BBX 5 7 0 -1
BITMAP
20
F8
80
C8
F8
E8
58
ENDCHAR
STARTCHAR $4965
ENCODING 14383
SWIDTH 822 0
DWIDTH 6 0
BBX 5 7 0 -1
BITMAP
20
F8
B0
D0
F8
A8
D8
ENDCHAR
STARTCHAR $496b
ENCODING 14384
SWIDTH 822 0
DWIDTH 6 0
BBX 5 7 0 -1
BITMAP
50
D0
58
D0
50
C0
B8
ENDCHAR
STARTCHAR $497b
ENCODING 14385
SWIDTH 822 0
DWIDTH 6 0
BBX 5 7 0 -1
BITMAP
E8
68
68
08
E8
E8
E8
ENDCHAR
STARTCHAR $4a24
ENCODING 14386
SWIDTH 822 0
DWIDTH 6 0
BBX 5 7 0 -1
BITMAP
F8
70
70
98
68
D0
68
ENDCHAR
STARTCHAR $507c
ENCODING 14389
SWIDTH 822 0
DWIDTH 6 0
BBX 5 7 0 -1
BITMAP
50
78
D8
D8
78
68
58
ENDCHAR
STARTCHAR $4955
ENCODING 14390
SWIDTH 822 0
DWIDTH 6 0
BBX 5 7 0 -1
BITMAP
48
78
C8
E8
58
48
58
ENDCHAR
STARTCHAR $496c
ENCODING 14391
SWIDTH 822 0
DWIDTH 6 0
BBX 5 7 0 -1
BITMAP
20
70
50
78
48
F8
20
ENDCHAR
STARTCHAR $4963
ENCODING 14392
SWIDTH 822 0
DWIDTH 6 0
BBX 5 7 0 -1
BITMAP
50
88
50
50
20
50
88
ENDCHAR
STARTCHAR $4a22
ENCODING 14393
SWIDTH 822 0
DWIDTH 6 0
BBX 5 7 0 -1
BITMAP
E0
F8
D8
F8
E8
D0
A8
ENDCHAR
STARTCHAR $4959
ENCODING 14395
SWIDTH 822 0
DWIDTH 6 0
BBX 5 7 0 -1
BITMAP
20
F8
D8
70
F8
A8
F8
ENDCHAR
STARTCHAR $496d
ENCODING 14397
SWIDTH 822 0
DWIDTH 6 0
BBX 5 7 0 -1
BITMAP
E8
F8
A8
F8
E8
A8
A8
ENDCHAR
STARTCHAR $5275
ENCODING 14400
SWIDTH 822 0
DWIDTH 6 0
BBX 5 7 0 -1
BITMAP
28
F8
C8
E8
D8
48
58
ENDCHAR
STARTCHAR $327e
ENCODING 14404
SWIDTH 822 0
DWIDTH 6 0
BBX 5 7 0 -1
BITMAP
D0
58
E8
A8
A8
D0
28
ENDCHAR
STARTCHAR $3335
ENCODING 14405
SWIDTH 822 0
DWIDTH 6 0
BBX 5 7 0 -1
BITMAP
58
E8
68
D8
F0
50
68
ENDCHAR
STARTCHAR $6235
ENCODING 14407
SWIDTH 822 0
DWIDTH 6 0
BBX 5 7 0 -1
BITMAP
50
F8
20
F8
00
70
F8
ENDCHAR
STARTCHAR $3433
ENCODING 14409
SWIDTH 822 0
DWIDTH 6 0
BBX 5 7 0 -1
BITMAP
70
20
20
F8
20
20
20
ENDCHAR
STARTCHAR $3445
ENCODING 14410
SWIDTH 822 0
DWIDTH 6 0
BBX 5 7 0 -1
BITMAP
50
F8
50
70
50
50
70
ENDCHAR
STARTCHAR $5b38
ENCODING 14411
SWIDTH 822 0
DWIDTH 6 0
BBX 5 7 0 -1
BITMAP
78
D0
50
F8
D0
50
50
ENDCHAR
STARTCHAR $343b
ENCODING 14412
SWIDTH 822 0
DWIDTH 6 0
BBX 5 7 0 -1
BITMAP
68
F8
68
F8
E8
68
78
ENDCHAR
STARTCHAR $3448
ENCODING 14413
SWIDTH 822 0
DWIDTH 6 0
BBX 5 7 0 -1
BITMAP
90
D8
48
70
20
F8
20
ENDCHAR
STARTCHAR $344e
ENCODING 14414
SWIDTH 822 0
DWIDTH 6 0
BBX 5 7 0 -1
BITMAP
F8
D0
D0
F8
D0
D0
D0
ENDCHAR
STARTCHAR $3436
ENCODING 14416
SWIDTH 822 0
DWIDTH 6 0
BBX 5 7 0 -1
BITMAP
10
F8
D0
C8
00
C8
B8
ENDCHAR
STARTCHAR $343a
ENCODING 14418
SWIDTH 822 0
DWIDTH 6 0
BBX 5 7 0 -1
BITMAP
F0
58
E8
68
68
F0
28
ENDCHAR
STARTCHAR $657d
ENCODING 14423
SWIDTH 822 0
DWIDTH 6 0
BBX 5 7 0 -1
BITMAP
80
F8
50
D0
50
D0
F8
ENDCHAR
STARTCHAR $666a
ENCODING 14424
SWIDTH 822 0
DWIDTH 6 0
BBX 5 7 0 -1
BITMAP
C0
F8
D0
D0
D0
D0
B8
ENDCHAR
STARTCHAR $3941
ENCODING 14427
SWIDTH 822 0
DWIDTH 6 0
BBX 5 7 0 -1
BITMAP
A8
78
A8
70
A8
D0
98
ENDCHAR
STARTCHAR $5b3a
ENCODING 14428
SWIDTH 822 0
DWIDTH 6 0
BBX 5 7 0 -1
BITMAP
40
F8
50
D0
D0
50
78
ENDCHAR
STARTCHAR $6228
ENCODING 14430
SWIDTH 822 0
DWIDTH 6 0
BBX 5 7 0 -1
BITMAP
20
70
50
70
A8
70
20
ENDCHAR
STARTCHAR $3962
ENCODING 14431
SWIDTH 822 0
DWIDTH 6 0
BBX 5 7 0 -1
BITMAP
20
F8
50
70
F8
88
A8
ENDCHAR
STARTCHAR $3951
ENCODING 14432
SWIDTH 822 0
DWIDTH 6 0
BBX 5 7 0 -1
BITMAP
20
F8
50
F8
F8
70
50
ENDCHAR
STARTCHAR $6636
ENCODING 14433
SWIDTH 822 0
DWIDTH 6 0
BBX 5 7 0 -1
BITMAP
50
F8
70
20
F8
00
A8
ENDCHAR
STARTCHAR $3946
ENCODING 14437
SWIDTH 822 0
DWIDTH 6 0
BBX 5 7 0 -1
BITMAP
D0
78
D8
40
F8
F8
68
ENDCHAR
STARTCHAR $3970
ENCODING 14438
SWIDTH 822 0
DWIDTH 6 0
BBX 5 7 0 -1
BITMAP
60
78
A0
F8
00
70
70
ENDCHAR
STARTCHAR $5327
ENCODING 14439
SWIDTH 822 0
DWIDTH 6 0
BBX 5 7 0 -1
BITMAP
F8
50
10
F8
10
50
30
ENDCHAR
STARTCHAR $324e
ENCODING 14440
SWIDTH 822 0
DWIDTH 6 0
BBX 5 7 0 -1
BITMAP
F0
38
A8
F0
30
B0
68
ENDCHAR
STARTCHAR $5879
ENCODING 14442
SWIDTH 822 0
DWIDTH 6 0
BBX 5 7 0 -1
BITMAP
28
F8
20
28
18
10
68
ENDCHAR
STARTCHAR $3364
ENCODING 14446
SWIDTH 822 0
DWIDTH 6 0
BBX 5 7 0 -1
BITMAP
48
E8
A8
48
E8
68
68
ENDCHAR
STARTCHAR $3357
ENCODING 14447
SWIDTH 822 0
DWIDTH 6 0
BBX 5 7 0 -1
BITMAP
50
F8
20
70
70
F8
20
ENDCHAR
STARTCHAR $336b
ENCODING 14448
SWIDTH 822 0
DWIDTH 6 0
BBX 5 7 0 -1
BITMAP
50
F8
70
78
C8
68
18
ENDCHAR
STARTCHAR $334a
ENCODING 14449
SWIDTH 822 0
DWIDTH 6 0
BBX 5 7 0 -1
BITMAP
58
E8
50
E8
C0
58
58
ENDCHAR
STARTCHAR $483a
ENCODING 14450
SWIDTH 822 0
DWIDTH 6 0
BBX 5 7 0 -1
BITMAP
50
E8
B8
C0
78
68
F8
ENDCHAR
STARTCHAR $3356
ENCODING 14452
SWIDTH 822 0
DWIDTH 6 0
BBX 5 7 0 -1
BITMAP
F8
D8
98
C0
F8
B8
A8
ENDCHAR
STARTCHAR $5024
ENCODING 14454
SWIDTH 822 0
DWIDTH 6 0
BBX 5 7 0 -1
BITMAP
20
50
A8
20
20
20
20
ENDCHAR
STARTCHAR $3346
ENCODING 14455
SWIDTH 822 0
DWIDTH 6 0
BBX 5 7 0 -1
BITMAP
30
50
20
50
F8
50
70
ENDCHAR
STARTCHAR $3a2c
ENCODING 14457
SWIDTH 822 0
DWIDTH 6 0
BBX 5 7 0 -1
BITMAP
78
E8
78
E0
E8
70
68
ENDCHAR
STARTCHAR $6c70
ENCODING 14458
SWIDTH 822 0
DWIDTH 6 0
BBX 5 7 0 -1
BITMAP
F8
E8
F8
60
E8
F0
E8
ENDCHAR
STARTCHAR $394c
ENCODING 14459
SWIDTH 822 0
DWIDTH 6 0
BBX 5 7 0 -1
BITMAP
58
F8
58
D8
78
D8
68
ENDCHAR
STARTCHAR $3939
ENCODING 14460
SWIDTH 822 0
DWIDTH 6 0
BBX 5 7 0 -1
BITMAP
F8
70
70
20
60
20
D8
ENDCHAR
STARTCHAR $392e
ENCODING 14461
SWIDTH 822 0
DWIDTH 6 0
BBX 5 7 0 -1
BITMAP
20
F8
B0
98
B8
90
A8
ENDCHAR
STARTCHAR $663d
ENCODING 14462
SWIDTH 822 0
DWIDTH 6 0
BBX 5 7 0 -1
BITMAP
50
F8
70
A8
F8
70
D8
ENDCHAR
STARTCHAR $6656
ENCODING 14626
SWIDTH 822 0
DWIDTH 6 0
BBX 5 7 0 -1
BITMAP
D0
D0
F8
F0
D0
D0
68
ENDCHAR
STARTCHAR $393c
ENCODING 14627
SWIDTH 822 0
DWIDTH 6 0
BBX 5 7 0 -1
BITMAP
78
D0
78
F8
F0
50
68
ENDCHAR
STARTCHAR $3929
ENCODING 14628
SWIDTH 822 0
DWIDTH 6 0
BBX 5 6 0 -1
BITMAP
70
20
20
20
20
F8
ENDCHAR
STARTCHAR $3936
ENCODING 14629
SWIDTH 822 0
DWIDTH 6 0
BBX 5 7 0 -1
BITMAP
10
D8
68
68
68
D0
28
ENDCHAR
STARTCHAR $3879
ENCODING 14630
SWIDTH 822 0
DWIDTH 6 0
BBX 5 7 0 -1
BITMAP
10
F8
58
58
D8
28
28
ENDCHAR
STARTCHAR $3633
ENCODING 14631
SWIDTH 822 0
DWIDTH 6 0
BBX 5 7 0 -1
BITMAP
50
F8
50
F8
40
E8
40
ENDCHAR
STARTCHAR $3621
ENCODING 14633
SWIDTH 822 0
DWIDTH 6 0
BBX 5 7 0 -1
BITMAP
68
78
E8
E8
78
40
68
ENDCHAR
STARTCHAR $6d3b
ENCODING 14634
SWIDTH 822 0
DWIDTH 6 0
BBX 5 7 0 -1
BITMAP
58
E8
B8
F0
B8
68
B8
ENDCHAR
STARTCHAR $3878
ENCODING 14635
SWIDTH 822 0
DWIDTH 6 0
BBX 5 7 0 -1
BITMAP
50
50
88
20
20
50
E8
ENDCHAR
STARTCHAR $355d
ENCODING 14637
SWIDTH 822 0
DWIDTH 6 0
BBX 5 7 0 -1
BITMAP
F0
10
F0
80
F8
08
18
ENDCHAR
STARTCHAR $5d67
ENCODING 14639
SWIDTH 822 0
DWIDTH 6 0
BBX 5 7 0 -1
BITMAP
70
20
F8
20
E8
70
A8
ENDCHAR
STARTCHAR $594a
ENCODING 14640
SWIDTH 822 0
DWIDTH 6 0
BBX 5 7 0 -1
BITMAP
68
F8
68
68
F8
40
E8
ENDCHAR
STARTCHAR $3626
ENCODING 14642
SWIDTH 822 0
DWIDTH 6 0
BBX 5 7 0 -1
BITMAP
50
F8
50
50
F8
00
88
ENDCHAR
STARTCHAR $387b
ENCODING 14644
SWIDTH 822 0
DWIDTH 6 0
BBX 5 7 0 -1
BITMAP
40
78
A8
28
58
E8
18
ENDCHAR
STARTCHAR $6771
ENCODING 14646
SWIDTH 822 0
DWIDTH 6 0
BBX 5 7 0 -1
BITMAP
50
F8
50
78
88
68
68
ENDCHAR
STARTCHAR $3669
ENCODING 14647
SWIDTH 822 0
DWIDTH 6 0
BBX 5 7 0 -1
BITMAP
A0
78
C8
58
D8
48
98
ENDCHAR
STARTCHAR $3924
ENCODING 14648
SWIDTH 822 0
DWIDTH 6 0
BBX 5 7 0 -1
BITMAP
48
70
C0
58
40
D8
18
ENDCHAR
STARTCHAR $6d63
ENCODING 14652
SWIDTH 822 0
DWIDTH 6 0
BBX 5 7 0 -1
BITMAP
20
F8
70
50
F8
70
20
ENDCHAR
STARTCHAR $6432
ENCODING 14655
SWIDTH 822 0
DWIDTH 6 0
BBX 5 7 0 -1
BITMAP
90
D8
70
78
F8
70
F8
ENDCHAR
STARTCHAR $5046
ENCODING 14656
SWIDTH 822 0
DWIDTH 6 0
BBX 5 7 0 -1
BITMAP
50
50
F8
D0
78
68
78
ENDCHAR
STARTCHAR $5d78
ENCODING 14657
SWIDTH 822 0
DWIDTH 6 0
BBX 5 7 0 -1
BITMAP
90
10
B8
10
B8
A8
B8
ENDCHAR
STARTCHAR $3849
ENCODING 14658
SWIDTH 822 0
DWIDTH 6 0
BBX 5 7 0 -1
BITMAP
C8
70
A8
68
E8
78
E8
ENDCHAR
STARTCHAR $3848
ENCODING 14659
SWIDTH 822 0
DWIDTH 6 0
BBX 5 7 0 -1
BITMAP
90
90
F8
D0
F8
68
B8
ENDCHAR
STARTCHAR $385d
ENCODING 14660
SWIDTH 822 0
DWIDTH 6 0
BBX 5 7 0 -1
BITMAP
50
F8
50
B8
E8
50
E8
ENDCHAR
STARTCHAR $3845
ENCODING 14661
SWIDTH 822 0
DWIDTH 6 0
BBX 5 7 0 -1
BITMAP
20
20
F8
20
70
50
70
ENDCHAR
STARTCHAR $397c
ENCODING 14663
SWIDTH 822 0
DWIDTH 6 0
BBX 5 7 0 -1
BITMAP
70
50
F8
88
70
70
50
ENDCHAR
STARTCHAR $432b
ENCODING 14664
SWIDTH 822 0
DWIDTH 6 0
BBX 5 7 0 -1
BITMAP
50
88
20
50
88
70
70
ENDCHAR
STARTCHAR $3854
ENCODING 14665
SWIDTH 822 0
DWIDTH 6 0
BBX 5 7 0 -1
BITMAP
F8
E8
C0
F8
E8
D0
A8
ENDCHAR
STARTCHAR $384e
ENCODING 14666
SWIDTH 822 0
DWIDTH 6 0
BBX 5 7 0 -1
BITMAP
50
D8
68
E8
A8
D0
28
ENDCHAR
STARTCHAR $3847
ENCODING 14668
SWIDTH 822 0
DWIDTH 6 0
BBX 5 7 0 -1
BITMAP
F8
A8
F8
A8
D8
F8
F8
ENDCHAR
STARTCHAR $385b
ENCODING 14669
SWIDTH 822 0
DWIDTH 6 0
BBX 5 7 0 -1
BITMAP
F8
70
40
68
78
70
B8
ENDCHAR
STARTCHAR $5169
ENCODING 14670
SWIDTH 822 0
DWIDTH 6 0
BBX 5 7 0 -1
BITMAP
E8
58
F8
58
E8
A8
E8
ENDCHAR
STARTCHAR $313b
ENCODING 14671
SWIDTH 822 0
DWIDTH 6 0
BBX 5 7 0 -1
BITMAP
18
E0
A8
A8
A8
F8
88
ENDCHAR
STARTCHAR $3249
ENCODING 14673
SWIDTH 822 0
DWIDTH 6 0
BBX 5 7 0 -1
BITMAP
20
F8
B8
30
F8
50
A8
ENDCHAR
STARTCHAR $594c
ENCODING 14674
SWIDTH 822 0
DWIDTH 6 0
BBX 5 7 0 -1
BITMAP
50
F8
50
78
D0
50
F8
ENDCHAR
STARTCHAR $6a68
ENCODING 14675
SWIDTH 822 0
DWIDTH 6 0
BBX 5 7 0 -1
BITMAP
50
F0
50
B8
50
70
50
ENDCHAR
STARTCHAR $502a
ENCODING 14676
SWIDTH 822 0
DWIDTH 6 0
BBX 5 7 0 -1
BITMAP
10
60
F8
D8
50
F8
20
ENDCHAR
STARTCHAR $327d
ENCODING 14677
SWIDTH 822 0
DWIDTH 6 0
BBX 5 7 0 -1
BITMAP
78
E8
78
40
F8
58
E8
ENDCHAR
STARTCHAR $3278
ENCODING 14678
SWIDTH 822 0
DWIDTH 6 0
BBX 5 7 0 -1
BITMAP
78
E8
D0
68
78
50
78
ENDCHAR
STARTCHAR $343d
ENCODING 14679
SWIDTH 822 0
DWIDTH 6 0
BBX 5 7 0 -1
BITMAP
50
F8
68
D8
D0
58
58
ENDCHAR
STARTCHAR $3431
ENCODING 14681
SWIDTH 822 0
DWIDTH 6 0
BBX 5 7 0 -1
BITMAP
20
F8
88
70
70
48
78
ENDCHAR
STARTCHAR $3427
ENCODING 14682
SWIDTH 822 0
DWIDTH 6 0
BBX 5 7 0 -1
BITMAP
F8
88
60
18
E8
58
B8
ENDCHAR
STARTCHAR $3449
ENCODING 14684
SWIDTH 822 0
DWIDTH 6 0
BBX 5 7 0 -1
BITMAP
90
D8
48
F8
E8
70
70
ENDCHAR
STARTCHAR $6625
ENCODING 14686
SWIDTH 822 0
DWIDTH 6 0
BBX 5 7 0 -1
BITMAP
A8
F8
68
C0
58
F0
F8
ENDCHAR
STARTCHAR $5e75
ENCODING 14688
SWIDTH 822 0
DWIDTH 6 0
BBX 5 7 0 -1
BITMAP
A8
78
E8
00
B8
F0
B8
ENDCHAR
STARTCHAR $3877
ENCODING 14690
SWIDTH 822 0
DWIDTH 6 0
BBX 5 7 0 -1
BITMAP
20
A8
20
F8
50
50
98
ENDCHAR
STARTCHAR $5678
ENCODING 14691
SWIDTH 822 0
DWIDTH 6 0
BBX 5 7 0 -1
BITMAP
10
78
40
40
40
40
80
ENDCHAR
STARTCHAR $6073
ENCODING 14693
SWIDTH 822 0
DWIDTH 6 0
BBX 5 7 0 -1
BITMAP
10
F8
78
F8
50
D0
28
ENDCHAR
STARTCHAR $373d
ENCODING 14695
SWIDTH 822 0
DWIDTH 6 0
BBX 5 7 0 -1
BITMAP
20
70
20
F8
70
20
F8
ENDCHAR
STARTCHAR $626b
ENCODING 14696
SWIDTH 822 0
DWIDTH 6 0
BBX 5 7 0 -1
BITMAP
D0
78
50
B8
50
50
38
ENDCHAR
STARTCHAR $3534
ENCODING 14701
SWIDTH 822 0
DWIDTH 6 0
BBX 5 7 0 -1
BITMAP
20
F8
A8
F8
A8
70
98
ENDCHAR
STARTCHAR $6223
ENCODING 14703
SWIDTH 822 0
DWIDTH 6 0
BBX 5 7 0 -1
BITMAP
E8
50
88
70
F8
20
D8
ENDCHAR
STARTCHAR $374b
ENCODING 14704
SWIDTH 822 0
DWIDTH 6 0
BBX 5 7 0 -1
BITMAP
50
F8
50
F8
D0
50
78
ENDCHAR
STARTCHAR $6c6e
ENCODING 14706
SWIDTH 822 0
DWIDTH 6 0
BBX 5 7 0 -1
BITMAP
D8
E8
D0
78
E8
E0
D8
ENDCHAR
STARTCHAR $5b7e
ENCODING 14711
SWIDTH 822 0
DWIDTH 6 0
BBX 5 7 0 -1
BITMAP
78
E8
78
F0
F8
70
78
ENDCHAR
STARTCHAR $3354
ENCODING 14713
SWIDTH 822 0
DWIDTH 6 0
BBX 5 7 0 -1
BITMAP
58
F8
B0
F8
58
F0
50
ENDCHAR
STARTCHAR $3971
ENCODING 14714
SWIDTH 822 0
DWIDTH 6 0
BBX 5 7 0 -1
BITMAP
F8
F8
A8
F8
A8
F8
F8
ENDCHAR
STARTCHAR $324c
ENCODING 14715
SWIDTH 822 0
DWIDTH 6 0
BBX 5 7 0 -1
BITMAP
F8
A8
F8
20
F8
70
A8
ENDCHAR
STARTCHAR $6a67
ENCODING 14716
SWIDTH 822 0
DWIDTH 6 0
BBX 5 7 0 -1
BITMAP
20
F8
70
F8
20
D0
68
ENDCHAR
STARTCHAR $527d
ENCODING 14718
SWIDTH 822 0
DWIDTH 6 0
BBX 5 7 0 -1
BITMAP
10
E8
D8
C0
F8
28
38
ENDCHAR
STARTCHAR $333c
ENCODING 14881
SWIDTH 822 0
DWIDTH 6 0
BBX 5 7 0 -1
BITMAP
68
78
E8
90
68
70
68
ENDCHAR
STARTCHAR $5558
ENCODING 14882
SWIDTH 822 0
DWIDTH 6 0
BBX 5 7 0 -1
BITMAP
D0
78
A0
50
E8
50
E8
ENDCHAR
STARTCHAR $3324
ENCODING 14883
SWIDTH 822 0
DWIDTH 6 0
BBX 5 7 0 -1
BITMAP
A0
38
98
18
A8
B8
88
ENDCHAR
STARTCHAR $3067
ENCODING 14885
SWIDTH 822 0
DWIDTH 6 0
BBX 5 7 0 -1
BITMAP
20
F8
40
A8
50
30
C8
ENDCHAR
STARTCHAR $3332
ENCODING 14886
SWIDTH 822 0
DWIDTH 6 0
BBX 5 7 0 -1
BITMAP
20
F8
A8
70
20
F8
70
ENDCHAR
STARTCHAR $6e47
ENCODING 14888
SWIDTH 822 0
DWIDTH 6 0
BBX 5 7 0 -1
BITMAP
E8
78
E8
F8
A8
E8
F8
ENDCHAR
STARTCHAR $6e38
ENCODING 14890
SWIDTH 822 0
DWIDTH 6 0
BBX 5 7 0 -1
BITMAP
58
F8
50
78
58
50
70
ENDCHAR
STARTCHAR $345e
ENCODING 14892
SWIDTH 822 0
DWIDTH 6 0
BBX 5 7 0 -1
BITMAP
20
50
F8
10
70
50
70
ENDCHAR
STARTCHAR $5e3e
ENCODING 14893
SWIDTH 822 0
DWIDTH 6 0
BBX 5 7 0 -1
BITMAP
B8
30
90
38
B8
B8
B8
ENDCHAR
STARTCHAR $3428
ENCODING 14894
SWIDTH 822 0
DWIDTH 6 0
BBX 5 7 0 -1
BITMAP
20
F8
A8
70
70
88
20
ENDCHAR
STARTCHAR $4821
ENCODING 14895
SWIDTH 822 0
DWIDTH 6 0
BBX 5 7 0 -1
BITMAP
F8
60
A8
F8
F8
A8
F8
ENDCHAR
STARTCHAR $533f
ENCODING 14896
SWIDTH 822 0
DWIDTH 6 0
BBX 5 7 0 -1
BITMAP
10
F8
D0
F0
D8
70
A8
ENDCHAR
STARTCHAR $6627
ENCODING 14897
SWIDTH 822 0
DWIDTH 6 0
BBX 5 7 0 -1
BITMAP
F8
D8
00
70
20
F8
20
ENDCHAR
STARTCHAR $344d
ENCODING 14898
SWIDTH 822 0
DWIDTH 6 0
BBX 5 7 0 -1
BITMAP
D0
68
C0
F8
68
D8
68
ENDCHAR
STARTCHAR $597e
ENCODING 14899
SWIDTH 822 0
DWIDTH 6 0
BBX 5 7 0 -1
BITMAP
50
F8
70
68
C0
68
D8
ENDCHAR
STARTCHAR $5952
ENCODING 14900
SWIDTH 822 0
DWIDTH 6 0
BBX 5 7 0 -1
BITMAP
58
D8
40
78
D0
78
D0
ENDCHAR
STARTCHAR $5a5d
ENCODING 14901
SWIDTH 822 0
DWIDTH 6 0
BBX 5 7 0 -1
BITMAP
70
50
70
F8
20
F8
20
ENDCHAR
STARTCHAR $3438
ENCODING 14902
SWIDTH 822 0
DWIDTH 6 0
BBX 5 7 0 -1
BITMAP
50
F8
F0
68
40
68
58
ENDCHAR
STARTCHAR $577b
ENCODING 14903
SWIDTH 822 0
DWIDTH 6 0
BBX 5 7 0 -1
BITMAP
58
D8
C0
78
50
78
50
ENDCHAR
STARTCHAR $3440
ENCODING 14905
SWIDTH 822 0
DWIDTH 6 0
BBX 5 7 0 -1
BITMAP
B8
10
90
38
90
90
90
ENDCHAR
STARTCHAR $393a
ENCODING 14908
SWIDTH 822 0
DWIDTH 6 0
BBX 5 7 0 -1
BITMAP
50
F8
40
F8
E8
68
48
ENDCHAR
STARTCHAR $3952
ENCODING 14909
SWIDTH 822 0
DWIDTH 6 0
BBX 5 7 0 -1
BITMAP
50
F8
C0
F8
E8
E8
C8
ENDCHAR
STARTCHAR $3968
ENCODING 14910
SWIDTH 822 0
DWIDTH 6 0
BBX 5 7 0 -1
BITMAP
50
78
E8
78
70
D8
30
ENDCHAR
STARTCHAR $396b
ENCODING 14912
SWIDTH 822 0
DWIDTH 6 0
BBX 5 7 0 -1
BITMAP
20
F8
50
F8
68
B0
68
ENDCHAR
STARTCHAR $5d5d
ENCODING 14913
SWIDTH 822 0
DWIDTH 6 0
BBX 5 7 0 -1
BITMAP
20
F8
50
F8
B8
60
38
ENDCHAR
STARTCHAR $3925
ENCODING 14915
SWIDTH 822 0
DWIDTH 6 0
BBX 5 7 0 -1
BITMAP
B8
88
D0
F8
D0
50
B0
ENDCHAR
STARTCHAR $4c57
ENCODING 14916
SWIDTH 822 0
DWIDTH 6 0
BBX 5 7 0 -1
BITMAP
48
F0
58
F0
58
F0
58
ENDCHAR
STARTCHAR $3966
ENCODING 14917
SWIDTH 822 0
DWIDTH 6 0
BBX 5 7 0 -1
BITMAP
70
50
F8
40
70
10
30
ENDCHAR
STARTCHAR $3940
ENCODING 14918
SWIDTH 822 0
DWIDTH 6 0
BBX 5 7 0 -1
BITMAP
B0
38
D0
38
80
B8
B8
ENDCHAR
STARTCHAR $526a
ENCODING 14919
SWIDTH 822 0
DWIDTH 6 0
BBX 5 7 0 -1
BITMAP
38
C8
F8
E8
F8
08
18
ENDCHAR
STARTCHAR $3365
ENCODING 14920
SWIDTH 822 0
DWIDTH 6 0
BBX 5 7 0 -1
BITMAP
18
D8
C0
D8
E8
38
08
ENDCHAR
STARTCHAR $3259
ENCODING 14921
SWIDTH 822 0
DWIDTH 6 0
BBX 5 7 0 -1
BITMAP
50
F8
50
78
C8
68
68
ENDCHAR
STARTCHAR $334b
ENCODING 14923
SWIDTH 822 0
DWIDTH 6 0
BBX 5 7 0 -1
BITMAP
50
F8
60
D0
E8
50
68
ENDCHAR
STARTCHAR $3253
ENCODING 14924
SWIDTH 822 0
DWIDTH 6 0
BBX 5 7 0 -1
BITMAP
10
60
F8
20
70
A8
20
ENDCHAR
STARTCHAR $4f42
ENCODING 14925
SWIDTH 822 0
DWIDTH 6 0
BBX 5 7 0 -1
BITMAP
E0
58
F8
58
F8
D8
40
ENDCHAR
STARTCHAR $323f
ENCODING 14926
SWIDTH 822 0
DWIDTH 6 0
BBX 5 7 0 -1
BITMAP
38
48
F8
68
78
48
58
ENDCHAR
STARTCHAR $3967
ENCODING 14927
SWIDTH 822 0
DWIDTH 6 0
BBX 5 7 0 -1
BITMAP
20
50
B8
00
70
50
70
ENDCHAR
STARTCHAR $6236
ENCODING 14928
SWIDTH 822 0
DWIDTH 6 0
BBX 5 7 0 -1
BITMAP
20
50
F8
70
00
70
F8
ENDCHAR
STARTCHAR $6c3b
ENCODING 14929
SWIDTH 822 0
DWIDTH 6 0
BBX 5 7 0 -1
BITMAP
38
E8
50
A8
60
B8
58
ENDCHAR
STARTCHAR $324f
ENCODING 14931
SWIDTH 822 0
DWIDTH 6 0
BBX 5 7 0 -1
BITMAP
B8
08
B8
28
B8
88
98
ENDCHAR
STARTCHAR $5e41
ENCODING 14932
SWIDTH 822 0
DWIDTH 6 0
BBX 5 7 0 -1
BITMAP
F8
58
F8
58
E8
F8
F8
ENDCHAR
STARTCHAR $3352
ENCODING 14933
SWIDTH 822 0
DWIDTH 6 0
BBX 5 7 0 -1
BITMAP
50
F8
50
F8
D8
58
A8
ENDCHAR
STARTCHAR $336c
ENCODING 14934
SWIDTH 822 0
DWIDTH 6 0
BBX 5 7 0 -1
BITMAP
58
D8
40
98
68
78
48
ENDCHAR
STARTCHAR $3a2f
ENCODING 14939
SWIDTH 822 0
DWIDTH 6 0
BBX 5 7 0 -1
BITMAP
10
78
F0
70
E8
70
A8
ENDCHAR
STARTCHAR $574c
ENCODING 14940
SWIDTH 822 0
DWIDTH 6 0
BBX 5 7 0 -1
BITMAP
78
A8
78
E0
68
70
68
ENDCHAR
STARTCHAR $6043
ENCODING 14941
SWIDTH 822 0
DWIDTH 6 0
BBX 5 7 0 -1
BITMAP
B8
68
F8
60
E8
70
A8
ENDCHAR
STARTCHAR $3a28
ENCODING 14942
SWIDTH 822 0
DWIDTH 6 0
BBX 5 7 0 -1
BITMAP
78
E8
F8
60
68
70
68
ENDCHAR
STARTCHAR $357c
ENCODING 14944
SWIDTH 822 0
DWIDTH 6 0
BBX 5 7 0 -1
BITMAP
20
F8
50
70
10
20
60
ENDCHAR
STARTCHAR $3223
ENCODING 14945
SWIDTH 822 0
DWIDTH 6 0
BBX 5 7 0 -1
BITMAP
68
F8
68
F8
D8
40
68
ENDCHAR
STARTCHAR $3955
ENCODING 14946
SWIDTH 822 0
DWIDTH 6 0
BBX 5 7 0 -1
BITMAP
48
B0
58
F8
78
58
68
ENDCHAR
STARTCHAR $3931
ENCODING 14947
SWIDTH 822 0
DWIDTH 6 0
BBX 5 7 0 -1
BITMAP
78
C0
D8
58
58
40
78
ENDCHAR
STARTCHAR $527c
ENCODING 14949
SWIDTH 822 0
DWIDTH 6 0
BBX 5 7 0 -1
BITMAP
28
F8
E8
E8
F8
00
28
ENDCHAR
STARTCHAR $467a
ENCODING 14951
SWIDTH 822 0
DWIDTH 6 0
BBX 5 7 0 -1
BITMAP
40
F8
B0
F0
50
50
F8
ENDCHAR
STARTCHAR $393f
ENCODING 14953
SWIDTH 822 0
DWIDTH 6 0
BBX 5 7 0 -1
BITMAP
A8
78
A8
28
F8
80
A8
ENDCHAR
STARTCHAR $3928
ENCODING 14954
SWIDTH 822 0
DWIDTH 6 0
BBX 5 7 0 -1
BITMAP
20
F8
A8
F0
40
90
38
ENDCHAR
STARTCHAR $3930
ENCODING 14955
SWIDTH 822 0
DWIDTH 6 0
BBX 5 7 0 -1
BITMAP
D0
50
D0
90
E0
68
F8
ENDCHAR
STARTCHAR $3922
ENCODING 14957
SWIDTH 822 0
DWIDTH 6 0
BBX 5 7 0 -1
BITMAP
58
C8
F8
D0
F8
50
68
ENDCHAR
STARTCHAR $3874
ENCODING 14958
SWIDTH 822 0
DWIDTH 6 0
BBX 5 7 0 -1
BITMAP
58
48
F8
D0
78
50
68
ENDCHAR
STARTCHAR $604d
ENCODING 14959
SWIDTH 822 0
DWIDTH 6 0
BBX 5 7 0 -1
BITMAP
98
48
F8
50
F8
50
A8
ENDCHAR
STARTCHAR $5263
ENCODING 14960
SWIDTH 822 0
DWIDTH 6 0
BBX 5 7 0 -1
BITMAP
30
D0
F0
D0
F0
30
78
ENDCHAR
STARTCHAR $387c
ENCODING 14961
SWIDTH 822 0
DWIDTH 6 0
BBX 5 7 0 -1
BITMAP
F8
B0
B0
90
F8
90
B0
ENDCHAR
STARTCHAR $3875
ENCODING 14962
SWIDTH 822 0
DWIDTH 6 0
BBX 5 7 0 -1
BITMAP
58
48
F8
F0
78
50
68
ENDCHAR
STARTCHAR $3921
ENCODING 14963
SWIDTH 822 0
DWIDTH 6 0
BBX 5 7 0 -1
BITMAP
08
70
40
78
40
58
98
ENDCHAR
STARTCHAR $3846
ENCODING 14964
SWIDTH 822 0
DWIDTH 6 0
BBX 5 7 0 -1
BITMAP
08
F0
D8
D0
F8
10
30
ENDCHAR
STARTCHAR $3843
ENCODING 14965
SWIDTH 822 0
DWIDTH 6 0
BBX 5 7 0 -1
BITMAP
18
E0
A8
20
F8
20
60
ENDCHAR
STARTCHAR $397a
ENCODING 14966
SWIDTH 822 0
DWIDTH 6 0
BBX 5 7 0 -1
BITMAP
40
78
A8
28
50
C8
B8
ENDCHAR
STARTCHAR $386a
ENCODING 14967
SWIDTH 822 0
DWIDTH 6 0
BBX 5 7 0 -1
BITMAP
38
F8
78
F8
58
F8
18
ENDCHAR
STARTCHAR $6859
ENCODING 14969
SWIDTH 822 0
DWIDTH 6 0
BBX 5 7 0 -1
BITMAP
50
F8
78
E8
78
A8
E8
ENDCHAR
STARTCHAR $3855
ENCODING 14970
SWIDTH 822 0
DWIDTH 6 0
BBX 5 7 0 -1
BITMAP
78
E8
78
E8
B8
E8
28
ENDCHAR
STARTCHAR $697a
ENCODING 14971
SWIDTH 822 0
DWIDTH 6 0
BBX 5 7 0 -1
BITMAP
58
F8
F8
F8
58
78
D8
ENDCHAR
STARTCHAR $3851
ENCODING 14972
SWIDTH 822 0
DWIDTH 6 0
BBX 5 7 0 -1
BITMAP
88
70
E8
68
E8
78
A8
ENDCHAR
STARTCHAR $3852
ENCODING 14973
SWIDTH 822 0
DWIDTH 6 0
BBX 5 7 0 -1
BITMAP
B8
78
F8
78
D8
F8
58
ENDCHAR
STARTCHAR $3850
ENCODING 14974
SWIDTH 822 0
DWIDTH 6 0
BBX 5 7 0 -1
BITMAP
B8
78
B8
78
D8
F8
98
ENDCHAR
STARTCHAR $384c
ENCODING 15137
SWIDTH 822 0
DWIDTH 6 0
BBX 5 7 0 -1
BITMAP
C8
70
E8
A8
E8
78
E8
ENDCHAR
STARTCHAR $3857
ENCODING 15138
SWIDTH 822 0
DWIDTH 6 0
BBX 5 7 0 -1
BITMAP
20
38
E0
B8
80
B0
D8
ENDCHAR
STARTCHAR $385f
ENCODING 15141
SWIDTH 822 0
DWIDTH 6 0
BBX 5 7 0 -1
BITMAP
F8
20
30
50
60
20
F8
ENDCHAR
STARTCHAR $3256
ENCODING 15144
SWIDTH 822 0
DWIDTH 6 0
BBX 5 7 0 -1
BITMAP
50
F8
10
58
D0
50
58
ENDCHAR
STARTCHAR $6051
ENCODING 15147
SWIDTH 822 0
DWIDTH 6 0
BBX 5 7 0 -1
BITMAP
B0
70
F8
48
F0
70
B0
ENDCHAR
STARTCHAR $336a
ENCODING 15148
SWIDTH 822 0
DWIDTH 6 0
BBX 5 7 0 -1
BITMAP
B0
30
F8
48
B0
B0
B0
ENDCHAR
STARTCHAR $3268
ENCODING 15149
SWIDTH 822 0
DWIDTH 6 0
BBX 5 7 0 -1
BITMAP
F8
20
A8
B8
B8
88
F8
ENDCHAR
STARTCHAR $323d
ENCODING 15151
SWIDTH 822 0
DWIDTH 6 0
BBX 5 7 0 -1
BITMAP
30
50
D0
58
50
50
58
ENDCHAR
STARTCHAR $5c47
ENCODING 15153
SWIDTH 822 0
DWIDTH 6 0
BBX 5 7 0 -1
BITMAP
50
F8
78
F8
D0
50
68
ENDCHAR
STARTCHAR $574b
ENCODING 15154
SWIDTH 822 0
DWIDTH 6 0
BBX 5 7 0 -1
BITMAP
78
88
78
E8
78
48
78
ENDCHAR
STARTCHAR $5e4e
ENCODING 15156
SWIDTH 822 0
DWIDTH 6 0
BBX 5 7 0 -1
BITMAP
A8
38
B0
38
B0
B0
B8
ENDCHAR
STARTCHAR $542f
ENCODING 15157
SWIDTH 822 0
DWIDTH 6 0
BBX 5 7 0 -1
BITMAP
78
50
D0
68
50
D0
10
ENDCHAR
STARTCHAR $343c
ENCODING 15160
SWIDTH 822 0
DWIDTH 6 0
BBX 5 7 0 -1
BITMAP
78
C0
58
D8
D8
40
78
ENDCHAR
STARTCHAR $3435
ENCODING 15164
SWIDTH 822 0
DWIDTH 6 0
BBX 5 7 0 -1
BITMAP
20
70
70
F8
F8
48
B8
ENDCHAR
STARTCHAR $6c36
ENCODING 15167
SWIDTH 822 0
DWIDTH 6 0
BBX 5 7 0 -1
BITMAP
A8
20
70
A8
70
A8
60
ENDCHAR
STARTCHAR $5561
ENCODING 15170
SWIDTH 822 0
DWIDTH 6 0
BBX 5 7 0 -1
BITMAP
20
F8
E8
50
70
60
78
ENDCHAR
STARTCHAR $3838
ENCODING 15171
SWIDTH 822 0
DWIDTH 6 0
BBX 5 7 0 -1
BITMAP
40
58
88
48
A8
E8
10
ENDCHAR
STARTCHAR $3953
ENCODING 15172
SWIDTH 822 0
DWIDTH 6 0
BBX 5 7 0 -1
BITMAP
50
F8
40
70
00
68
A8
ENDCHAR
STARTCHAR $3932
ENCODING 15173
SWIDTH 822 0
DWIDTH 6 0
BBX 5 7 0 -1
BITMAP
68
F8
E0
78
40
68
68
ENDCHAR
STARTCHAR $322b
ENCODING 15174
SWIDTH 822 0
DWIDTH 6 0
BBX 5 7 0 -1
BITMAP
50
F8
50
F8
70
70
88
ENDCHAR
STARTCHAR $697b
ENCODING 15176
SWIDTH 822 0
DWIDTH 6 0
BBX 5 7 0 -1
BITMAP
50
F8
F8
C0
78
50
F8
ENDCHAR
STARTCHAR $6450
ENCODING 15177
SWIDTH 822 0
DWIDTH 6 0
BBX 5 7 0 -1
BITMAP
90
D8
50
F8
70
70
88
ENDCHAR
STARTCHAR $3944
ENCODING 15178
SWIDTH 822 0
DWIDTH 6 0
BBX 5 7 0 -1
BITMAP
20
70
50
70
F8
20
F8
ENDCHAR
STARTCHAR $5160
ENCODING 15179
SWIDTH 822 0
DWIDTH 6 0
BBX 5 7 0 -1
BITMAP
F8
A8
D8
F8
A8
F8
88
ENDCHAR
STARTCHAR $5835
ENCODING 15180
SWIDTH 822 0
DWIDTH 6 0
BBX 5 7 0 -1
BITMAP
50
F8
F8
40
78
50
78
ENDCHAR
STARTCHAR $5f6a
ENCODING 15181
SWIDTH 822 0
DWIDTH 6 0
BBX 5 7 0 -1
BITMAP
50
78
F8
C0
78
50
B8
ENDCHAR
STARTCHAR $3938
ENCODING 15182
SWIDTH 822 0
DWIDTH 6 0
BBX 5 7 0 -1
BITMAP
F8
F8
20
A8
F8
50
98
ENDCHAR
STARTCHAR $4b5a
ENCODING 15183
SWIDTH 822 0
DWIDTH 6 0
BBX 5 7 0 -1
BITMAP
58
D8
E8
D0
78
50
68
ENDCHAR
STARTCHAR $5772
ENCODING 15184
SWIDTH 822 0
DWIDTH 6 0
BBX 5 7 0 -1
BITMAP
68
D0
D0
78
50
50
68
ENDCHAR
STARTCHAR $3325
ENCODING 15186
SWIDTH 822 0
DWIDTH 6 0
BBX 5 7 0 -1
BITMAP
F8
90
D8
D0
90
90
A8
ENDCHAR
STARTCHAR $352b
ENCODING 15189
SWIDTH 822 0
DWIDTH 6 0
BBX 5 7 0 -1
BITMAP
70
B8
58
B8
58
70
68
ENDCHAR
STARTCHAR $327a
ENCODING 15190
SWIDTH 822 0
DWIDTH 6 0
BBX 5 7 0 -1
BITMAP
78
D0
F8
70
50
50
68
ENDCHAR
STARTCHAR $695c
ENCODING 15191
SWIDTH 822 0
DWIDTH 6 0
BBX 5 7 0 -1
BITMAP
78
C8
F8
E8
78
48
F8
ENDCHAR
STARTCHAR $3273
ENCODING 15192
SWIDTH 822 0
DWIDTH 6 0
BBX 5 7 0 -1
BITMAP
F8
88
F8
D8
F8
88
F8
ENDCHAR
STARTCHAR $3279
ENCODING 15194
SWIDTH 822 0
DWIDTH 6 0
BBX 5 7 0 -1
BITMAP
60
F8
D8
58
68
78
48
ENDCHAR
STARTCHAR $3745
ENCODING 15195
SWIDTH 822 0
DWIDTH 6 0
BBX 5 7 0 -1
BITMAP
48
D8
48
F8
70
C8
B8
ENDCHAR
STARTCHAR $5243
ENCODING 15196
SWIDTH 822 0
DWIDTH 6 0
BBX 5 7 0 -1
BITMAP
20
F8
20
50
F8
50
90
ENDCHAR
STARTCHAR $582a
ENCODING 15197
SWIDTH 822 0
DWIDTH 6 0
BBX 5 7 0 -1
BITMAP
20
F8
70
68
00
C8
B8
ENDCHAR
STARTCHAR $3322
ENCODING 15198
SWIDTH 822 0
DWIDTH 6 0
BBX 5 7 0 -1
BITMAP
20
F8
D8
D8
E8
F8
08
ENDCHAR
STARTCHAR $3271
ENCODING 15201
SWIDTH 822 0
DWIDTH 6 0
BBX 5 7 0 -1
BITMAP
20
50
B8
00
F8
50
E8
ENDCHAR
STARTCHAR $3a2a
ENCODING 15208
SWIDTH 822 0
DWIDTH 6 0
BBX 5 7 0 -1
BITMAP
F0
A0
F8
90
C8
70
70
ENDCHAR
STARTCHAR $3a27
ENCODING 15209
SWIDTH 822 0
DWIDTH 6 0
BBX 5 7 0 -1
BITMAP
B8
B0
F8
F0
E8
58
98
ENDCHAR
STARTCHAR $3a32
ENCODING 15210
SWIDTH 822 0
DWIDTH 6 0
BBX 5 7 0 -1
BITMAP
D0
38
F8
78
B0
D0
28
ENDCHAR
STARTCHAR $3a2e
ENCODING 15212
SWIDTH 822 0
DWIDTH 6 0
BBX 5 7 0 -1
BITMAP
B8
28
B8
30
B8
B0
B8
ENDCHAR
STARTCHAR $6c2f
ENCODING 15213
SWIDTH 822 0
DWIDTH 6 0
BBX 5 7 0 -1
BITMAP
68
C0
B0
68
C0
D8
D8
ENDCHAR
STARTCHAR $3368
ENCODING 15214
SWIDTH 822 0
DWIDTH 6 0
BBX 5 7 0 -1
BITMAP
B8
10
B8
10
B8
A8
B8
ENDCHAR
STARTCHAR $3250
ENCODING 15216
SWIDTH 822 0
DWIDTH 6 0
BBX 5 7 0 -1
BITMAP
20
68
70
A0
20
50
88
ENDCHAR
STARTCHAR $303f
ENCODING 15218
SWIDTH 822 0
DWIDTH 6 0
BBX 5 7 0 -1
BITMAP
10
F8
10
D0
D8
30
C8
ENDCHAR
STARTCHAR $4f47
ENCODING 15219
SWIDTH 822 0
DWIDTH 6 0
BBX 5 7 0 -1
BITMAP
10
F8
70
E8
00
C8
B8
ENDCHAR
STARTCHAR $7039
ENCODING 15220
SWIDTH 822 0
DWIDTH 6 0
BBX 5 7 0 -1
BITMAP
70
F8
A8
50
78
D0
78
ENDCHAR
STARTCHAR $3470
ENCODING 15225
SWIDTH 822 0
DWIDTH 6 0
BBX 5 7 0 -1
BITMAP
50
F8
50
F8
50
A8
70
ENDCHAR
STARTCHAR $3479
ENCODING 15226
SWIDTH 822 0
DWIDTH 6 0
BBX 5 7 0 -1
BITMAP
40
F8
68
E8
E8
68
48
ENDCHAR
STARTCHAR $6143
ENCODING 15227
SWIDTH 822 0
DWIDTH 6 0
BBX 5 7 0 -1
BITMAP
10
F8
D0
E8
F8
C8
28
ENDCHAR
STARTCHAR $374e
ENCODING 15228
SWIDTH 822 0
DWIDTH 6 0
BBX 5 7 0 -1
BITMAP
D0
78
D0
58
E0
F8
78
ENDCHAR
STARTCHAR $4c27
ENCODING 15230
SWIDTH 822 0
DWIDTH 6 0
BBX 5 7 0 -1
BITMAP
90
D8
48
F8
50
F8
88
ENDCHAR
STARTCHAR $4829
ENCODING 15393
SWIDTH 822 0
DWIDTH 6 0
BBX 5 7 0 -1
BITMAP
F8
A8
E8
A8
E8
A8
A8
ENDCHAR
STARTCHAR $6d71
ENCODING 15395
SWIDTH 822 0
DWIDTH 6 0
BBX 5 7 0 -1
BITMAP
90
78
B0
78
B0
D0
F8
ENDCHAR
STARTCHAR $3763
ENCODING 15396
SWIDTH 822 0
DWIDTH 6 0
BBX 5 7 0 -1
BITMAP
B0
78
D8
78
B8
D0
A8
ENDCHAR
STARTCHAR $3548
ENCODING 15402
SWIDTH 822 0
DWIDTH 6 0
BBX 5 7 0 -1
BITMAP
20
F8
20
70
00
70
70
ENDCHAR
STARTCHAR $5b79
ENCODING 15404
SWIDTH 822 0
DWIDTH 6 0
BBX 5 7 0 -1
BITMAP
50
F8
50
F8
A8
50
50
ENDCHAR
STARTCHAR $4052
ENCODING 15406
SWIDTH 822 0
DWIDTH 6 0
BBX 5 7 0 -1
BITMAP
90
D8
48
F8
50
F8
58
ENDCHAR
STARTCHAR $3d38
ENCODING 15407
SWIDTH 822 0
DWIDTH 6 0
BBX 5 7 0 -1
BITMAP
50
78
D0
78
F8
70
A8
ENDCHAR
STARTCHAR $355a
ENCODING 15408
SWIDTH 822 0
DWIDTH 6 0
BBX 5 7 0 -1
BITMAP
F0
50
58
48
68
50
A8
ENDCHAR
STARTCHAR $355e
ENCODING 15409
SWIDTH 822 0
DWIDTH 6 0
BBX 5 7 0 -1
BITMAP
30
D0
70
10
70
C8
B8
ENDCHAR
STARTCHAR $3c40
ENCODING 15410
SWIDTH 822 0
DWIDTH 6 0
BBX 5 7 0 -1
BITMAP
10
78
C0
60
F8
50
A8
ENDCHAR
STARTCHAR $3562
ENCODING 15411
SWIDTH 822 0
DWIDTH 6 0
BBX 5 7 0 -1
BITMAP
F0
50
D8
48
E8
D0
A8
ENDCHAR
STARTCHAR $4228
ENCODING 15412
SWIDTH 822 0
DWIDTH 6 0
BBX 5 7 0 -1
BITMAP
D8
D8
D8
D8
98
B0
D0
ENDCHAR
STARTCHAR $3c3b
ENCODING 15413
SWIDTH 822 0
DWIDTH 6 0
BBX 5 7 0 -1
BITMAP
90
F8
C0
E0
F8
50
A8
ENDCHAR
STARTCHAR $515c
ENCODING 15416
SWIDTH 822 0
DWIDTH 6 0
BBX 5 7 0 -1
BITMAP
70
50
50
50
50
50
98
ENDCHAR
STARTCHAR $4054
ENCODING 15417
SWIDTH 822 0
DWIDTH 6 0
BBX 5 7 0 -1
BITMAP
A8
20
A8
70
D8
70
50
ENDCHAR
STARTCHAR $384a
ENCODING 15418
SWIDTH 822 0
DWIDTH 6 0
BBX 5 7 0 -1
BITMAP
F0
10
10
F0
80
88
78
ENDCHAR
STARTCHAR $353b
ENCODING 15420
SWIDTH 822 0
DWIDTH 6 0
BBX 5 7 0 -1
BITMAP
50
F8
50
78
E8
50
E8
ENDCHAR
STARTCHAR $5143
ENCODING 15421
SWIDTH 822 0
DWIDTH 6 0
BBX 5 7 0 -1
BITMAP
50
D8
50
F8
70
F8
88
ENDCHAR
STARTCHAR $3528
ENCODING 15422
SWIDTH 822 0
DWIDTH 6 0
BBX 5 7 0 -1
BITMAP
70
F8
50
B8
10
F8
20
ENDCHAR
STARTCHAR $346c
ENCODING 15423
SWIDTH 822 0
DWIDTH 6 0
BBX 5 7 0 -1
BITMAP
50
78
D0
F8
68
50
68
ENDCHAR
STARTCHAR $3a57
ENCODING 15424
SWIDTH 822 0
DWIDTH 6 0
BBX 5 7 0 -1
BITMAP
78
A8
50
88
70
20
A8
ENDCHAR
STARTCHAR $5829
ENCODING 15426
SWIDTH 822 0
DWIDTH 6 0
BBX 5 7 0 -1
BITMAP
58
F8
D0
68
50
78
50
ENDCHAR
STARTCHAR $3473
ENCODING 15428
SWIDTH 822 0
DWIDTH 6 0
BBX 5 7 0 -1
BITMAP
20
F8
A8
50
F8
10
50
ENDCHAR
STARTCHAR $3c64
ENCODING 15429
SWIDTH 822 0
DWIDTH 6 0
BBX 5 7 0 -1
BITMAP
20
F8
88
58
68
D0
68
ENDCHAR
STARTCHAR $347b
ENCODING 15432
SWIDTH 822 0
DWIDTH 6 0
BBX 5 7 0 -1
BITMAP
38
D8
D8
F8
90
D0
28
ENDCHAR
STARTCHAR $3477
ENCODING 15433
SWIDTH 822 0
DWIDTH 6 0
BBX 5 7 0 -1
BITMAP
70
10
70
40
70
C8
B8
ENDCHAR
STARTCHAR $3538
ENCODING 15435
SWIDTH 822 0
DWIDTH 6 0
BBX 5 7 0 -1
BITMAP
90
B8
D0
F8
E8
50
A8
ENDCHAR
STARTCHAR $3245
ENCODING 15438
SWIDTH 822 0
DWIDTH 6 0
BBX 5 7 0 -1
BITMAP
20
F8
70
50
F8
68
B8
ENDCHAR
STARTCHAR $5b48
ENCODING 15439
SWIDTH 822 0
DWIDTH 6 0
BBX 5 7 0 -1
BITMAP
50
F8
58
D8
F8
78
58
ENDCHAR
STARTCHAR $3242
ENCODING 15441
SWIDTH 822 0
DWIDTH 6 0
BBX 5 7 0 -1
BITMAP
50
78
D0
F8
50
50
78
ENDCHAR
STARTCHAR $3248
ENCODING 15442
SWIDTH 822 0
DWIDTH 6 0
BBX 5 7 0 -1
BITMAP
20
F8
88
70
68
B0
68
ENDCHAR
STARTCHAR $3243
ENCODING 15443
SWIDTH 822 0
DWIDTH 6 0
BBX 5 7 0 -1
BITMAP
40
F8
68
68
68
A8
B8
ENDCHAR
STARTCHAR $3943
ENCODING 15447
SWIDTH 822 0
DWIDTH 6 0
BBX 5 7 0 -1
BITMAP
F8
A8
F8
A8
F8
20
20
ENDCHAR
STARTCHAR $5071
ENCODING 15449
SWIDTH 822 0
DWIDTH 6 0
BBX 5 7 0 -1
BITMAP
78
68
C8
F8
68
50
68
ENDCHAR
STARTCHAR $3254
ENCODING 15450
SWIDTH 822 0
DWIDTH 6 0
BBX 5 7 0 -1
BITMAP
D0
78
E8
50
E8
D8
68
ENDCHAR
STARTCHAR $5043
ENCODING 15451
SWIDTH 822 0
DWIDTH 6 0
BBX 5 7 0 -1
BITMAP
50
68
C0
E8
68
68
48
ENDCHAR
STARTCHAR $324d
ENCODING 15452
SWIDTH 822 0
DWIDTH 6 0
BBX 5 7 0 -1
BITMAP
40
F8
68
B8
F8
70
A8
ENDCHAR
STARTCHAR $3247
ENCODING 15454
SWIDTH 822 0
DWIDTH 6 0
BBX 5 7 0 -1
BITMAP
90
B8
E8
D0
E8
58
A8
ENDCHAR
STARTCHAR $406d
ENCODING 15458
SWIDTH 822 0
DWIDTH 6 0
BBX 5 7 0 -1
BITMAP
20
A8
A8
60
F8
20
D8
ENDCHAR
STARTCHAR $4079
ENCODING 15461
SWIDTH 822 0
DWIDTH 6 0
BBX 5 7 0 -1
BITMAP
50
F8
A8
E8
A8
00
A8
ENDCHAR
STARTCHAR $3773
ENCODING 15462
SWIDTH 822 0
DWIDTH 6 0
BBX 5 7 0 -1
BITMAP
50
F8
30
F8
38
70
A8
ENDCHAR
STARTCHAR $382a
ENCODING 15463
SWIDTH 822 0
DWIDTH 6 0
BBX 5 7 0 -1
BITMAP
F8
70
40
78
68
B8
28
ENDCHAR
STARTCHAR $5521
ENCODING 15465
SWIDTH 822 0
DWIDTH 6 0
BBX 5 7 0 -1
BITMAP
B8
90
D0
F8
D0
50
90
ENDCHAR
STARTCHAR $5b4b
ENCODING 15469
SWIDTH 822 0
DWIDTH 6 0
BBX 5 7 0 -1
BITMAP
20
F8
78
68
78
70
A8
ENDCHAR
STARTCHAR $5172
ENCODING 15476
SWIDTH 822 0
DWIDTH 6 0
BBX 5 7 0 -1
BITMAP
50
F8
68
68
F8
28
D8
ENDCHAR
STARTCHAR $6828
ENCODING 15478
SWIDTH 822 0
DWIDTH 6 0
BBX 5 7 0 -1
BITMAP
50
F8
58
C8
D0
78
50
ENDCHAR
STARTCHAR $4129
ENCODING 15481
SWIDTH 822 0
DWIDTH 6 0
BBX 5 7 0 -1
BITMAP
D8
F0
D8
70
D8
D0
E8
ENDCHAR
STARTCHAR $407d
ENCODING 15485
SWIDTH 822 0
DWIDTH 6 0
BBX 5 7 0 -1
BITMAP
90
D8
48
F8
A8
E8
A8
ENDCHAR
STARTCHAR $376f
ENCODING 15486
SWIDTH 822 0
DWIDTH 6 0
BBX 5 7 0 -1
BITMAP
70
78
D0
D0
78
50
50
ENDCHAR
STARTCHAR $3772
ENCODING 15649
SWIDTH 822 0
DWIDTH 6 0
BBX 5 7 0 -1
BITMAP
48
78
D8
E8
58
68
78
ENDCHAR
STARTCHAR $377a
ENCODING 15656
SWIDTH 822 0
DWIDTH 6 0
BBX 5 7 0 -1
BITMAP
D0
78
B8
50
F8
50
B8
ENDCHAR
STARTCHAR $512c
ENCODING 15657
SWIDTH 822 0
DWIDTH 6 0
BBX 5 7 0 -1
BITMAP
78
58
C0
F8
58
40
78
ENDCHAR
STARTCHAR $552a
ENCODING 15658
SWIDTH 822 0
DWIDTH 6 0
BBX 5 7 0 -1
BITMAP
50
F8
70
20
F8
50
E8
ENDCHAR
STARTCHAR $3e2d
ENCODING 15659
SWIDTH 822 0
DWIDTH 6 0
BBX 5 7 0 -1
BITMAP
58
40
E8
40
F8
68
58
ENDCHAR
STARTCHAR $393e
ENCODING 15661
SWIDTH 822 0
DWIDTH 6 0
BBX 5 7 0 -1
BITMAP
80
38
90
10
90
90
B8
ENDCHAR
STARTCHAR $6145
ENCODING 15662
SWIDTH 822 0
DWIDTH 6 0
BBX 5 7 0 -1
BITMAP
F8
58
C0
B8
58
C0
F8
ENDCHAR
STARTCHAR $3e55
ENCODING 15663
SWIDTH 822 0
DWIDTH 6 0
BBX 5 7 0 -1
BITMAP
50
F8
68
D0
78
E8
58
ENDCHAR
STARTCHAR $3e22
ENCODING 15667
SWIDTH 822 0
DWIDTH 6 0
BBX 5 7 0 -1
BITMAP
F8
90
A0
B8
D0
90
F8
ENDCHAR
STARTCHAR $395f
ENCODING 15669
SWIDTH 822 0
DWIDTH 6 0
BBX 5 7 0 -1
BITMAP
D8
E8
90
E8
D0
B8
90
ENDCHAR
STARTCHAR $3e56
ENCODING 15670
SWIDTH 822 0
DWIDTH 6 0
BBX 5 7 0 -1
BITMAP
50
F8
70
D0
78
00
A8
ENDCHAR
STARTCHAR $5c25
ENCODING 15671
SWIDTH 822 0
DWIDTH 6 0
BBX 5 7 0 -1
BITMAP
58
E8
48
E8
D0
70
68
ENDCHAR
STARTCHAR $3e4c
ENCODING 15672
SWIDTH 822 0
DWIDTH 6 0
BBX 5 7 0 -1
BITMAP
E8
78
70
B0
78
40
28
ENDCHAR
STARTCHAR $3e47
ENCODING 15673
SWIDTH 822 0
DWIDTH 6 0
BBX 5 7 0 -1
BITMAP
50
78
F0
50
78
00
A8
ENDCHAR
STARTCHAR $3872
ENCODING 15675
SWIDTH 822 0
DWIDTH 6 0
BBX 5 7 0 -1
BITMAP
20
F8
50
88
50
20
D8
ENDCHAR
STARTCHAR $3959
ENCODING 15676
SWIDTH 822 0
DWIDTH 6 0
BBX 5 7 0 -1
BITMAP
58
F8
B0
18
B8
50
B0
ENDCHAR
STARTCHAR $5370
ENCODING 15680
SWIDTH 822 0
DWIDTH 6 0
BBX 5 7 0 -1
BITMAP
38
D0
F8
F8
C8
68
48
ENDCHAR
STARTCHAR $3553
ENCODING 15685
SWIDTH 822 0
DWIDTH 6 0
BBX 5 7 0 -1
BITMAP
D0
F8
D8
F8
D8
E8
B8
ENDCHAR
STARTCHAR $6044
ENCODING 15686
SWIDTH 822 0
DWIDTH 6 0
BBX 5 7 0 -1
BITMAP
90
78
E8
40
E8
50
A8
ENDCHAR
STARTCHAR $3351
ENCODING 15687
SWIDTH 822 0
DWIDTH 6 0
BBX 5 7 0 -1
BITMAP
30
D0
78
68
78
48
98
ENDCHAR
STARTCHAR $5176
ENCODING 15691
SWIDTH 822 0
DWIDTH 6 0
BBX 5 7 0 -1
BITMAP
58
A8
78
78
F8
78
A8
ENDCHAR
STARTCHAR $3635
ENCODING 15692
SWIDTH 822 0
DWIDTH 6 0
BBX 5 7 0 -1
BITMAP
50
F8
58
F8
58
B0
28
ENDCHAR
STARTCHAR $395a
ENCODING 15693
SWIDTH 822 0
DWIDTH 6 0
BBX 5 7 0 -1
BITMAP
D0
78
D0
D8
E8
D8
C8
ENDCHAR
STARTCHAR $362b
ENCODING 15696
SWIDTH 822 0
DWIDTH 6 0
BBX 5 7 0 -1
BITMAP
08
E8
A8
A8
E8
38
08
ENDCHAR
STARTCHAR $635c
ENCODING 15697
SWIDTH 822 0
DWIDTH 6 0
BBX 5 7 0 -1
BITMAP
20
F8
D8
70
A0
F8
70
ENDCHAR
STARTCHAR $405c
ENCODING 15699
SWIDTH 822 0
DWIDTH 6 0
BBX 5 7 0 -1
BITMAP
50
F8
68
78
E8
50
E8
ENDCHAR
STARTCHAR $3327
ENCODING 15700
SWIDTH 822 0
DWIDTH 6 0
BBX 5 7 0 -1
BITMAP
90
D8
90
D8
20
70
70
ENDCHAR
STARTCHAR $3339
ENCODING 15702
SWIDTH 822 0
DWIDTH 6 0
BBX 5 7 0 -1
BITMAP
58
B0
58
F8
58
78
48
ENDCHAR
STARTCHAR $5923
ENCODING 15704
SWIDTH 822 0
DWIDTH 6 0
BBX 5 7 0 -1
BITMAP
58
F0
50
F8
70
D0
E8
ENDCHAR
STARTCHAR $3965
ENCODING 15705
SWIDTH 822 0
DWIDTH 6 0
BBX 5 7 0 -1
BITMAP
50
F8
58
F8
58
A8
E8
ENDCHAR
STARTCHAR $354b
ENCODING 15707
SWIDTH 822 0
DWIDTH 6 0
BBX 5 7 0 -1
BITMAP
50
F8
50
F8
C0
58
58
ENDCHAR
STARTCHAR $5b3f
ENCODING 15708
SWIDTH 822 0
DWIDTH 6 0
BBX 5 7 0 -1
BITMAP
20
F8
20
70
A8
00
A8
ENDCHAR
STARTCHAR $3e39
ENCODING 15709
SWIDTH 822 0
DWIDTH 6 0
BBX 5 7 0 -1
BITMAP
50
F8
58
70
D8
70
D8
ENDCHAR
STARTCHAR $624c
ENCODING 15710
SWIDTH 822 0
DWIDTH 6 0
BBX 5 7 0 -1
BITMAP
D0
F8
D8
F0
D8
F0
D8
ENDCHAR
STARTCHAR $6371
ENCODING 15711
SWIDTH 822 0
DWIDTH 6 0
BBX 5 7 0 -1
BITMAP
58
F8
A0
B8
68
F8
08
ENDCHAR
STARTCHAR $3272
ENCODING 15714
SWIDTH 822 0
DWIDTH 6 0
BBX 5 7 0 -1
BITMAP
78
A8
60
78
68
78
A8
ENDCHAR
STARTCHAR $3039
ENCODING 15715
SWIDTH 822 0
DWIDTH 6 0
BBX 5 7 0 -1
BITMAP
B8
A8
F8
E8
F8
68
B8
ENDCHAR
STARTCHAR $327c
ENCODING 15716
SWIDTH 822 0
DWIDTH 6 0
BBX 5 7 0 -1
BITMAP
10
F8
10
B0
F8
B0
A8
ENDCHAR
STARTCHAR $6934
ENCODING 15717
SWIDTH 822 0
DWIDTH 6 0
BBX 5 7 0 -1
BITMAP
50
F8
78
D0
68
D8
58
ENDCHAR
STARTCHAR $3329
ENCODING 15718
SWIDTH 822 0
DWIDTH 6 0
BBX 5 7 0 -1
BITMAP
50
F8
20
50
D8
50
90
ENDCHAR
STARTCHAR $3326
ENCODING 15719
SWIDTH 822 0
DWIDTH 6 0
BBX 5 7 0 -1
BITMAP
F8
A8
F8
50
D8
50
90
ENDCHAR
STARTCHAR $3c5a
ENCODING 15720
SWIDTH 822 0
DWIDTH 6 0
BBX 5 7 0 -1
BITMAP
68
78
E8
F8
40
58
58
ENDCHAR
STARTCHAR $3270
ENCODING 15721
SWIDTH 822 0
DWIDTH 6 0
BBX 5 7 0 -1
BITMAP
20
50
88
50
50
50
90
ENDCHAR
STARTCHAR $614e
ENCODING 15722
SWIDTH 822 0
DWIDTH 6 0
BBX 5 7 0 -1
BITMAP
10
78
D0
68
C0
68
A8
ENDCHAR
STARTCHAR $464f
ENCODING 15724
SWIDTH 822 0
DWIDTH 6 0
BBX 5 7 0 -1
BITMAP
F8
88
F8
A0
F8
A8
F8
ENDCHAR
STARTCHAR $3652
ENCODING 15725
SWIDTH 822 0
DWIDTH 6 0
BBX 5 7 0 -1
BITMAP
20
F8
A8
A8
A8
20
20
ENDCHAR
STARTCHAR $365a
ENCODING 15726
SWIDTH 822 0
DWIDTH 6 0
BBX 5 7 0 -1
BITMAP
90
D8
48
D0
F8
D8
E8
ENDCHAR
STARTCHAR $3654
ENCODING 15727
SWIDTH 822 0
DWIDTH 6 0
BBX 5 7 0 -1
BITMAP
10
60
40
78
50
50
90
ENDCHAR
STARTCHAR $3662
ENCODING 15728
SWIDTH 822 0
DWIDTH 6 0
BBX 5 7 0 -1
BITMAP
20
50
F8
20
F8
70
F8
ENDCHAR
STARTCHAR $3a23
ENCODING 15729
SWIDTH 822 0
DWIDTH 6 0
BBX 5 7 0 -1
BITMAP
20
50
B8
00
F8
10
60
ENDCHAR
STARTCHAR $4445
ENCODING 15730
SWIDTH 822 0
DWIDTH 6 0
BBX 5 7 0 -1
BITMAP
90
38
98
38
90
B8
90
ENDCHAR
STARTCHAR $365f
ENCODING 15731
SWIDTH 822 0
DWIDTH 6 0
BBX 5 7 0 -1
BITMAP
48
D8
48
B8
50
78
50
ENDCHAR
STARTCHAR $3f38
ENCODING 15738
SWIDTH 822 0
DWIDTH 6 0
BBX 5 7 0 -1
BITMAP
F8
50
D8
50
F8
50
70
ENDCHAR
STARTCHAR $3658
ENCODING 15739
SWIDTH 822 0
DWIDTH 6 0
BBX 5 7 0 -1
BITMAP
48
D8
48
70
F8
20
A8
ENDCHAR
STARTCHAR $3661
ENCODING 15740
SWIDTH 822 0
DWIDTH 6 0
BBX 5 7 0 -1
BITMAP
88
30
20
B8
D0
90
F8
ENDCHAR
STARTCHAR $3f3b
ENCODING 15742
SWIDTH 822 0
DWIDTH 6 0
BBX 5 7 0 -1
BITMAP
B0
10
B0
78
E8
90
E8
ENDCHAR
STARTCHAR $3f54
ENCODING 15905
SWIDTH 822 0
DWIDTH 6 0
BBX 5 7 0 -1
BITMAP
78
48
78
50
A8
00
30
ENDCHAR
STARTCHAR $513e
ENCODING 15908
SWIDTH 822 0
DWIDTH 6 0
BBX 5 7 0 -1
BITMAP
50
F8
50
A8
F8
50
A8
ENDCHAR
STARTCHAR $3754
ENCODING 15909
SWIDTH 822 0
DWIDTH 6 0
BBX 5 7 0 -1
BITMAP
50
F8
50
20
D8
20
F8
ENDCHAR
STARTCHAR $624d
ENCODING 15910
SWIDTH 822 0
DWIDTH 6 0
BBX 5 7 0 -1
BITMAP
D0
F8
D0
F8
F8
E8
E8
ENDCHAR
STARTCHAR $3e3d
ENCODING 15911
SWIDTH 822 0
DWIDTH 6 0
BBX 5 7 0 -1
BITMAP
70
50
70
D8
D8
D8
D8
ENDCHAR
STARTCHAR $357e
ENCODING 15913
SWIDTH 822 0
DWIDTH 6 0
BBX 5 7 0 -1
BITMAP
20
F8
50
70
20
A8
60
ENDCHAR
STARTCHAR $403a
ENCODING 15915
SWIDTH 822 0
DWIDTH 6 0
BBX 5 7 0 -1
BITMAP
90
78
D0
78
E8
F8
68
ENDCHAR
STARTCHAR $646b
ENCODING 15916
SWIDTH 822 0
DWIDTH 6 0
BBX 5 7 0 -1
BITMAP
B8
50
F8
78
F0
D0
68
ENDCHAR
STARTCHAR $3066
ENCODING 15918
SWIDTH 822 0
DWIDTH 6 0
BBX 5 7 0 -1
BITMAP
50
F8
50
50
F8
50
90
ENDCHAR
STARTCHAR $3759
ENCODING 15919
SWIDTH 822 0
DWIDTH 6 0
BBX 5 7 0 -1
BITMAP
B8
E8
F0
68
00
F8
70
ENDCHAR
STARTCHAR $374a
ENCODING 15920
SWIDTH 822 0
DWIDTH 6 0
BBX 5 7 0 -1
BITMAP
70
50
F8
50
70
A8
60
ENDCHAR
STARTCHAR $4045
ENCODING 15922
SWIDTH 822 0
DWIDTH 6 0
BBX 5 7 0 -1
BITMAP
58
E8
50
F8
B8
F0
B0
ENDCHAR
STARTCHAR $362d
ENCODING 15923
SWIDTH 822 0
DWIDTH 6 0
BBX 5 7 0 -1
BITMAP
50
78
E8
78
78
D0
28
ENDCHAR
STARTCHAR $3749
ENCODING 15924
SWIDTH 822 0
DWIDTH 6 0
BBX 5 7 0 -1
BITMAP
B0
F8
A8
E8
28
B0
68
ENDCHAR
STARTCHAR $3742
ENCODING 15926
SWIDTH 822 0
DWIDTH 6 0
BBX 5 7 0 -1
BITMAP
78
A8
50
E8
78
50
78
ENDCHAR
STARTCHAR $4c77
ENCODING 15928
SWIDTH 822 0
DWIDTH 6 0
BBX 5 7 0 -1
BITMAP
50
F8
B0
B8
68
F8
28
ENDCHAR
STARTCHAR $706f
ENCODING 15929
SWIDTH 822 0
DWIDTH 6 0
BBX 5 7 0 -1
BITMAP
20
F8
50
F8
70
70
98
ENDCHAR
STARTCHAR $5f57
ENCODING 15932
SWIDTH 822 0
DWIDTH 6 0
BBX 5 7 0 -1
BITMAP
78
68
F8
F8
78
68
A8
ENDCHAR
STARTCHAR $635b
ENCODING 15933
SWIDTH 822 0
DWIDTH 6 0
BBX 5 7 0 -1
BITMAP
20
F8
D8
30
F8
70
B0
ENDCHAR
STARTCHAR $3566
ENCODING 15935
SWIDTH 822 0
DWIDTH 6 0
BBX 5 7 0 -1
BITMAP
20
F8
D8
20
F0
50
98
ENDCHAR
STARTCHAR $366a
ENCODING 15937
SWIDTH 822 0
DWIDTH 6 0
BBX 5 7 0 -1
BITMAP
10
D8
68
C8
50
D0
28
ENDCHAR
STARTCHAR $706c
ENCODING 15938
SWIDTH 822 0
DWIDTH 6 0
BBX 5 7 0 -1
BITMAP
50
D8
50
D8
50
D8
F8
ENDCHAR
STARTCHAR $3557
ENCODING 15939
SWIDTH 822 0
DWIDTH 6 0
BBX 5 7 0 -1
BITMAP
40
70
50
90
20
50
88
ENDCHAR
STARTCHAR $3564
ENCODING 15940
SWIDTH 822 0
DWIDTH 6 0
BBX 5 7 0 -1
BITMAP
70
90
20
D8
A8
20
D8
ENDCHAR
STARTCHAR $3665
ENCODING 15941
SWIDTH 822 0
DWIDTH 6 0
BBX 5 7 0 -1
BITMAP
40
F0
50
50
50
50
98
ENDCHAR
STARTCHAR $3c72
ENCODING 15942
SWIDTH 822 0
DWIDTH 6 0
BBX 5 7 0 -1
BITMAP
B8
10
B8
38
A8
B8
B8
ENDCHAR
STARTCHAR $3139
ENCODING 15943
SWIDTH 822 0
DWIDTH 6 0
BBX 5 7 0 -1
BITMAP
F8
B8
D8
D8
B8
D0
A8
ENDCHAR
STARTCHAR $355f
ENCODING 15944
SWIDTH 822 0
DWIDTH 6 0
BBX 5 7 0 -1
BITMAP
50
F8
58
D8
78
D0
68
ENDCHAR
STARTCHAR $356c
ENCODING 15945
SWIDTH 822 0
DWIDTH 6 0
BBX 5 7 0 -1
BITMAP
B8
A8
A8
B8
A8
A8
B8
ENDCHAR
STARTCHAR $3131
ENCODING 15946
SWIDTH 822 0
DWIDTH 6 0
BBX 5 7 0 -1
BITMAP
40
98
88
D8
88
88
F8
ENDCHAR
STARTCHAR $674f
ENCODING 15947
SWIDTH 822 0
DWIDTH 6 0
BBX 5 7 0 -1
BITMAP
58
88
F8
A8
F8
48
98
ENDCHAR
STARTCHAR $526b
ENCODING 15948
SWIDTH 822 0
DWIDTH 6 0
BBX 5 7 0 -1
BITMAP
50
70
A8
40
B8
70
70
ENDCHAR
STARTCHAR $3d22
ENCODING 15949
SWIDTH 822 0
DWIDTH 6 0
BBX 5 7 0 -1
BITMAP
58
F0
B8
F0
50
D0
68
ENDCHAR
STARTCHAR $614c
ENCODING 15950
SWIDTH 822 0
DWIDTH 6 0
BBX 5 7 0 -1
BITMAP
10
78
D8
68
C8
50
A8
ENDCHAR
STARTCHAR $3547
ENCODING 15951
SWIDTH 822 0
DWIDTH 6 0
BBX 5 7 0 -1
BITMAP
A0
F8
E8
58
F8
D8
68
ENDCHAR
STARTCHAR $3934
ENCODING 15952
SWIDTH 822 0
DWIDTH 6 0
BBX 5 7 0 -1
BITMAP
60
F8
48
58
D8
48
D8
ENDCHAR
STARTCHAR $4140
ENCODING 15953
SWIDTH 822 0
DWIDTH 6 0
BBX 5 7 0 -1
BITMAP
B8
68
F8
68
F8
68
B8
ENDCHAR
STARTCHAR $6154
ENCODING 15954
SWIDTH 822 0
DWIDTH 6 0
BBX 5 7 0 -1
BITMAP
10
78
C0
58
D8
58
B8
ENDCHAR
STARTCHAR $356f
ENCODING 15955
SWIDTH 822 0
DWIDTH 6 0
BBX 5 7 0 -1
BITMAP
F8
F8
90
B8
90
A8
B8
ENDCHAR
STARTCHAR $3546
ENCODING 15957
SWIDTH 822 0
DWIDTH 6 0
BBX 5 7 0 -1
BITMAP
50
F8
40
78
A8
78
A8
ENDCHAR
STARTCHAR $3649
ENCODING 15958
SWIDTH 822 0
DWIDTH 6 0
BBX 5 7 0 -1
BITMAP
F0
F0
80
F8
88
E8
E8
ENDCHAR
STARTCHAR $5272
ENCODING 15959
SWIDTH 822 0
DWIDTH 6 0
BBX 5 7 0 -1
BITMAP
38
E8
B8
A8
F8
28
78
ENDCHAR
STARTCHAR $366b
ENCODING 15960
SWIDTH 822 0
DWIDTH 6 0
BBX 5 7 0 -1
BITMAP
98
F0
58
F8
58
50
B8
ENDCHAR
STARTCHAR $5d7c
ENCODING 15962
SWIDTH 822 0
DWIDTH 6 0
BBX 5 7 0 -1
BITMAP
B8
28
B8
28
B8
A8
F8
ENDCHAR
STARTCHAR $665c
ENCODING 15963
SWIDTH 822 0
DWIDTH 6 0
BBX 5 7 0 -1
BITMAP
F8
D0
E8
50
A8
70
A8
ENDCHAR
STARTCHAR $3571
ENCODING 15964
SWIDTH 822 0
DWIDTH 6 0
BBX 5 7 0 -1
BITMAP
78
E0
78
68
F8
60
F8
ENDCHAR
STARTCHAR $3f78
ENCODING 15965
SWIDTH 822 0
DWIDTH 6 0
BBX 5 7 0 -1
BITMAP
78
F8
50
78
D0
68
F8
ENDCHAR
STARTCHAR $3570
ENCODING 15966
SWIDTH 822 0
DWIDTH 6 0
BBX 5 7 0 -1
BITMAP
F8
80
F0
90
F0
80
F8
ENDCHAR
STARTCHAR $3671
ENCODING 15967
SWIDTH 822 0
DWIDTH 6 0
BBX 5 7 0 -1
BITMAP
70
50
70
50
F8
00
88
ENDCHAR
STARTCHAR $3577
ENCODING 15968
SWIDTH 822 0
DWIDTH 6 0
BBX 5 7 0 -1
BITMAP
F8
B0
D8
78
D8
F0
D8
ENDCHAR
STARTCHAR $6c77
ENCODING 15969
SWIDTH 822 0
DWIDTH 6 0
BBX 5 7 0 -1
BITMAP
F8
B8
D0
78
D0
E8
F8
ENDCHAR
STARTCHAR $3667
ENCODING 15972
SWIDTH 822 0
DWIDTH 6 0
BBX 5 7 0 -1
BITMAP
40
78
88
78
58
78
08
ENDCHAR
STARTCHAR $577c
ENCODING 15973
SWIDTH 822 0
DWIDTH 6 0
BBX 5 7 0 -1
BITMAP
58
D8
D8
40
78
40
68
ENDCHAR
STARTCHAR $5f59
ENCODING 15974
SWIDTH 822 0
DWIDTH 6 0
BBX 5 7 0 -1
BITMAP
78
60
F8
E8
78
60
B8
ENDCHAR
STARTCHAR $5950
ENCODING 15976
SWIDTH 822 0
DWIDTH 6 0
BBX 5 7 0 -1
BITMAP
58
D8
40
78
E8
78
E8
ENDCHAR
STARTCHAR $552f
ENCODING 15978
SWIDTH 822 0
DWIDTH 6 0
BBX 5 7 0 -1
BITMAP
B8
B8
C0
F8
E8
78
A8
ENDCHAR
STARTCHAR $3771
ENCODING 15979
SWIDTH 822 0
DWIDTH 6 0
BBX 5 7 0 -1
BITMAP
68
50
F8
D0
68
50
58
ENDCHAR
STARTCHAR $6247
ENCODING 15980
SWIDTH 822 0
DWIDTH 6 0
BBX 5 7 0 -1
BITMAP
50
88
20
F8
50
B8
30
ENDCHAR
STARTCHAR $524b
ENCODING 15981
SWIDTH 822 0
DWIDTH 6 0
BBX 5 7 0 -1
BITMAP
A8
20
F8
50
E8
40
70
ENDCHAR
STARTCHAR $5a3c
ENCODING 15984
SWIDTH 822 0
DWIDTH 6 0
BBX 5 7 0 -1
BITMAP
68
E8
70
78
E8
50
E8
ENDCHAR
STARTCHAR $5931
ENCODING 15985
SWIDTH 822 0
DWIDTH 6 0
BBX 5 7 0 -1
BITMAP
50
F8
58
78
D0
50
E8
ENDCHAR
STARTCHAR $3721
ENCODING 15986
SWIDTH 822 0
DWIDTH 6 0
BBX 5 7 0 -1
BITMAP
78
C8
78
78
D0
58
F8
ENDCHAR
STARTCHAR $5063
ENCODING 15987
SWIDTH 822 0
DWIDTH 6 0
BBX 5 7 0 -1
BITMAP
78
48
F8
F8
50
58
78
ENDCHAR
STARTCHAR $3c5f
ENCODING 15988
SWIDTH 822 0
DWIDTH 6 0
BBX 5 7 0 -1
BITMAP
F8
50
F8
F8
C8
98
C8
ENDCHAR
STARTCHAR $5153
ENCODING 15990
SWIDTH 822 0
DWIDTH 6 0
BBX 5 7 0 -1
BITMAP
90
38
18
78
90
90
A8
ENDCHAR
STARTCHAR $3651
ENCODING 15993
SWIDTH 822 0
DWIDTH 6 0
BBX 5 7 0 -1
BITMAP
60
78
C8
68
58
E8
18
ENDCHAR
STARTCHAR $365d
ENCODING 15994
SWIDTH 822 0
DWIDTH 6 0
BBX 5 7 0 -1
BITMAP
50
F8
B8
F8
E8
A8
F8
ENDCHAR
STARTCHAR $372f
ENCODING 15997
SWIDTH 822 0
DWIDTH 6 0
BBX 5 7 0 -1
BITMAP
F0
50
F8
50
70
B8
38
ENDCHAR
STARTCHAR $3d54
ENCODING 15998
SWIDTH 822 0
DWIDTH 6 0
BBX 5 7 0 -1
BITMAP
50
68
78
D8
E8
D0
28
ENDCHAR
STARTCHAR $3d53
ENCODING 16161
SWIDTH 822 0
DWIDTH 6 0
BBX 5 7 0 -1
BITMAP
50
68
F8
D8
68
50
68
ENDCHAR
STARTCHAR $3d57
ENCODING 16162
SWIDTH 822 0
DWIDTH 6 0
BBX 5 7 0 -1
BITMAP
50
E8
B8
B8
68
D0
28
ENDCHAR
STARTCHAR $5e34
ENCODING 16163
SWIDTH 822 0
DWIDTH 6 0
BBX 5 7 0 -1
BITMAP
90
28
B8
18
A8
90
A8
ENDCHAR
STARTCHAR $3734
ENCODING 16164
SWIDTH 822 0
DWIDTH 6 0
BBX 5 7 0 -1
BITMAP
F8
58
F0
58
98
70
70
ENDCHAR
STARTCHAR $533d
ENCODING 16166
SWIDTH 822 0
DWIDTH 6 0
BBX 5 7 0 -1
BITMAP
10
F8
E8
D0
E8
18
18
ENDCHAR
STARTCHAR $533e
ENCODING 16169
SWIDTH 822 0
DWIDTH 6 0
BBX 5 7 0 -1
BITMAP
18
E8
D0
E8
C0
18
18
ENDCHAR
STARTCHAR $5962
ENCODING 16171
SWIDTH 822 0
DWIDTH 6 0
BBX 5 7 0 -1
BITMAP
50
D8
50
58
E0
78
F8
ENDCHAR
STARTCHAR $5c34
ENCODING 16172
SWIDTH 822 0
DWIDTH 6 0
BBX 5 7 0 -1
BITMAP
50
D8
50
D8
E0
78
78
ENDCHAR
STARTCHAR $3334
ENCODING 16174
SWIDTH 822 0
DWIDTH 6 0
BBX 5 7 0 -1
BITMAP
58
E8
E8
58
70
50
68
ENDCHAR
STARTCHAR $3429
ENCODING 16175
SWIDTH 822 0
DWIDTH 6 0
BBX 5 7 0 -1
BITMAP
E8
58
58
F8
48
48
58
ENDCHAR
STARTCHAR $342e
ENCODING 16176
SWIDTH 822 0
DWIDTH 6 0
BBX 5 7 0 -1
BITMAP
50
78
D0
50
78
F0
38
ENDCHAR
STARTCHAR $342a
ENCODING 16177
SWIDTH 822 0
DWIDTH 6 0
BBX 5 7 0 -1
BITMAP
50
F8
58
58
F8
A8
E8
ENDCHAR
STARTCHAR $542c
ENCODING 16178
SWIDTH 822 0
DWIDTH 6 0
BBX 5 7 0 -1
BITMAP
50
58
E8
50
50
D0
28
ENDCHAR
STARTCHAR $3447
ENCODING 16180
SWIDTH 822 0
DWIDTH 6 0
BBX 5 7 0 -1
BITMAP
10
60
30
F8
40
B0
30
ENDCHAR
STARTCHAR $392f
ENCODING 16181
SWIDTH 822 0
DWIDTH 6 0
BBX 5 7 0 -1
BITMAP
20
F8
B0
F0
A8
F0
A8
ENDCHAR
STARTCHAR $584d
ENCODING 16182
SWIDTH 822 0
DWIDTH 6 0
BBX 5 7 0 -1
BITMAP
50
F8
D8
58
70
58
70
ENDCHAR
STARTCHAR $3947
ENCODING 16183
SWIDTH 822 0
DWIDTH 6 0
BBX 5 7 0 -1
BITMAP
90
78
D8
58
F0
D8
70
ENDCHAR
STARTCHAR $592c
ENCODING 16184
SWIDTH 822 0
DWIDTH 6 0
BBX 5 7 0 -1
BITMAP
40
F8
50
50
D0
50
F8
ENDCHAR
STARTCHAR $3933
ENCODING 16185
SWIDTH 822 0
DWIDTH 6 0
BBX 5 7 0 -1
BITMAP
50
F8
40
78
E8
68
C8
ENDCHAR
STARTCHAR $5036
ENCODING 16186
SWIDTH 822 0
DWIDTH 6 0
BBX 5 7 0 -1
BITMAP
20
F8
00
70
50
50
98
ENDCHAR
STARTCHAR $394d
ENCODING 16188
SWIDTH 822 0
DWIDTH 6 0
BBX 5 7 0 -1
BITMAP
28
70
20
F8
60
B8
08
ENDCHAR
STARTCHAR $3969
ENCODING 16189
SWIDTH 822 0
DWIDTH 6 0
BBX 5 7 0 -1
BITMAP
50
F8
50
58
F0
58
C8
ENDCHAR
STARTCHAR $7051
ENCODING 16191
SWIDTH 822 0
DWIDTH 6 0
BBX 5 7 0 -1
BITMAP
A0
F8
F8
50
70
D8
50
ENDCHAR
STARTCHAR $3257
ENCODING 16193
SWIDTH 822 0
DWIDTH 6 0
BBX 5 7 0 -1
BITMAP
50
F8
50
F8
08
68
68
ENDCHAR
STARTCHAR $5b49
ENCODING 16194
SWIDTH 822 0
DWIDTH 6 0
BBX 5 7 0 -1
BITMAP
78
C8
78
E8
F8
48
58
ENDCHAR
STARTCHAR $324a
ENCODING 16198
SWIDTH 822 0
DWIDTH 6 0
BBX 5 7 0 -1
BITMAP
C8
68
C8
68
C8
F8
48
ENDCHAR
STARTCHAR $3331
ENCODING 16200
SWIDTH 822 0
DWIDTH 6 0
BBX 5 7 0 -1
BITMAP
10
F8
E0
D0
E8
10
68
ENDCHAR
STARTCHAR $3244
ENCODING 16201
SWIDTH 822 0
DWIDTH 6 0
BBX 5 7 0 -1
BITMAP
F8
10
70
50
70
10
30
ENDCHAR
STARTCHAR $396e
ENCODING 16203
SWIDTH 822 0
DWIDTH 6 0
BBX 5 7 0 -1
BITMAP
20
F8
78
48
78
50
98
ENDCHAR
STARTCHAR $396f
ENCODING 16204
SWIDTH 822 0
DWIDTH 6 0
BBX 5 7 0 -1
BITMAP
48
E8
88
48
A8
48
A8
ENDCHAR
STARTCHAR $3552
ENCODING 16205
SWIDTH 822 0
DWIDTH 6 0
BBX 5 7 0 -1
BITMAP
20
F8
B8
50
20
D8
70
ENDCHAR
STARTCHAR $394e
ENCODING 16207
SWIDTH 822 0
DWIDTH 6 0
BBX 5 7 0 -1
BITMAP
10
58
50
F8
50
70
50
ENDCHAR
STARTCHAR $3923
ENCODING 16211
SWIDTH 822 0
DWIDTH 6 0
BBX 5 7 0 -1
BITMAP
50
78
C0
78
68
E8
28
ENDCHAR
STARTCHAR $5262
ENCODING 16212
SWIDTH 822 0
DWIDTH 6 0
BBX 5 7 0 -1
BITMAP
10
F8
C0
F8
E8
28
48
ENDCHAR
STARTCHAR $3675
ENCODING 16213
SWIDTH 822 0
DWIDTH 6 0
BBX 5 7 0 -1
BITMAP
20
F8
D8
00
70
20
F8
ENDCHAR
STARTCHAR $3632
ENCODING 16214
SWIDTH 822 0
DWIDTH 6 0
BBX 5 7 0 -1
BITMAP
F0
70
70
E8
00
C8
B8
ENDCHAR
STARTCHAR $3926
ENCODING 16215
SWIDTH 822 0
DWIDTH 6 0
BBX 5 7 0 -1
BITMAP
F0
30
50
70
D0
50
D8
ENDCHAR
STARTCHAR $3935
ENCODING 16216
SWIDTH 822 0
DWIDTH 6 0
BBX 5 7 0 -1
BITMAP
50
F8
68
40
F8
50
F8
ENDCHAR
STARTCHAR $387d
ENCODING 16218
SWIDTH 822 0
DWIDTH 6 0
BBX 5 6 0 -1
BITMAP
F8
88
88
88
F8
88
ENDCHAR
STARTCHAR $592b
ENCODING 16219
SWIDTH 822 0
DWIDTH 6 0
BBX 5 7 0 -1
BITMAP
40
F8
68
68
E8
68
F8
ENDCHAR
STARTCHAR $5564
ENCODING 16220
SWIDTH 822 0
DWIDTH 6 0
BBX 5 7 0 -1
BITMAP
20
F8
C8
18
D0
68
B8
ENDCHAR
STARTCHAR $384f
ENCODING 16221
SWIDTH 822 0
DWIDTH 6 0
BBX 5 7 0 -1
BITMAP
50
D0
78
D0
F8
68
78
ENDCHAR
STARTCHAR $532d
ENCODING 16222
SWIDTH 822 0
DWIDTH 6 0
BBX 5 7 0 -1
BITMAP
D8
D8
20
F8
20
50
88
ENDCHAR
STARTCHAR $3722
ENCODING 16223
SWIDTH 822 0
DWIDTH 6 0
BBX 5 7 0 -1
BITMAP
20
F8
D8
70
70
68
B8
ENDCHAR
STARTCHAR $366c
ENCODING 16224
SWIDTH 822 0
DWIDTH 6 0
BBX 5 7 0 -1
BITMAP
50
F8
50
F8
20
50
70
ENDCHAR
STARTCHAR $3973
ENCODING 16225
SWIDTH 822 0
DWIDTH 6 0
BBX 5 7 0 -1
BITMAP
F0
78
D0
F8
C0
D8
D8
ENDCHAR
STARTCHAR $5472
ENCODING 16228
SWIDTH 822 0
DWIDTH 6 0
BBX 5 7 0 -1
BITMAP
20
F8
50
88
70
70
10
ENDCHAR
STARTCHAR $3859
ENCODING 16231
SWIDTH 822 0
DWIDTH 6 0
BBX 5 7 0 -1
BITMAP
D0
B8
D0
68
D0
D8
C8
ENDCHAR
STARTCHAR $6678
ENCODING 16232
SWIDTH 822 0
DWIDTH 6 0
BBX 5 7 0 -1
BITMAP
D0
F8
D0
E8
D0
D8
C8
ENDCHAR
STARTCHAR $3277
ENCODING 16236
SWIDTH 822 0
DWIDTH 6 0
BBX 5 7 0 -1
BITMAP
50
F8
D8
78
50
50
68
ENDCHAR
STARTCHAR $343e
ENCODING 16238
SWIDTH 822 0
DWIDTH 6 0
BBX 5 7 0 -1
BITMAP
50
D8
68
D0
10
D0
68
ENDCHAR
STARTCHAR $3629
ENCODING 16239
SWIDTH 822 0
DWIDTH 6 0
BBX 5 7 0 -1
BITMAP
F8
B8
90
B8
90
B8
F8
ENDCHAR
STARTCHAR $637e
ENCODING 16240
SWIDTH 822 0
DWIDTH 6 0
BBX 5 7 0 -1
BITMAP
90
D8
48
F8
F0
A0
F8
ENDCHAR
STARTCHAR $3638
ENCODING 16241
SWIDTH 822 0
DWIDTH 6 0
BBX 5 7 0 -1
BITMAP
B8
50
D0
78
D0
50
B8
ENDCHAR
STARTCHAR $5b5a
ENCODING 16242
SWIDTH 822 0
DWIDTH 6 0
BBX 5 7 0 -1
BITMAP
78
F8
50
F8
D0
78
78
ENDCHAR
STARTCHAR $5157
ENCODING 16246
SWIDTH 822 0
DWIDTH 6 0
BBX 5 7 0 -1
BITMAP
B8
28
28
38
90
90
A8
ENDCHAR
STARTCHAR $302a
ENCODING 16251
SWIDTH 822 0
DWIDTH 6 0
BBX 5 7 0 -1
BITMAP
50
F8
50
88
70
20
D8
ENDCHAR
STARTCHAR $5477
ENCODING 16252
SWIDTH 822 0
DWIDTH 6 0
BBX 5 7 0 -1
BITMAP
20
F8
50
A8
70
20
F8
ENDCHAR
STARTCHAR $3321
ENCODING 16253
SWIDTH 822 0
DWIDTH 6 0
BBX 5 7 0 -1
BITMAP
68
C8
E8
C8
78
48
B8
ENDCHAR
STARTCHAR $507a
ENCODING 16254
SWIDTH 822 0
DWIDTH 6 0
BBX 5 7 0 -1
BITMAP
50
78
F8
F8
50
50
68
ENDCHAR
STARTCHAR $5843
ENCODING 16418
SWIDTH 822 0
DWIDTH 6 0
BBX 5 7 0 -1
BITMAP
50
F8
F8
78
50
50
68
ENDCHAR
STARTCHAR $3a25
ENCODING 16420
SWIDTH 822 0
DWIDTH 6 0
BBX 5 7 0 -1
BITMAP
50
78
F8
78
78
F8
10
ENDCHAR
STARTCHAR $3a2b
ENCODING 16421
SWIDTH 822 0
DWIDTH 6 0
BBX 5 7 0 -1
BITMAP
70
50
70
90
D8
90
D8
ENDCHAR
STARTCHAR $3a24
ENCODING 16423
SWIDTH 822 0
DWIDTH 6 0
BBX 5 7 0 -1
BITMAP
F8
A8
F8
A8
F8
A8
F8
ENDCHAR
STARTCHAR $3367
ENCODING 16424
SWIDTH 822 0
DWIDTH 6 0
BBX 5 7 0 -1
BITMAP
78
D0
78
50
F8
68
F8
ENDCHAR
STARTCHAR $3347
ENCODING 16426
SWIDTH 822 0
DWIDTH 6 0
BBX 5 7 0 -1
BITMAP
20
F8
D8
F0
B8
F8
D0
ENDCHAR
STARTCHAR $5947
ENCODING 16429
SWIDTH 822 0
DWIDTH 6 0
BBX 5 7 0 -1
BITMAP
50
F8
48
68
E8
50
F8
ENDCHAR
STARTCHAR $5349
ENCODING 16430
SWIDTH 822 0
DWIDTH 6 0
BBX 5 7 0 -1
BITMAP
28
F8
E8
F8
E8
78
A8
ENDCHAR
STARTCHAR $6d65
ENCODING 16433
SWIDTH 822 0
DWIDTH 6 0
BBX 5 7 0 -1
BITMAP
50
F8
B8
78
D0
78
90
ENDCHAR
STARTCHAR $4d69
ENCODING 16435
SWIDTH 822 0
DWIDTH 6 0
BBX 5 7 0 -1
BITMAP
50
F8
68
20
F8
70
A8
ENDCHAR
STARTCHAR $4d68
ENCODING 16436
SWIDTH 822 0
DWIDTH 6 0
BBX 5 7 0 -1
BITMAP
20
F8
68
20
F8
70
A8
ENDCHAR
STARTCHAR $553a
ENCODING 16439
SWIDTH 822 0
DWIDTH 6 0
BBX 5 7 0 -1
BITMAP
48
D8
48
00
F8
50
E8
ENDCHAR
STARTCHAR $6066
ENCODING 16453
SWIDTH 822 0
DWIDTH 6 0
BBX 5 7 0 -1
BITMAP
10
F8
68
F8
68
F0
28
ENDCHAR
STARTCHAR $4f31
ENCODING 16454
SWIDTH 822 0
DWIDTH 6 0
BBX 5 7 0 -1
BITMAP
58
F8
70
F8
D8
70
50
ENDCHAR
STARTCHAR $4f35
ENCODING 16455
SWIDTH 822 0
DWIDTH 6 0
BBX 5 7 0 -1
BITMAP
90
78
E8
78
E8
70
A8
ENDCHAR
STARTCHAR $4f2d
ENCODING 16456
SWIDTH 822 0
DWIDTH 6 0
BBX 5 7 0 -1
BITMAP
20
F8
D8
D0
98
B8
D0
ENDCHAR
STARTCHAR $4f3a
ENCODING 16457
SWIDTH 822 0
DWIDTH 6 0
BBX 5 7 0 -1
BITMAP
58
F8
B0
F8
98
B0
D0
ENDCHAR
STARTCHAR $4f2f
ENCODING 16458
SWIDTH 822 0
DWIDTH 6 0
BBX 5 7 0 -1
BITMAP
58
F8
B8
F8
98
B8
E8
ENDCHAR
STARTCHAR $4f32
ENCODING 16459
SWIDTH 822 0
DWIDTH 6 0
BBX 5 7 0 -1
BITMAP
90
38
A8
38
A8
B0
A8
ENDCHAR
STARTCHAR $4f34
ENCODING 16462
SWIDTH 822 0
DWIDTH 6 0
BBX 5 7 0 -1
BITMAP
20
F8
C8
70
A0
F8
20
ENDCHAR
STARTCHAR $4f37
ENCODING 16463
SWIDTH 822 0
DWIDTH 6 0
BBX 5 7 0 -1
BITMAP
28
70
20
F8
70
A0
38
ENDCHAR
STARTCHAR $3138
ENCODING 16465
SWIDTH 822 0
DWIDTH 6 0
BBX 5 7 0 -1
BITMAP
90
B8
D0
F8
E0
50
98
ENDCHAR
STARTCHAR $4d6f
ENCODING 16466
SWIDTH 822 0
DWIDTH 6 0
BBX 5 7 0 -1
BITMAP
D8
68
D0
E8
C0
D8
D8
ENDCHAR
STARTCHAR $5f60
ENCODING 16467
SWIDTH 822 0
DWIDTH 6 0
BBX 5 7 0 -1
BITMAP
58
68
D0
E8
40
58
98
ENDCHAR
STARTCHAR $7055
ENCODING 16469
SWIDTH 822 0
DWIDTH 6 0
BBX 5 7 0 -1
BITMAP
B0
F8
F8
58
F8
F8
68
ENDCHAR
STARTCHAR $4d6b
ENCODING 16471
SWIDTH 822 0
DWIDTH 6 0
BBX 5 7 0 -1
BITMAP
70
F8
A8
00
F8
A8
F8
ENDCHAR
STARTCHAR $6932
ENCODING 16473
SWIDTH 822 0
DWIDTH 6 0
BBX 5 7 0 -1
BITMAP
50
F8
A8
20
F8
A8
F8
ENDCHAR
STARTCHAR $627d
ENCODING 16474
SWIDTH 822 0
DWIDTH 6 0
BBX 5 7 0 -1
BITMAP
F8
70
B0
00
F8
78
A8
ENDCHAR
STARTCHAR $4e5f
ENCODING 16475
SWIDTH 822 0
DWIDTH 6 0
BBX 5 7 0 -1
BITMAP
70
70
40
28
F8
20
A8
ENDCHAR
STARTCHAR $5134
ENCODING 16476
SWIDTH 822 0
DWIDTH 6 0
BBX 5 7 0 -1
BITMAP
78
78
F8
C0
68
68
68
ENDCHAR
STARTCHAR $5a27
ENCODING 16478
SWIDTH 822 0
DWIDTH 6 0
BBX 5 7 0 -1
BITMAP
78
D0
68
40
F8
78
F8
ENDCHAR
STARTCHAR $4f3e
ENCODING 16479
SWIDTH 822 0
DWIDTH 6 0
BBX 5 7 0 -1
BITMAP
D0
F8
D8
D8
D8
E8
A8
ENDCHAR
STARTCHAR $5e25
ENCODING 16481
SWIDTH 822 0
DWIDTH 6 0
BBX 5 7 0 -1
BITMAP
B8
28
B8
28
B8
A8
B8
ENDCHAR
STARTCHAR $5c41
ENCODING 16483
SWIDTH 822 0
DWIDTH 6 0
BBX 5 7 0 -1
BITMAP
78
F8
50
F8
D0
58
68
ENDCHAR
STARTCHAR $4e64
ENCODING 16484
SWIDTH 822 0
DWIDTH 6 0
BBX 5 7 0 -1
BITMAP
90
28
58
00
B8
98
90
ENDCHAR
STARTCHAR $4e52
ENCODING 16485
SWIDTH 822 0
DWIDTH 6 0
BBX 5 7 0 -1
BITMAP
F8
A8
F8
A8
F8
A0
78
ENDCHAR
STARTCHAR $4d7c
ENCODING 16486
SWIDTH 822 0
DWIDTH 6 0
BBX 5 7 0 -1
BITMAP
E8
58
F8
48
F8
70
A8
ENDCHAR
STARTCHAR $6035
ENCODING 16487
SWIDTH 822 0
DWIDTH 6 0
BBX 5 7 0 -1
BITMAP
E8
48
E8
48
70
F8
20
ENDCHAR
STARTCHAR $7355
ENCODING 16488
SWIDTH 822 0
DWIDTH 6 0
BBX 5 7 0 -1
BITMAP
F0
58
E8
48
70
F8
A8
ENDCHAR
STARTCHAR $432c
ENCODING 16490
SWIDTH 822 0
DWIDTH 6 0
BBX 5 7 0 -1
BITMAP
B8
68
F8
68
F8
50
B8
ENDCHAR
STARTCHAR $5f22
ENCODING 16492
SWIDTH 822 0
DWIDTH 6 0
BBX 5 7 0 -1
BITMAP
90
78
B0
30
F8
D8
E8
ENDCHAR
STARTCHAR $4d7d
ENCODING 16493
SWIDTH 822 0
DWIDTH 6 0
BBX 5 7 0 -1
BITMAP
38
F8
78
D0
78
D0
38
ENDCHAR
STARTCHAR $4d7b
ENCODING 16494
SWIDTH 822 0
DWIDTH 6 0
BBX 5 7 0 -1
BITMAP
20
F8
70
B8
10
F8
20
ENDCHAR
STARTCHAR $4e24
ENCODING 16495
SWIDTH 822 0
DWIDTH 6 0
BBX 5 7 0 -1
BITMAP
F8
A8
F8
20
70
20
F8
ENDCHAR
STARTCHAR $4e69
ENCODING 16497
SWIDTH 822 0
DWIDTH 6 0
BBX 5 7 0 -1
BITMAP
50
F0
30
50
F0
50
58
ENDCHAR
STARTCHAR $683d
ENCODING 16498
SWIDTH 822 0
DWIDTH 6 0
BBX 5 7 0 -1
BITMAP
50
F8
E8
48
E8
C8
58
ENDCHAR
STARTCHAR $4d79
ENCODING 16500
SWIDTH 822 0
DWIDTH 6 0
BBX 5 7 0 -1
BITMAP
20
F8
70
70
60
20
D8
ENDCHAR
STARTCHAR $372a
ENCODING 16501
SWIDTH 822 0
DWIDTH 6 0
BBX 5 7 0 -1
BITMAP
F8
70
70
20
F8
70
A8
ENDCHAR
STARTCHAR $4e65
ENCODING 16504
SWIDTH 822 0
DWIDTH 6 0
BBX 5 7 0 -1
BITMAP
F0
90
F8
D8
F8
A8
A8
ENDCHAR
STARTCHAR $4d78
ENCODING 16507
SWIDTH 822 0
DWIDTH 6 0
BBX 5 7 0 -1
BITMAP
E8
58
F8
58
E8
C8
58
ENDCHAR
STARTCHAR $4e63
ENCODING 16509
SWIDTH 822 0
DWIDTH 6 0
BBX 5 7 0 -1
BITMAP
48
78
D8
E8
58
68
48
ENDCHAR
STARTCHAR $505e
ENCODING 16510
SWIDTH 822 0
DWIDTH 6 0
BBX 5 7 0 -1
BITMAP
68
58
F8
D8
68
68
58
ENDCHAR
STARTCHAR $4e21
ENCODING 16673
SWIDTH 822 0
DWIDTH 6 0
BBX 5 7 0 -1
BITMAP
10
78
E0
48
E8
68
A8
ENDCHAR
STARTCHAR $4e29
ENCODING 16674
SWIDTH 822 0
DWIDTH 6 0
BBX 5 7 0 -1
BITMAP
20
F8
50
50
50
60
F8
ENDCHAR
STARTCHAR $4e33
ENCODING 16675
SWIDTH 822 0
DWIDTH 6 0
BBX 5 7 0 -1
BITMAP
90
78
C8
68
E8
D0
78
ENDCHAR
STARTCHAR $7030
ENCODING 16677
SWIDTH 822 0
DWIDTH 6 0
BBX 5 7 0 -1
BITMAP
20
70
38
F0
A8
70
A8
ENDCHAR
STARTCHAR $4e4f
ENCODING 16678
SWIDTH 822 0
DWIDTH 6 0
BBX 5 7 0 -1
BITMAP
20
F8
28
28
28
48
98
ENDCHAR
STARTCHAR $4d7e
ENCODING 16679
SWIDTH 822 0
DWIDTH 6 0
BBX 5 7 0 -1
BITMAP
10
F8
58
D8
78
F8
28
ENDCHAR
STARTCHAR $4b69
ENCODING 16680
SWIDTH 822 0
DWIDTH 6 0
BBX 5 7 0 -1
BITMAP
38
F8
F8
D0
F8
10
38
ENDCHAR
STARTCHAR $4e77
ENCODING 16686
SWIDTH 822 0
DWIDTH 6 0
BBX 5 7 0 -1
BITMAP
20
F8
B0
F8
B8
70
A8
ENDCHAR
STARTCHAR $4e67
ENCODING 16687
SWIDTH 822 0
DWIDTH 6 0
BBX 5 7 0 -1
BITMAP
50
E8
D8
40
78
58
50
ENDCHAR
STARTCHAR $4e78
ENCODING 16693
SWIDTH 822 0
DWIDTH 6 0
BBX 5 7 0 -1
BITMAP
20
F8
50
D8
50
C8
B8
ENDCHAR
STARTCHAR $646e
ENCODING 16696
SWIDTH 822 0
DWIDTH 6 0
BBX 5 7 0 -1
BITMAP
90
78
E8
78
E8
F0
68
ENDCHAR
STARTCHAR $515a
ENCODING 16697
SWIDTH 822 0
DWIDTH 6 0
BBX 5 7 0 -1
BITMAP
90
78
28
38
90
D8
B0
ENDCHAR
STARTCHAR $4e42
ENCODING 16698
SWIDTH 822 0
DWIDTH 6 0
BBX 5 7 0 -1
BITMAP
B8
18
18
A8
F8
70
A8
ENDCHAR
STARTCHAR $646d
ENCODING 16699
SWIDTH 822 0
DWIDTH 6 0
BBX 5 7 0 -1
BITMAP
B8
18
98
28
F8
70
A8
ENDCHAR
STARTCHAR $4e49
ENCODING 16700
SWIDTH 822 0
DWIDTH 6 0
BBX 5 7 0 -1
BITMAP
20
F0
90
F0
F0
A0
D8
ENDCHAR
STARTCHAR $4e4c
ENCODING 16703
SWIDTH 822 0
DWIDTH 6 0
BBX 5 7 0 -1
BITMAP
70
50
F8
70
70
20
F8
ENDCHAR
STARTCHAR $4e3c
ENCODING 16705
SWIDTH 822 0
DWIDTH 6 0
BBX 5 7 0 -1
BITMAP
20
F8
50
F8
88
50
98
ENDCHAR
STARTCHAR $597c
ENCODING 16707
SWIDTH 822 0
DWIDTH 6 0
BBX 5 7 0 -1
BITMAP
50
F8
78
68
D0
78
D0
ENDCHAR
STARTCHAR $6658
ENCODING 16708
SWIDTH 822 0
DWIDTH 6 0
BBX 5 7 0 -1
BITMAP
E0
D8
D8
D8
F8
D0
50
ENDCHAR
STARTCHAR $4e3d
ENCODING 16709
SWIDTH 822 0
DWIDTH 6 0
BBX 5 7 0 -1
BITMAP
50
78
F8
E8
50
78
50
ENDCHAR
STARTCHAR $5f79
ENCODING 16711
SWIDTH 822 0
DWIDTH 6 0
BBX 5 7 0 -1
BITMAP
50
78
E8
F8
50
78
90
ENDCHAR
STARTCHAR $556c
ENCODING 16712
SWIDTH 822 0
DWIDTH 6 0
BBX 5 7 0 -1
BITMAP
20
F8
D8
20
D8
30
60
ENDCHAR
STARTCHAR $5f33
ENCODING 16714
SWIDTH 822 0
DWIDTH 6 0
BBX 5 7 0 -1
BITMAP
90
78
A8
78
A8
D8
90
ENDCHAR
STARTCHAR $4e3b
ENCODING 16715
SWIDTH 822 0
DWIDTH 6 0
BBX 5 7 0 -1
BITMAP
F8
10
20
20
20
20
60
ENDCHAR
STARTCHAR $5721
ENCODING 16718
SWIDTH 822 0
DWIDTH 6 0
BBX 5 7 0 -1
BITMAP
20
F8
A8
D0
A8
90
A0
ENDCHAR
STARTCHAR $4e41
ENCODING 16719
SWIDTH 822 0
DWIDTH 6 0
BBX 5 7 0 -1
BITMAP
A8
58
E8
58
C8
F8
48
ENDCHAR
STARTCHAR $4e73
ENCODING 16720
SWIDTH 822 0
DWIDTH 6 0
BBX 5 7 0 -1
BITMAP
E8
48
68
A8
68
48
98
ENDCHAR
STARTCHAR $4e76
ENCODING 16721
SWIDTH 822 0
DWIDTH 6 0
BBX 5 7 0 -1
BITMAP
E8
68
A8
58
78
D0
68
ENDCHAR
STARTCHAR $4e75
ENCODING 16722
SWIDTH 822 0
DWIDTH 6 0
BBX 5 7 0 -1
BITMAP
E8
68
A8
48
98
00
A8
ENDCHAR
STARTCHAR $4e74
ENCODING 16723
SWIDTH 822 0
DWIDTH 6 0
BBX 5 7 0 -1
BITMAP
20
A8
30
E0
78
28
D8
ENDCHAR
STARTCHAR $4e56
ENCODING 16725
SWIDTH 822 0
DWIDTH 6 0
BBX 5 7 0 -1
BITMAP
28
F8
68
F8
78
E8
28
ENDCHAR
STARTCHAR $4e53
ENCODING 16726
SWIDTH 822 0
DWIDTH 6 0
BBX 5 7 0 -1
BITMAP
50
F8
50
F8
F8
50
50
ENDCHAR
STARTCHAR $7043
ENCODING 16728
SWIDTH 822 0
DWIDTH 6 0
BBX 5 7 0 -1
BITMAP
70
F8
A8
50
F8
F8
50
ENDCHAR
STARTCHAR $4e54
ENCODING 16732
SWIDTH 822 0
DWIDTH 6 0
BBX 5 7 0 -1
BITMAP
A8
78
A8
78
F8
A8
A8
ENDCHAR
STARTCHAR $515b
ENCODING 16733
SWIDTH 822 0
DWIDTH 6 0
BBX 5 7 0 -1
BITMAP
90
78
28
78
90
D8
90
ENDCHAR
STARTCHAR $5267
ENCODING 16735
SWIDTH 822 0
DWIDTH 6 0
BBX 5 7 0 -1
BITMAP
20
F8
50
20
D8
70
70
ENDCHAR
STARTCHAR $4e68
ENCODING 16737
SWIDTH 822 0
DWIDTH 6 0
BBX 5 7 0 -1
BITMAP
10
E8
58
C0
78
D8
10
ENDCHAR
STARTCHAR $4929
ENCODING 16738
SWIDTH 822 0
DWIDTH 6 0
BBX 5 7 0 -1
BITMAP
50
F8
70
F8
58
B0
48
ENDCHAR
STARTCHAR $4e6d
ENCODING 16739
SWIDTH 822 0
DWIDTH 6 0
BBX 5 7 0 -1
BITMAP
70
F8
A8
50
F8
28
20
ENDCHAR
STARTCHAR $4e62
ENCODING 16742
SWIDTH 822 0
DWIDTH 6 0
BBX 5 7 0 -1
BITMAP
50
68
D8
C0
78
58
50
ENDCHAR
STARTCHAR $6639
ENCODING 16743
SWIDTH 822 0
DWIDTH 6 0
BBX 5 7 0 -1
BITMAP
90
68
D8
40
F8
58
90
ENDCHAR
STARTCHAR $4e3f
ENCODING 16744
SWIDTH 822 0
DWIDTH 6 0
BBX 5 7 0 -1
BITMAP
90
38
10
78
A8
D0
A8
ENDCHAR
STARTCHAR $4e4d
ENCODING 16746
SWIDTH 822 0
DWIDTH 6 0
BBX 5 7 0 -1
BITMAP
D0
F8
90
D8
E8
90
A8
ENDCHAR
STARTCHAR $4e61
ENCODING 16750
SWIDTH 822 0
DWIDTH 6 0
BBX 5 7 0 -1
BITMAP
20
50
B8
00
F8
28
20
ENDCHAR
STARTCHAR $4e2f
ENCODING 16751
SWIDTH 822 0
DWIDTH 6 0
BBX 5 7 0 -1
BITMAP
A0
58
D8
68
80
B0
B0
ENDCHAR
STARTCHAR $4e30
ENCODING 16752
SWIDTH 822 0
DWIDTH 6 0
BBX 5 7 0 -1
BITMAP
10
F8
60
F8
40
E8
28
ENDCHAR
STARTCHAR $5c58
ENCODING 16753
SWIDTH 822 0
DWIDTH 6 0
BBX 5 7 0 -1
BITMAP
60
D8
58
E8
C0
58
58
ENDCHAR
STARTCHAR $4e32
ENCODING 16754
SWIDTH 822 0
DWIDTH 6 0
BBX 5 7 0 -1
BITMAP
D0
78
60
B8
40
68
28
ENDCHAR
STARTCHAR $4e31
ENCODING 16756
SWIDTH 822 0
DWIDTH 6 0
BBX 5 7 0 -1
BITMAP
38
D8
98
E8
00
70
70
ENDCHAR
STARTCHAR $616e
ENCODING 16758
SWIDTH 822 0
DWIDTH 6 0
BBX 5 7 0 -1
BITMAP
10
78
D8
68
F8
58
98
ENDCHAR
STARTCHAR $4e2e
ENCODING 16759
SWIDTH 822 0
DWIDTH 6 0
BBX 5 7 0 -1
BITMAP
90
78
A0
78
80
A8
A8
ENDCHAR
STARTCHAR $4c78
ENCODING 16760
SWIDTH 822 0
DWIDTH 6 0
BBX 5 7 0 -1
BITMAP
58
F8
78
F8
F8
70
50
ENDCHAR
STARTCHAR $4f3b
ENCODING 16761
SWIDTH 822 0
DWIDTH 6 0
BBX 5 7 0 -1
BITMAP
20
F8
00
50
50
50
88
ENDCHAR
STARTCHAR $6363
ENCODING 16766
SWIDTH 822 0
DWIDTH 6 0
BBX 5 7 0 -1
BITMAP
20
F8
D8
90
E8
D0
B8
ENDCHAR
STARTCHAR $4e34
ENCODING 16929
SWIDTH 822 0
DWIDTH 6 0
BBX 5 7 0 -1
BITMAP
D8
E8
90
E8
C0
90
B8
ENDCHAR
STARTCHAR $4f30
ENCODING 16933
SWIDTH 822 0
DWIDTH 6 0
BBX 5 7 0 -1
BITMAP
68
D0
68
F8
E8
50
68
ENDCHAR
STARTCHAR $4f33
ENCODING 16937
SWIDTH 822 0
DWIDTH 6 0
BBX 5 7 0 -1
BITMAP
F8
78
C0
78
D0
F8
A8
ENDCHAR
STARTCHAR $6f7b
ENCODING 16938
SWIDTH 822 0
DWIDTH 6 0
BBX 5 7 0 -1
BITMAP
F8
D0
B8
F8
E8
A0
B8
ENDCHAR
STARTCHAR $3032
ENCODING 16939
SWIDTH 822 0
DWIDTH 6 0
BBX 5 7 0 -1
BITMAP
50
F8
50
F8
48
78
80
ENDCHAR
STARTCHAR $4f27
ENCODING 16943
SWIDTH 822 0
DWIDTH 6 0
BBX 5 7 0 -1
BITMAP
58
40
D8
D8
50
50
A0
ENDCHAR
STARTCHAR $4f3c
ENCODING 16948
SWIDTH 822 0
DWIDTH 6 0
BBX 5 7 0 -1
BITMAP
48
D8
F8
B0
F8
90
D8
ENDCHAR
STARTCHAR $6271
ENCODING 16949
SWIDTH 822 0
DWIDTH 6 0
BBX 5 7 0 -1
BITMAP
D8
68
78
90
50
78
10
ENDCHAR
STARTCHAR $4f2a
ENCODING 16950
SWIDTH 822 0
DWIDTH 6 0
BBX 5 7 0 -1
BITMAP
70
F8
A8
D0
E8
58
D8
ENDCHAR
STARTCHAR $4f29
ENCODING 16951
SWIDTH 822 0
DWIDTH 6 0
BBX 5 7 0 -1
BITMAP
D8
E8
D0
68
C0
D8
D8
ENDCHAR
STARTCHAR $3c2f
ENCODING 16953
SWIDTH 822 0
DWIDTH 6 0
BBX 5 7 0 -1
BITMAP
20
F8
B0
F0
D8
90
D8
ENDCHAR
STARTCHAR $4f3d
ENCODING 16955
SWIDTH 822 0
DWIDTH 6 0
BBX 5 7 0 -1
BITMAP
58
C8
78
90
50
78
50
ENDCHAR
STARTCHAR $5924
ENCODING 16958
SWIDTH 822 0
DWIDTH 6 0
BBX 5 7 0 -1
BITMAP
F8
70
58
B0
58
30
C8
ENDCHAR
STARTCHAR $4e39
ENCODING 16963
SWIDTH 822 0
DWIDTH 6 0
BBX 5 7 0 -1
BITMAP
50
D8
60
50
68
B0
A8
ENDCHAR
STARTCHAR $4d7a
ENCODING 16964
SWIDTH 822 0
DWIDTH 6 0
BBX 5 7 0 -1
BITMAP
F8
F8
A0
D8
A8
F0
A8
ENDCHAR
STARTCHAR $3c48
ENCODING 16965
SWIDTH 822 0
DWIDTH 6 0
BBX 5 7 0 -1
BITMAP
F8
F8
D0
A0
F8
D0
E8
ENDCHAR
STARTCHAR $4e27
ENCODING 16969
SWIDTH 822 0
DWIDTH 6 0
BBX 5 7 0 -1
BITMAP
50
B8
58
F8
50
78
50
ENDCHAR
STARTCHAR $4e28
ENCODING 16970
SWIDTH 822 0
DWIDTH 6 0
BBX 5 7 0 -1
BITMAP
20
F8
A8
50
A8
F8
20
ENDCHAR
STARTCHAR $4d71
ENCODING 16977
SWIDTH 822 0
DWIDTH 6 0
BBX 5 7 0 -1
BITMAP
78
A8
F8
A8
E8
60
A0
ENDCHAR
STARTCHAR $4d70
ENCODING 16978
SWIDTH 822 0
DWIDTH 6 0
BBX 5 7 0 -1
BITMAP
F0
50
F0
50
F0
B0
F8
ENDCHAR
STARTCHAR $4e2b
ENCODING 16979
SWIDTH 822 0
DWIDTH 6 0
BBX 5 7 0 -1
BITMAP
50
F8
68
78
D0
78
D0
ENDCHAR
STARTCHAR $4e2c
ENCODING 16980
SWIDTH 822 0
DWIDTH 6 0
BBX 5 7 0 -1
BITMAP
18
E8
D0
E8
C0
D8
18
ENDCHAR
STARTCHAR $4d66
ENCODING 16989
SWIDTH 822 0
DWIDTH 6 0
BBX 5 7 0 -1
BITMAP
78
F8
B8
E0
50
78
D0
ENDCHAR
STARTCHAR $4d67
ENCODING 16995
SWIDTH 822 0
DWIDTH 6 0
BBX 5 7 0 -1
BITMAP
78
F8
50
B8
50
78
50
ENDCHAR
STARTCHAR $4d6e
ENCODING 16996
SWIDTH 822 0
DWIDTH 6 0
BBX 5 7 0 -1
BITMAP
50
F8
98
28
90
38
98
ENDCHAR
STARTCHAR $4d6c
ENCODING 16997
SWIDTH 822 0
DWIDTH 6 0
BBX 5 7 0 -1
BITMAP
98
28
90
28
C0
B8
B8
ENDCHAR
STARTCHAR $4b63
ENCODING 17001
SWIDTH 822 0
DWIDTH 6 0
BBX 5 7 0 -1
BITMAP
20
F8
D0
F8
D0
F8
50
ENDCHAR
STARTCHAR $5357
ENCODING 17007
SWIDTH 822 0
DWIDTH 6 0
BBX 5 7 0 -1
BITMAP
10
F8
C0
D0
F8
78
90
ENDCHAR
STARTCHAR $4b64
ENCODING 17009
SWIDTH 822 0
DWIDTH 6 0
BBX 5 7 0 -1
BITMAP
78
78
F8
50
78
D0
38
ENDCHAR
STARTCHAR $477e
ENCODING 17011
SWIDTH 822 0
DWIDTH 6 0
BBX 5 7 0 -1
BITMAP
20
70
20
F8
50
A0
58
ENDCHAR
STARTCHAR $6677
ENCODING 17014
SWIDTH 822 0
DWIDTH 6 0
BBX 5 7 0 -1
BITMAP
D0
C0
F0
D8
F0
F8
D0
ENDCHAR
STARTCHAR $485a
ENCODING 17017
SWIDTH 822 0
DWIDTH 6 0
BBX 5 7 0 -1
BITMAP
20
F8
50
D8
70
28
F8
ENDCHAR
STARTCHAR $4c22
ENCODING 17019
SWIDTH 822 0
DWIDTH 6 0
BBX 5 7 0 -1
BITMAP
50
F8
70
F8
D8
20
D8
ENDCHAR
STARTCHAR $5258
ENCODING 17020
SWIDTH 822 0
DWIDTH 6 0
BBX 5 7 0 -1
BITMAP
70
50
F8
F8
50
20
D8
ENDCHAR
STARTCHAR $4b7d
ENCODING 17021
SWIDTH 822 0
DWIDTH 6 0
BBX 5 7 0 -1
BITMAP
58
D8
F8
78
68
50
68
ENDCHAR
STARTCHAR $4c21
ENCODING 17022
SWIDTH 822 0
DWIDTH 6 0
BBX 5 7 0 -1
BITMAP
98
18
B8
38
A8
90
A8
ENDCHAR
STARTCHAR $676a
ENCODING 17186
SWIDTH 822 0
DWIDTH 6 0
BBX 5 7 0 -1
BITMAP
50
F8
20
F8
40
40
78
ENDCHAR
STARTCHAR $682b
ENCODING 17187
SWIDTH 822 0
DWIDTH 6 0
BBX 5 7 0 -1
BITMAP
50
F8
90
38
A0
20
B8
ENDCHAR
STARTCHAR $4c55
ENCODING 17188
SWIDTH 822 0
DWIDTH 6 0
BBX 5 7 0 -1
BITMAP
20
F8
40
70
70
50
70
ENDCHAR
STARTCHAR $5d62
ENCODING 17189
SWIDTH 822 0
DWIDTH 6 0
BBX 5 7 0 -1
BITMAP
78
E8
B8
B0
B8
70
28
ENDCHAR
STARTCHAR $4b3b
ENCODING 17190
SWIDTH 822 0
DWIDTH 6 0
BBX 5 7 0 -1
BITMAP
50
F8
E0
60
60
60
58
ENDCHAR
STARTCHAR $684f
ENCODING 17191
SWIDTH 822 0
DWIDTH 6 0
BBX 5 7 0 -1
BITMAP
50
F8
50
88
50
F8
50
ENDCHAR
STARTCHAR $472d
ENCODING 17192
SWIDTH 822 0
DWIDTH 6 0
BBX 5 7 0 -1
BITMAP
A8
78
E8
40
F8
78
B8
ENDCHAR
STARTCHAR $337d
ENCODING 17193
SWIDTH 822 0
DWIDTH 6 0
BBX 5 7 0 -1
BITMAP
50
F8
70
10
F8
58
B0
ENDCHAR
STARTCHAR $4c53
ENCODING 17195
SWIDTH 822 0
DWIDTH 6 0
BBX 5 7 0 -1
BITMAP
10
60
38
E0
38
E0
38
ENDCHAR
STARTCHAR $4c37
ENCODING 17196
SWIDTH 822 0
DWIDTH 6 0
BBX 5 7 0 -1
BITMAP
F0
50
20
F8
68
A0
60
ENDCHAR
STARTCHAR $312c
ENCODING 17198
SWIDTH 822 0
DWIDTH 6 0
BBX 5 7 0 -1
BITMAP
78
A8
A8
A8
E8
60
A0
ENDCHAR
STARTCHAR $4c50
ENCODING 17199
SWIDTH 822 0
DWIDTH 6 0
BBX 5 7 0 -1
BITMAP
50
F8
50
F8
98
90
A8
ENDCHAR
STARTCHAR $4b41
ENCODING 17200
SWIDTH 822 0
DWIDTH 6 0
BBX 5 7 0 -1
BITMAP
F8
88
F8
50
70
50
70
ENDCHAR
STARTCHAR $4b39
ENCODING 17201
SWIDTH 822 0
DWIDTH 6 0
BBX 5 7 0 -1
BITMAP
78
E8
F8
C0
58
58
58
ENDCHAR
STARTCHAR $4b46
ENCODING 17202
SWIDTH 822 0
DWIDTH 6 0
BBX 5 7 0 -1
BITMAP
30
D8
68
B8
68
B0
68
ENDCHAR
STARTCHAR $4b67
ENCODING 17206
SWIDTH 822 0
DWIDTH 6 0
BBX 5 7 0 -1
BITMAP
50
D8
68
E8
E8
50
68
ENDCHAR
STARTCHAR $475f
ENCODING 17207
SWIDTH 822 0
DWIDTH 6 0
BBX 5 7 0 -1
BITMAP
60
F8
40
D8
D8
78
48
ENDCHAR
STARTCHAR $4761
ENCODING 17210
SWIDTH 822 0
DWIDTH 6 0
BBX 5 7 0 -1
BITMAP
68
78
E8
F8
50
78
90
ENDCHAR
STARTCHAR $4b57
ENCODING 17211
SWIDTH 822 0
DWIDTH 6 0
BBX 5 7 0 -1
BITMAP
B8
28
80
38
A8
90
A8
ENDCHAR
STARTCHAR $487d
ENCODING 17212
SWIDTH 822 0
DWIDTH 6 0
BBX 5 7 0 -1
BITMAP
F8
A8
F8
80
B8
B8
B8
ENDCHAR
STARTCHAR $475e
ENCODING 17213
SWIDTH 822 0
DWIDTH 6 0
BBX 5 7 0 -1
BITMAP
A8
B8
E8
F8
D0
78
90
ENDCHAR
STARTCHAR $487e
ENCODING 17216
SWIDTH 822 0
DWIDTH 6 0
BBX 5 7 0 -1
BITMAP
50
F8
70
20
F8
20
D8
ENDCHAR
STARTCHAR $4b66
ENCODING 17217
SWIDTH 822 0
DWIDTH 6 0
BBX 5 7 0 -1
BITMAP
10
F8
D0
F8
D0
F8
10
ENDCHAR
STARTCHAR $5567
ENCODING 17218
SWIDTH 822 0
DWIDTH 6 0
BBX 5 7 0 -1
BITMAP
20
F8
D8
78
D0
F8
50
ENDCHAR
STARTCHAR $4b65
ENCODING 17219
SWIDTH 822 0
DWIDTH 6 0
BBX 5 7 0 -1
BITMAP
90
B8
D0
F8
D0
78
90
ENDCHAR
STARTCHAR $553b
ENCODING 17220
SWIDTH 822 0
DWIDTH 6 0
BBX 5 7 0 -1
BITMAP
B8
B8
F8
E0
D8
58
98
ENDCHAR
STARTCHAR $4b28
ENCODING 17224
SWIDTH 822 0
DWIDTH 6 0
BBX 5 7 0 -1
BITMAP
50
F8
38
E8
F8
28
58
ENDCHAR
STARTCHAR $4c58
ENCODING 17225
SWIDTH 822 0
DWIDTH 6 0
BBX 5 7 0 -1
BITMAP
50
F8
50
F8
A8
50
A8
ENDCHAR
STARTCHAR $5d28
ENCODING 17226
SWIDTH 822 0
DWIDTH 6 0
BBX 5 7 0 -1
BITMAP
68
F8
68
D8
F0
58
70
ENDCHAR
STARTCHAR $4c41
ENCODING 17227
SWIDTH 822 0
DWIDTH 6 0
BBX 5 7 0 -1
BITMAP
38
E8
F8
28
58
70
F8
ENDCHAR
STARTCHAR $4c54
ENCODING 17229
SWIDTH 822 0
DWIDTH 6 0
BBX 5 7 0 -1
BITMAP
98
48
F8
50
F8
78
B8
ENDCHAR
STARTCHAR $546d
ENCODING 17230
SWIDTH 822 0
DWIDTH 6 0
BBX 5 7 0 -1
BITMAP
48
D8
48
30
50
20
C0
ENDCHAR
STARTCHAR $4c52
ENCODING 17231
SWIDTH 822 0
DWIDTH 6 0
BBX 5 7 0 -1
BITMAP
70
10
F8
20
70
70
F8
ENDCHAR
STARTCHAR $7353
ENCODING 17234
SWIDTH 822 0
DWIDTH 6 0
BBX 5 7 0 -1
BITMAP
20
F8
D0
F8
D0
58
90
ENDCHAR
STARTCHAR $6476
ENCODING 17235
SWIDTH 822 0
DWIDTH 6 0
BBX 5 7 0 -1
BITMAP
20
F8
F8
D0
F8
70
A8
ENDCHAR
STARTCHAR $4c42
ENCODING 17236
SWIDTH 822 0
DWIDTH 6 0
BBX 5 7 0 -1
BITMAP
A8
10
78
B0
D8
90
F8
ENDCHAR
STARTCHAR $4c6f
ENCODING 17238
SWIDTH 822 0
DWIDTH 6 0
BBX 5 7 0 -1
BITMAP
E0
78
D0
B8
F8
50
D0
ENDCHAR
STARTCHAR $4a46
ENCODING 17239
SWIDTH 822 0
DWIDTH 6 0
BBX 5 7 0 -1
BITMAP
A8
20
F8
20
70
A8
20
ENDCHAR
STARTCHAR $486b
ENCODING 17240
SWIDTH 822 0
DWIDTH 6 0
BBX 5 7 0 -1
BITMAP
D0
48
D0
70
F8
D0
68
ENDCHAR
STARTCHAR $4867
ENCODING 17242
SWIDTH 822 0
DWIDTH 6 0
BBX 5 7 0 -1
BITMAP
A0
10
A0
68
F0
A8
D8
ENDCHAR
STARTCHAR $4c2a
ENCODING 17243
SWIDTH 822 0
DWIDTH 6 0
BBX 5 7 0 -1
BITMAP
20
F8
D8
78
B0
28
F8
ENDCHAR
STARTCHAR $4c29
ENCODING 17244
SWIDTH 822 0
DWIDTH 6 0
BBX 5 7 0 -1
BITMAP
20
F8
A8
50
B0
68
78
ENDCHAR
STARTCHAR $4c49
ENCODING 17246
SWIDTH 822 0
DWIDTH 6 0
BBX 5 7 0 -1
BITMAP
50
E8
78
D0
F8
78
50
ENDCHAR
STARTCHAR $4c32
ENCODING 17247
SWIDTH 822 0
DWIDTH 6 0
BBX 5 7 0 -1
BITMAP
F8
C8
F8
D0
F8
D0
E8
ENDCHAR
STARTCHAR $514b
ENCODING 17249
SWIDTH 822 0
DWIDTH 6 0
BBX 5 7 0 -1
BITMAP
F8
88
78
A8
F8
50
98
ENDCHAR
STARTCHAR $4c48
ENCODING 17250
SWIDTH 822 0
DWIDTH 6 0
BBX 5 7 0 -1
BITMAP
30
D0
78
A8
F8
50
98
ENDCHAR
STARTCHAR $4a59
ENCODING 17251
SWIDTH 822 0
DWIDTH 6 0
BBX 5 7 0 -1
BITMAP
D0
78
D8
D8
E8
40
B8
ENDCHAR
STARTCHAR $4a5a
ENCODING 17252
SWIDTH 822 0
DWIDTH 6 0
BBX 5 7 0 -1
BITMAP
98
A8
D0
F8
F8
50
A8
ENDCHAR
STARTCHAR $4c4c
ENCODING 17254
SWIDTH 822 0
DWIDTH 6 0
BBX 5 7 0 -1
BITMAP
F8
20
F8
D8
F8
D8
F8
ENDCHAR
STARTCHAR $4944
ENCODING 17255
SWIDTH 822 0
DWIDTH 6 0
BBX 5 7 0 -1
BITMAP
50
F8
50
F8
F8
A8
F8
ENDCHAR
STARTCHAR $4941
ENCODING 17256
SWIDTH 822 0
DWIDTH 6 0
BBX 5 7 0 -1
BITMAP
68
F8
68
40
F8
78
F8
ENDCHAR
STARTCHAR $6938
ENCODING 17258
SWIDTH 822 0
DWIDTH 6 0
BBX 5 7 0 -1
BITMAP
50
F8
30
D8
58
B0
68
ENDCHAR
STARTCHAR $4943
ENCODING 17259
SWIDTH 822 0
DWIDTH 6 0
BBX 5 7 0 -1
BITMAP
D0
70
F8
50
C8
D0
60
ENDCHAR
STARTCHAR $5e5d
ENCODING 17260
SWIDTH 822 0
DWIDTH 6 0
BBX 5 7 0 -1
BITMAP
E8
78
F8
68
E0
E8
90
ENDCHAR
STARTCHAR $4c2f
ENCODING 17262
SWIDTH 822 0
DWIDTH 6 0
BBX 5 7 0 -1
BITMAP
90
B0
F8
D0
C8
50
A0
ENDCHAR
STARTCHAR $4a4e
ENCODING 17263
SWIDTH 822 0
DWIDTH 6 0
BBX 5 7 0 -1
BITMAP
50
F8
70
78
58
50
A8
ENDCHAR
STARTCHAR $4c31
ENCODING 17265
SWIDTH 822 0
DWIDTH 6 0
BBX 5 7 0 -1
BITMAP
F0
90
F0
A0
F8
90
C8
ENDCHAR
STARTCHAR $3b2e
ENCODING 17267
SWIDTH 822 0
DWIDTH 6 0
BBX 5 6 0 -1
BITMAP
78
58
58
58
58
F8
ENDCHAR
STARTCHAR $4952
ENCODING 17268
SWIDTH 822 0
DWIDTH 6 0
BBX 5 7 0 -1
BITMAP
90
F8
68
68
A8
F0
28
ENDCHAR
STARTCHAR $4c40
ENCODING 17271
SWIDTH 822 0
DWIDTH 6 0
BBX 5 7 0 -1
BITMAP
F8
A8
F8
A8
F8
28
58
ENDCHAR
STARTCHAR $6a26
ENCODING 17272
SWIDTH 822 0
DWIDTH 6 0
BBX 5 7 0 -1
BITMAP
78
E8
C0
F8
78
40
E8
ENDCHAR
STARTCHAR $4c3e
ENCODING 17275
SWIDTH 822 0
DWIDTH 6 0
BBX 5 7 0 -1
BITMAP
38
28
50
20
F8
28
38
ENDCHAR
STARTCHAR $4c3f
ENCODING 17276
SWIDTH 822 0
DWIDTH 6 0
BBX 5 7 0 -1
BITMAP
20
50
B8
00
D8
D8
10
ENDCHAR
STARTCHAR $4c4e
ENCODING 17278
SWIDTH 822 0
DWIDTH 6 0
BBX 5 7 0 -1
BITMAP
68
F8
78
68
F8
50
E8
ENDCHAR
STARTCHAR $4c4f
ENCODING 17443
SWIDTH 822 0
DWIDTH 6 0
BBX 5 7 0 -1
BITMAP
68
F8
78
E8
F8
50
68
ENDCHAR
STARTCHAR $4b6c
ENCODING 17444
SWIDTH 822 0
DWIDTH 6 0
BBX 5 7 0 -1
BITMAP
E8
F8
F8
E8
F8
D0
A8
ENDCHAR
STARTCHAR $4b61
ENCODING 17445
SWIDTH 822 0
DWIDTH 6 0
BBX 5 7 0 -1
BITMAP
20
F8
D0
F8
D0
78
B0
ENDCHAR
STARTCHAR $4b60
ENCODING 17446
SWIDTH 822 0
DWIDTH 6 0
BBX 5 7 0 -1
BITMAP
20
F8
D0
F8
D0
F8
60
ENDCHAR
STARTCHAR $4b62
ENCODING 17447
SWIDTH 822 0
DWIDTH 6 0
BBX 5 7 0 -1
BITMAP
20
F8
D0
F8
F0
70
98
ENDCHAR
STARTCHAR $4b75
ENCODING 17448
SWIDTH 822 0
DWIDTH 6 0
BBX 5 7 0 -1
BITMAP
50
F8
50
78
D0
78
D0
ENDCHAR
STARTCHAR $4b76
ENCODING 17449
SWIDTH 822 0
DWIDTH 6 0
BBX 5 7 0 -1
BITMAP
20
F8
20
70
20
70
A8
ENDCHAR
STARTCHAR $477c
ENCODING 17450
SWIDTH 822 0
DWIDTH 6 0
BBX 5 7 0 -1
BITMAP
50
F8
70
50
F8
20
D8
ENDCHAR
STARTCHAR $4b4f
ENCODING 17451
SWIDTH 822 0
DWIDTH 6 0
BBX 5 7 0 -1
BITMAP
F8
A8
F8
00
A8
00
F8
ENDCHAR
STARTCHAR $6054
ENCODING 17452
SWIDTH 822 0
DWIDTH 6 0
BBX 5 7 0 -1
BITMAP
D8
D0
F8
50
D0
10
A8
ENDCHAR
STARTCHAR $4b77
ENCODING 17453
SWIDTH 822 0
DWIDTH 6 0
BBX 5 7 0 -1
BITMAP
90
78
90
38
90
B8
D0
ENDCHAR
STARTCHAR $4779
ENCODING 17454
SWIDTH 822 0
DWIDTH 6 0
BBX 5 7 0 -1
BITMAP
A8
78
B8
28
F8
90
A8
ENDCHAR
STARTCHAR $556b
ENCODING 17455
SWIDTH 822 0
DWIDTH 6 0
BBX 5 7 0 -1
BITMAP
20
F8
D8
70
F8
20
D8
ENDCHAR
STARTCHAR $6f79
ENCODING 17456
SWIDTH 822 0
DWIDTH 6 0
BBX 5 7 0 -1
BITMAP
F8
D0
B8
E8
F8
A8
B8
ENDCHAR
STARTCHAR $4c36
ENCODING 17458
SWIDTH 822 0
DWIDTH 6 0
BBX 5 7 0 -1
BITMAP
20
48
F8
70
A0
F8
20
ENDCHAR
STARTCHAR $4b3f
ENCODING 17459
SWIDTH 822 0
DWIDTH 6 0
BBX 5 7 0 -1
BITMAP
50
F8
50
70
F8
70
A8
ENDCHAR
STARTCHAR $5945
ENCODING 17460
SWIDTH 822 0
DWIDTH 6 0
BBX 5 7 0 -1
BITMAP
58
D8
58
78
E8
78
C8
ENDCHAR
STARTCHAR $3234
ENCODING 17461
SWIDTH 822 0
DWIDTH 6 0
BBX 5 7 0 -1
BITMAP
D0
D0
F8
50
D0
50
78
ENDCHAR
STARTCHAR $5528
ENCODING 17463
SWIDTH 822 0
DWIDTH 6 0
BBX 5 7 0 -1
BITMAP
B8
A8
E8
F8
C8
78
98
ENDCHAR
STARTCHAR $4a6c
ENCODING 17464
SWIDTH 822 0
DWIDTH 6 0
BBX 5 7 0 -1
BITMAP
70
50
50
F8
B0
F8
10
ENDCHAR
STARTCHAR $4a68
ENCODING 17465
SWIDTH 822 0
DWIDTH 6 0
BBX 5 7 0 -1
BITMAP
50
F8
70
F8
50
A8
70
ENDCHAR
STARTCHAR $4a6b
ENCODING 17466
SWIDTH 822 0
DWIDTH 6 0
BBX 5 7 0 -1
BITMAP
50
F8
70
F8
50
B8
30
ENDCHAR
STARTCHAR $4b6b
ENCODING 17467
SWIDTH 822 0
DWIDTH 6 0
BBX 5 7 0 -1
BITMAP
50
F8
70
70
A8
70
50
ENDCHAR
STARTCHAR $4a67
ENCODING 17468
SWIDTH 822 0
DWIDTH 6 0
BBX 5 7 0 -1
BITMAP
50
F8
70
F8
50
B8
50
ENDCHAR
STARTCHAR $4a69
ENCODING 17469
SWIDTH 822 0
DWIDTH 6 0
BBX 5 7 0 -1
BITMAP
50
F8
70
F8
40
E8
40
ENDCHAR
STARTCHAR $4c5a
ENCODING 17470
SWIDTH 822 0
DWIDTH 6 0
BBX 5 7 0 -1
BITMAP
20
F8
20
70
70
A8
20
ENDCHAR
STARTCHAR $4c5c
ENCODING 17471
SWIDTH 822 0
DWIDTH 6 0
BBX 5 7 0 -1
BITMAP
F8
88
F8
88
F8
88
F8
ENDCHAR
STARTCHAR $4b53
ENCODING 17472
SWIDTH 822 0
DWIDTH 6 0
BBX 5 7 0 -1
BITMAP
D0
F8
D0
E8
C0
D0
F8
ENDCHAR
STARTCHAR $4b52
ENCODING 17473
SWIDTH 822 0
DWIDTH 6 0
BBX 5 7 0 -1
BITMAP
D0
D8
E8
68
E8
50
68
ENDCHAR
STARTCHAR $4b54
ENCODING 17474
SWIDTH 822 0
DWIDTH 6 0
BBX 5 7 0 -1
BITMAP
D0
78
F8
68
D0
C8
50
ENDCHAR
STARTCHAR $593d
ENCODING 17475
SWIDTH 822 0
DWIDTH 6 0
BBX 5 7 0 -1
BITMAP
20
50
F8
30
70
F8
20
ENDCHAR
STARTCHAR $4661
ENCODING 17479
SWIDTH 822 0
DWIDTH 6 0
BBX 5 7 0 -1
BITMAP
F8
58
F0
58
F8
50
B0
ENDCHAR
STARTCHAR $5531
ENCODING 17480
SWIDTH 822 0
DWIDTH 6 0
BBX 5 7 0 -1
BITMAP
B8
98
F0
D8
F8
50
B0
ENDCHAR
STARTCHAR $4735
ENCODING 17483
SWIDTH 822 0
DWIDTH 6 0
BBX 5 7 0 -1
BITMAP
F0
50
58
48
48
48
98
ENDCHAR
STARTCHAR $4251
ENCODING 17485
SWIDTH 822 0
DWIDTH 6 0
BBX 5 7 0 -1
BITMAP
E8
58
E8
B8
B8
A8
A8
ENDCHAR
STARTCHAR $4660
ENCODING 17486
SWIDTH 822 0
DWIDTH 6 0
BBX 5 7 0 -1
BITMAP
20
F8
50
88
70
20
A8
ENDCHAR
STARTCHAR $466e
ENCODING 17487
SWIDTH 822 0
DWIDTH 6 0
BBX 5 7 0 -1
BITMAP
20
F8
20
D8
A8
F8
A8
ENDCHAR
STARTCHAR $434b
ENCODING 17488
SWIDTH 822 0
DWIDTH 6 0
BBX 5 7 0 -1
BITMAP
F8
A8
F8
20
F8
48
98
ENDCHAR
STARTCHAR $4662
ENCODING 17498
SWIDTH 822 0
DWIDTH 6 0
BBX 5 7 0 -1
BITMAP
20
F8
A8
A8
D8
88
98
ENDCHAR
STARTCHAR $5544
ENCODING 17499
SWIDTH 822 0
DWIDTH 6 0
BBX 5 7 0 -1
BITMAP
90
B8
F8
F8
D8
70
A8
ENDCHAR
STARTCHAR $473d
ENCODING 17500
SWIDTH 822 0
DWIDTH 6 0
BBX 5 7 0 -1
BITMAP
50
98
C0
10
D8
D0
D8
ENDCHAR
STARTCHAR $703f
ENCODING 17502
SWIDTH 822 0
DWIDTH 6 0
BBX 5 7 0 -1
BITMAP
70
F8
A8
50
70
30
D8
ENDCHAR
STARTCHAR $5064
ENCODING 17503
SWIDTH 822 0
DWIDTH 6 0
BBX 5 7 0 -1
BITMAP
50
68
F8
E8
78
50
68
ENDCHAR
STARTCHAR $4525
ENCODING 17504
SWIDTH 822 0
DWIDTH 6 0
BBX 5 7 0 -1
BITMAP
F8
48
F8
50
D8
D0
98
ENDCHAR
STARTCHAR $4674
ENCODING 17505
SWIDTH 822 0
DWIDTH 6 0
BBX 5 7 0 -1
BITMAP
F8
88
F8
A0
B8
A0
B8
ENDCHAR
STARTCHAR $463f
ENCODING 17508
SWIDTH 822 0
DWIDTH 6 0
BBX 5 7 0 -1
BITMAP
F8
D0
F8
A0
F0
B0
F8
ENDCHAR
STARTCHAR $3555
ENCODING 17510
SWIDTH 822 0
DWIDTH 6 0
BBX 5 7 0 -1
BITMAP
A8
78
28
B8
90
A0
F8
ENDCHAR
STARTCHAR $452e
ENCODING 17511
SWIDTH 822 0
DWIDTH 6 0
BBX 5 7 0 -1
BITMAP
B8
18
B8
30
B8
D8
B8
ENDCHAR
STARTCHAR $5940
ENCODING 17513
SWIDTH 822 0
DWIDTH 6 0
BBX 5 7 0 -1
BITMAP
50
D0
58
50
F8
68
F8
ENDCHAR
STARTCHAR $472f
ENCODING 17514
SWIDTH 822 0
DWIDTH 6 0
BBX 5 7 0 -1
BITMAP
40
78
90
78
50
F8
10
ENDCHAR
STARTCHAR $627a
ENCODING 17515
SWIDTH 822 0
DWIDTH 6 0
BBX 5 7 0 -1
BITMAP
F8
48
78
F0
78
70
28
ENDCHAR
STARTCHAR $4731
ENCODING 17517
SWIDTH 822 0
DWIDTH 6 0
BBX 5 7 0 -1
BITMAP
50
E8
70
50
C0
68
D8
ENDCHAR
STARTCHAR $4730
ENCODING 17518
SWIDTH 822 0
DWIDTH 6 0
BBX 5 7 0 -1
BITMAP
20
50
B8
70
10
C8
B8
ENDCHAR
STARTCHAR $4c3c
ENCODING 17519
SWIDTH 822 0
DWIDTH 6 0
BBX 5 7 0 -1
BITMAP
90
B8
E8
F8
E8
70
A8
ENDCHAR
STARTCHAR $4722
ENCODING 17522
SWIDTH 822 0
DWIDTH 6 0
BBX 5 7 0 -1
BITMAP
F8
88
F8
A0
E8
B0
68
ENDCHAR
STARTCHAR $5954
ENCODING 17523
SWIDTH 822 0
DWIDTH 6 0
BBX 5 7 0 -1
BITMAP
78
E8
78
50
F8
50
F8
ENDCHAR
STARTCHAR $5e3a
ENCODING 17529
SWIDTH 822 0
DWIDTH 6 0
BBX 5 7 0 -1
BITMAP
B8
28
B8
10
B8
90
B8
ENDCHAR
STARTCHAR $3645
ENCODING 17533
SWIDTH 822 0
DWIDTH 6 0
BBX 5 7 0 -1
BITMAP
D8
68
58
70
F8
D0
A8
ENDCHAR
STARTCHAR $356d
ENCODING 17699
SWIDTH 822 0
DWIDTH 6 0
BBX 5 7 0 -1
BITMAP
60
78
A0
20
F8
20
20
ENDCHAR
STARTCHAR $4f2e
ENCODING 17706
SWIDTH 822 0
DWIDTH 6 0
BBX 5 7 0 -1
BITMAP
F8
20
F8
50
F8
50
90
ENDCHAR
STARTCHAR $455b
ENCODING 17707
SWIDTH 822 0
DWIDTH 6 0
BBX 5 7 0 -1
BITMAP
B8
88
E8
E8
D0
50
A8
ENDCHAR
STARTCHAR $4558
ENCODING 17708
SWIDTH 822 0
DWIDTH 6 0
BBX 5 7 0 -1
BITMAP
58
E8
50
A8
70
50
B0
ENDCHAR
STARTCHAR $455c
ENCODING 17709
SWIDTH 822 0
DWIDTH 6 0
BBX 5 7 0 -1
BITMAP
58
E8
50
A8
00
C8
B8
ENDCHAR
STARTCHAR $3d77
ENCODING 17710
SWIDTH 822 0
DWIDTH 6 0
BBX 5 7 0 -1
BITMAP
20
20
F8
50
60
30
C8
ENDCHAR
STARTCHAR $4348
ENCODING 17711
SWIDTH 822 0
DWIDTH 6 0
BBX 5 7 0 -1
BITMAP
38
C0
E8
D8
E8
D0
28
ENDCHAR
STARTCHAR $3554
ENCODING 17712
SWIDTH 822 0
DWIDTH 6 0
BBX 5 7 0 -1
BITMAP
20
38
E0
B8
B8
A0
B8
ENDCHAR
STARTCHAR $586f
ENCODING 17715
SWIDTH 822 0
DWIDTH 6 0
BBX 5 7 0 -1
BITMAP
78
D0
E8
40
50
78
68
ENDCHAR
STARTCHAR $6479
ENCODING 17716
SWIDTH 822 0
DWIDTH 6 0
BBX 5 7 0 -1
BITMAP
B8
50
E8
40
D0
F8
68
ENDCHAR
STARTCHAR $5328
ENCODING 17718
SWIDTH 822 0
DWIDTH 6 0
BBX 5 7 0 -1
BITMAP
38
D0
F8
D0
D8
30
08
ENDCHAR
STARTCHAR $3224
ENCODING 17719
SWIDTH 822 0
DWIDTH 6 0
BBX 5 7 0 -1
BITMAP
F0
98
C8
B0
D0
90
E8
ENDCHAR
STARTCHAR $3225
ENCODING 17721
SWIDTH 822 0
DWIDTH 6 0
BBX 5 7 0 -1
BITMAP
F8
A8
C0
B8
E8
90
E8
ENDCHAR
STARTCHAR $6939
ENCODING 17722
SWIDTH 822 0
DWIDTH 6 0
BBX 5 7 0 -1
BITMAP
50
F8
58
D8
78
F8
68
ENDCHAR
STARTCHAR $3676
ENCODING 17724
SWIDTH 822 0
DWIDTH 6 0
BBX 5 7 0 -1
BITMAP
78
68
F8
D0
78
78
68
ENDCHAR
STARTCHAR $6028
ENCODING 17728
SWIDTH 822 0
DWIDTH 6 0
BBX 5 7 0 -1
BITMAP
20
D8
D8
D0
D8
C0
B8
ENDCHAR
STARTCHAR $5766
ENCODING 17730
SWIDTH 822 0
DWIDTH 6 0
BBX 5 7 0 -1
BITMAP
50
F8
E8
78
68
68
78
ENDCHAR
STARTCHAR $474a
ENCODING 17731
SWIDTH 822 0
DWIDTH 6 0
BBX 5 7 0 -1
BITMAP
D8
50
F8
A8
F8
80
78
ENDCHAR
STARTCHAR $476f
ENCODING 17732
SWIDTH 822 0
DWIDTH 6 0
BBX 5 7 0 -1
BITMAP
50
F8
68
78
E8
68
F8
ENDCHAR
STARTCHAR $4753
ENCODING 17733
SWIDTH 822 0
DWIDTH 6 0
BBX 5 7 0 -1
BITMAP
70
F8
70
78
F0
78
D0
ENDCHAR
STARTCHAR $4757
ENCODING 17734
SWIDTH 822 0
DWIDTH 6 0
BBX 5 7 0 -1
BITMAP
D0
F8
E8
B8
D8
F8
C8
ENDCHAR
STARTCHAR $5751
ENCODING 17735
SWIDTH 822 0
DWIDTH 6 0
BBX 5 7 0 -1
BITMAP
70
B8
70
F8
70
78
50
ENDCHAR
STARTCHAR $5e5c
ENCODING 17736
SWIDTH 822 0
DWIDTH 6 0
BBX 5 7 0 -1
BITMAP
98
70
B8
70
B8
B0
D0
ENDCHAR
STARTCHAR $4749
ENCODING 17737
SWIDTH 822 0
DWIDTH 6 0
BBX 5 7 0 -1
BITMAP
88
70
C8
70
E8
F0
A8
ENDCHAR
STARTCHAR $5a35
ENCODING 17738
SWIDTH 822 0
DWIDTH 6 0
BBX 5 7 0 -1
BITMAP
68
D8
68
70
A8
70
60
ENDCHAR
STARTCHAR $5f2f
ENCODING 17739
SWIDTH 822 0
DWIDTH 6 0
BBX 5 7 0 -1
BITMAP
B8
10
B8
10
A8
98
98
ENDCHAR
STARTCHAR $4858
ENCODING 17741
SWIDTH 822 0
DWIDTH 6 0
BBX 5 7 0 -1
BITMAP
78
68
F0
A8
F8
70
B0
ENDCHAR
STARTCHAR $484a
ENCODING 17743
SWIDTH 822 0
DWIDTH 6 0
BBX 5 7 0 -1
BITMAP
28
E8
D0
F8
D0
F8
10
ENDCHAR
STARTCHAR $483d
ENCODING 17744
SWIDTH 822 0
DWIDTH 6 0
BBX 5 7 0 -1
BITMAP
A8
A8
48
E8
48
E8
58
ENDCHAR
STARTCHAR $4840
ENCODING 17745
SWIDTH 822 0
DWIDTH 6 0
BBX 5 7 0 -1
BITMAP
B8
20
F8
68
E8
50
A8
ENDCHAR
STARTCHAR $5a55
ENCODING 17748
SWIDTH 822 0
DWIDTH 6 0
BBX 5 7 0 -1
BITMAP
20
F8
50
F8
A8
30
50
ENDCHAR
STARTCHAR $6676
ENCODING 17750
SWIDTH 822 0
DWIDTH 6 0
BBX 5 7 0 -1
BITMAP
E8
C0
D0
F8
D0
F8
D0
ENDCHAR
STARTCHAR $5946
ENCODING 17751
SWIDTH 822 0
DWIDTH 6 0
BBX 5 7 0 -1
BITMAP
50
F8
58
58
E8
40
F8
ENDCHAR
STARTCHAR $5276
ENCODING 17752
SWIDTH 822 0
DWIDTH 6 0
BBX 5 7 0 -1
BITMAP
10
D8
E8
D8
D8
10
18
ENDCHAR
STARTCHAR $5f5c
ENCODING 17754
SWIDTH 822 0
DWIDTH 6 0
BBX 5 7 0 -1
BITMAP
50
58
E8
D8
58
50
98
ENDCHAR
STARTCHAR $6a5c
ENCODING 17755
SWIDTH 822 0
DWIDTH 6 0
BBX 5 7 0 -1
BITMAP
50
D8
68
98
58
50
58
ENDCHAR
STARTCHAR $4b22
ENCODING 17757
SWIDTH 822 0
DWIDTH 6 0
BBX 5 7 0 -1
BITMAP
A0
38
C8
30
90
A0
B8
ENDCHAR
STARTCHAR $6675
ENCODING 17759
SWIDTH 822 0
DWIDTH 6 0
BBX 5 7 0 -1
BITMAP
F8
D0
D0
E8
D0
D0
B8
ENDCHAR
STARTCHAR $475d
ENCODING 17760
SWIDTH 822 0
DWIDTH 6 0
BBX 5 7 0 -1
BITMAP
50
78
E8
78
40
D8
18
ENDCHAR
STARTCHAR $6a6a
ENCODING 17761
SWIDTH 822 0
DWIDTH 6 0
BBX 5 7 0 -1
BITMAP
50
D8
50
D8
78
D0
68
ENDCHAR
STARTCHAR $4766
ENCODING 17763
SWIDTH 822 0
DWIDTH 6 0
BBX 5 7 0 -1
BITMAP
D0
F8
A8
F8
C0
B8
B8
ENDCHAR
STARTCHAR $475b
ENCODING 17764
SWIDTH 822 0
DWIDTH 6 0
BBX 5 7 0 -1
BITMAP
F8
48
E8
F8
A0
E8
F8
ENDCHAR
STARTCHAR $5050
ENCODING 17765
SWIDTH 822 0
DWIDTH 6 0
BBX 5 7 0 -1
BITMAP
78
48
F8
D8
78
78
58
ENDCHAR
STARTCHAR $5d6f
ENCODING 17766
SWIDTH 822 0
DWIDTH 6 0
BBX 5 7 0 -1
BITMAP
90
78
90
78
D8
D8
90
ENDCHAR
STARTCHAR $4b5f
ENCODING 17768
SWIDTH 822 0
DWIDTH 6 0
BBX 5 7 0 -1
BITMAP
50
88
30
50
00
70
F8
ENDCHAR
STARTCHAR $4b23
ENCODING 17771
SWIDTH 822 0
DWIDTH 6 0
BBX 5 7 0 -1
BITMAP
20
F8
50
70
10
00
A8
ENDCHAR
STARTCHAR $5f30
ENCODING 17772
SWIDTH 822 0
DWIDTH 6 0
BBX 5 7 0 -1
BITMAP
A8
70
A8
70
E0
A8
F0
ENDCHAR
STARTCHAR $5745
ENCODING 17773
SWIDTH 822 0
DWIDTH 6 0
BBX 5 7 0 -1
BITMAP
48
F0
48
F0
A0
48
F0
ENDCHAR
STARTCHAR $4b29
ENCODING 17774
SWIDTH 822 0
DWIDTH 6 0
BBX 5 7 0 -1
BITMAP
50
F8
A8
10
B8
90
F8
ENDCHAR
STARTCHAR $432a
ENCODING 17775
SWIDTH 822 0
DWIDTH 6 0
BBX 5 7 0 -1
BITMAP
78
E8
78
E8
F8
68
58
ENDCHAR
STARTCHAR $626f
ENCODING 17776
SWIDTH 822 0
DWIDTH 6 0
BBX 5 7 0 -1
BITMAP
F8
68
78
A8
78
68
58
ENDCHAR
STARTCHAR $644b
ENCODING 17777
SWIDTH 822 0
DWIDTH 6 0
BBX 5 7 0 -1
BITMAP
90
D8
68
90
38
90
F8
ENDCHAR
STARTCHAR $4b44
ENCODING 17778
SWIDTH 822 0
DWIDTH 6 0
BBX 5 7 0 -1
BITMAP
E8
F0
E8
D0
E0
E8
D0
ENDCHAR
STARTCHAR $4a7e
ENCODING 17779
SWIDTH 822 0
DWIDTH 6 0
BBX 5 7 0 -1
BITMAP
78
68
78
68
78
68
D8
ENDCHAR
STARTCHAR $4a7b
ENCODING 17781
SWIDTH 822 0
DWIDTH 6 0
BBX 5 7 0 -1
BITMAP
50
F8
78
68
D0
78
D0
ENDCHAR
STARTCHAR $6267
ENCODING 17784
SWIDTH 822 0
DWIDTH 6 0
BBX 5 7 0 -1
BITMAP
D0
70
70
B8
70
70
38
ENDCHAR
STARTCHAR $7048
ENCODING 17785
SWIDTH 822 0
DWIDTH 6 0
BBX 5 7 0 -1
BITMAP
70
F8
A8
D0
B8
E8
D0
ENDCHAR
STARTCHAR $4863
ENCODING 17786
SWIDTH 822 0
DWIDTH 6 0
BBX 5 7 0 -1
BITMAP
70
F0
78
70
F0
70
F8
ENDCHAR
STARTCHAR $4864
ENCODING 17787
SWIDTH 822 0
DWIDTH 6 0
BBX 5 7 0 -1
BITMAP
50
F8
70
78
E8
50
E8
ENDCHAR
STARTCHAR $517c
ENCODING 17788
SWIDTH 822 0
DWIDTH 6 0
BBX 5 7 0 -1
BITMAP
D0
F8
A8
D0
F8
28
D8
ENDCHAR
STARTCHAR $487c
ENCODING 17789
SWIDTH 822 0
DWIDTH 6 0
BBX 5 7 0 -1
BITMAP
D8
50
D8
90
D8
90
D8
ENDCHAR
STARTCHAR $6723
ENCODING 17954
SWIDTH 822 0
DWIDTH 6 0
BBX 5 7 0 -1
BITMAP
D0
F8
E8
F8
D8
F8
C8
ENDCHAR
STARTCHAR $4868
ENCODING 17955
SWIDTH 822 0
DWIDTH 6 0
BBX 5 7 0 -1
BITMAP
10
78
D0
78
E8
70
A8
ENDCHAR
STARTCHAR $4869
ENCODING 17956
SWIDTH 822 0
DWIDTH 6 0
BBX 5 7 0 -1
BITMAP
20
F8
A8
F0
D0
A0
D8
ENDCHAR
STARTCHAR $4924
ENCODING 17957
SWIDTH 822 0
DWIDTH 6 0
BBX 5 7 0 -1
BITMAP
F8
D0
D0
D0
98
80
F8
ENDCHAR
STARTCHAR $615d
ENCODING 17958
SWIDTH 822 0
DWIDTH 6 0
BBX 5 7 0 -1
BITMAP
10
78
F8
50
E8
58
98
ENDCHAR
STARTCHAR $4a48
ENCODING 17959
SWIDTH 822 0
DWIDTH 6 0
BBX 5 7 0 -1
BITMAP
50
78
E8
D8
70
78
50
ENDCHAR
STARTCHAR $557b
ENCODING 17960
SWIDTH 822 0
DWIDTH 6 0
BBX 5 7 0 -1
BITMAP
F8
88
F8
90
D8
90
D8
ENDCHAR
STARTCHAR $6c22
ENCODING 17961
SWIDTH 822 0
DWIDTH 6 0
BBX 5 7 0 -1
BITMAP
D0
F8
A8
F0
00
70
70
ENDCHAR
STARTCHAR $4a53
ENCODING 17962
SWIDTH 822 0
DWIDTH 6 0
BBX 5 7 0 -1
BITMAP
90
D8
70
70
40
B8
28
ENDCHAR
STARTCHAR $4a50
ENCODING 17963
SWIDTH 822 0
DWIDTH 6 0
BBX 5 7 0 -1
BITMAP
78
50
F0
C0
78
78
68
ENDCHAR
STARTCHAR $4a52
ENCODING 17964
SWIDTH 822 0
DWIDTH 6 0
BBX 5 7 0 -1
BITMAP
50
50
78
40
78
48
88
ENDCHAR
STARTCHAR $493a
ENCODING 17967
SWIDTH 822 0
DWIDTH 6 0
BBX 5 7 0 -1
BITMAP
F8
30
80
78
90
D8
90
ENDCHAR
STARTCHAR $493b
ENCODING 17968
SWIDTH 822 0
DWIDTH 6 0
BBX 5 7 0 -1
BITMAP
E8
70
28
E8
68
E8
48
ENDCHAR
STARTCHAR $493c
ENCODING 17969
SWIDTH 822 0
DWIDTH 6 0
BBX 5 7 0 -1
BITMAP
F8
70
70
00
F8
20
A8
ENDCHAR
STARTCHAR $4a4d
ENCODING 17971
SWIDTH 822 0
DWIDTH 6 0
BBX 5 7 0 -1
BITMAP
B8
68
F0
A8
70
70
70
ENDCHAR
STARTCHAR $494a
ENCODING 17975
SWIDTH 822 0
DWIDTH 6 0
BBX 5 7 0 -1
BITMAP
70
50
70
00
D8
D8
D8
ENDCHAR
STARTCHAR $665b
ENCODING 17976
SWIDTH 822 0
DWIDTH 6 0
BBX 5 7 0 -1
BITMAP
D0
F8
F8
F8
D0
D8
48
ENDCHAR
STARTCHAR $445a
ENCODING 17978
SWIDTH 822 0
DWIDTH 6 0
BBX 5 7 0 -1
BITMAP
78
50
F8
50
78
D0
10
ENDCHAR
STARTCHAR $6779
ENCODING 17979
SWIDTH 822 0
DWIDTH 6 0
BBX 5 7 0 -1
BITMAP
50
F8
70
A8
20
F8
20
ENDCHAR
STARTCHAR $684c
ENCODING 17980
SWIDTH 822 0
DWIDTH 6 0
BBX 5 7 0 -1
BITMAP
50
F8
B8
38
90
38
90
ENDCHAR
STARTCHAR $4a3f
ENCODING 17981
SWIDTH 822 0
DWIDTH 6 0
BBX 5 7 0 -1
BITMAP
F8
20
A8
20
F8
20
20
ENDCHAR
STARTCHAR $515f
ENCODING 17982
SWIDTH 822 0
DWIDTH 6 0
BBX 5 7 0 -1
BITMAP
78
50
F8
50
78
50
98
ENDCHAR
STARTCHAR $4953
ENCODING 17983
SWIDTH 822 0
DWIDTH 6 0
BBX 5 7 0 -1
BITMAP
B8
20
F0
70
F0
70
A8
ENDCHAR
STARTCHAR $5622
ENCODING 17985
SWIDTH 822 0
DWIDTH 6 0
BBX 5 7 0 -1
BITMAP
F8
F8
D0
F8
D0
F8
50
ENDCHAR
STARTCHAR $5433
ENCODING 17986
SWIDTH 822 0
DWIDTH 6 0
BBX 5 7 0 -1
BITMAP
50
78
F0
78
68
D0
28
ENDCHAR
STARTCHAR $474c
ENCODING 17989
SWIDTH 822 0
DWIDTH 6 0
BBX 5 7 0 -1
BITMAP
90
38
B0
68
F8
50
E8
ENDCHAR
STARTCHAR $474b
ENCODING 17990
SWIDTH 822 0
DWIDTH 6 0
BBX 5 7 0 -1
BITMAP
D0
78
70
B8
68
50
28
ENDCHAR
STARTCHAR $7230
ENCODING 17991
SWIDTH 822 0
DWIDTH 6 0
BBX 5 7 0 -1
BITMAP
50
F8
B8
F8
B0
D0
28
ENDCHAR
STARTCHAR $4777
ENCODING 17992
SWIDTH 822 0
DWIDTH 6 0
BBX 5 7 0 -1
BITMAP
90
38
28
B8
A8
B8
F8
ENDCHAR
STARTCHAR $4774
ENCODING 17993
SWIDTH 822 0
DWIDTH 6 0
BBX 5 7 0 -1
BITMAP
90
78
E8
78
E8
E8
78
ENDCHAR
STARTCHAR $4b36
ENCODING 17994
SWIDTH 822 0
DWIDTH 6 0
BBX 5 7 0 -1
BITMAP
48
E8
A8
E8
08
C8
D8
ENDCHAR
STARTCHAR $503d
ENCODING 17997
SWIDTH 822 0
DWIDTH 6 0
BBX 5 7 0 -1
BITMAP
50
50
D0
D8
50
50
50
ENDCHAR
STARTCHAR $4972
ENCODING 17999
SWIDTH 822 0
DWIDTH 6 0
BBX 5 7 0 -1
BITMAP
50
F8
78
C8
68
68
68
ENDCHAR
STARTCHAR $4a6e
ENCODING 18000
SWIDTH 822 0
DWIDTH 6 0
BBX 5 7 0 -1
BITMAP
50
F8
20
F8
50
F8
70
ENDCHAR
STARTCHAR $3377
ENCODING 18001
SWIDTH 822 0
DWIDTH 6 0
BBX 5 7 0 -1
BITMAP
50
F8
90
38
A8
38
A8
ENDCHAR
STARTCHAR $543e
ENCODING 18002
SWIDTH 822 0
DWIDTH 6 0
BBX 5 7 0 -1
BITMAP
50
78
D0
78
78
F8
28
ENDCHAR
STARTCHAR $4b51
ENCODING 18003
SWIDTH 822 0
DWIDTH 6 0
BBX 5 7 0 -1
BITMAP
50
F0
50
F8
D0
50
50
ENDCHAR
STARTCHAR $4a60
ENCODING 18004
SWIDTH 822 0
DWIDTH 6 0
BBX 5 7 0 -1
BITMAP
F8
A8
F8
A8
B8
B8
F8
ENDCHAR
STARTCHAR $4961
ENCODING 18005
SWIDTH 822 0
DWIDTH 6 0
BBX 5 7 0 -1
BITMAP
50
F8
D8
50
F8
50
70
ENDCHAR
STARTCHAR $313a
ENCODING 18006
SWIDTH 822 0
DWIDTH 6 0
BBX 5 7 0 -1
BITMAP
90
38
90
38
B8
B8
A8
ENDCHAR
STARTCHAR $4778
ENCODING 18008
SWIDTH 822 0
DWIDTH 6 0
BBX 5 7 0 -1
BITMAP
38
F8
D0
E8
D0
E8
10
ENDCHAR
STARTCHAR $5f46
ENCODING 18009
SWIDTH 822 0
DWIDTH 6 0
BBX 5 7 0 -1
BITMAP
B8
38
90
28
90
A8
90
ENDCHAR
STARTCHAR $347c
ENCODING 18010
SWIDTH 822 0
DWIDTH 6 0
BBX 5 7 0 -1
BITMAP
58
F8
78
78
F8
18
A8
ENDCHAR
STARTCHAR $353d
ENCODING 18011
SWIDTH 822 0
DWIDTH 6 0
BBX 5 7 0 -1
BITMAP
50
F8
68
70
F0
10
A8
ENDCHAR
STARTCHAR $4034
ENCODING 18012
SWIDTH 822 0
DWIDTH 6 0
BBX 5 7 0 -1
BITMAP
78
D0
78
F8
E8
68
78
ENDCHAR
STARTCHAR $404c
ENCODING 18013
SWIDTH 822 0
DWIDTH 6 0
BBX 5 7 0 -1
BITMAP
10
F8
D0
F0
D8
F0
48
ENDCHAR
STARTCHAR $3a4a
ENCODING 18014
SWIDTH 822 0
DWIDTH 6 0
BBX 5 7 0 -1
BITMAP
20
F8
30
70
F8
50
E8
ENDCHAR
STARTCHAR $3c37
ENCODING 18015
SWIDTH 822 0
DWIDTH 6 0
BBX 5 7 0 -1
BITMAP
40
40
58
E0
40
48
38
ENDCHAR
STARTCHAR $4028
ENCODING 18016
SWIDTH 822 0
DWIDTH 6 0
BBX 5 7 0 -1
BITMAP
90
78
10
30
F8
B0
E8
ENDCHAR
STARTCHAR $3c3f
ENCODING 18017
SWIDTH 822 0
DWIDTH 6 0
BBX 5 7 0 -1
BITMAP
90
78
B0
58
B0
D8
B0
ENDCHAR
STARTCHAR $4236
ENCODING 18020
SWIDTH 822 0
DWIDTH 6 0
BBX 5 7 0 -1
BITMAP
50
F8
50
70
F8
00
88
ENDCHAR
STARTCHAR $347d
ENCODING 18021
SWIDTH 822 0
DWIDTH 6 0
BBX 5 7 0 -1
BITMAP
68
F8
78
F8
F8
40
68
ENDCHAR
STARTCHAR $3471
ENCODING 18022
SWIDTH 822 0
DWIDTH 6 0
BBX 5 7 0 -1
BITMAP
20
F8
20
50
F8
10
50
ENDCHAR
STARTCHAR $374d
ENCODING 18024
SWIDTH 822 0
DWIDTH 6 0
BBX 5 7 0 -1
BITMAP
10
F8
D0
F8
D0
D0
38
ENDCHAR
STARTCHAR $3a6a
ENCODING 18025
SWIDTH 822 0
DWIDTH 6 0
BBX 5 7 0 -1
BITMAP
50
78
50
E8
F8
C8
28
ENDCHAR
STARTCHAR $347a
ENCODING 18028
SWIDTH 822 0
DWIDTH 6 0
BBX 5 7 0 -1
BITMAP
50
F8
58
78
78
A0
A8
ENDCHAR
STARTCHAR $3527
ENCODING 18029
SWIDTH 822 0
DWIDTH 6 0
BBX 5 7 0 -1
BITMAP
48
F0
60
B8
68
68
48
ENDCHAR
STARTCHAR $3737
ENCODING 18030
SWIDTH 822 0
DWIDTH 6 0
BBX 5 7 0 -1
BITMAP
58
F8
30
58
F8
50
50
ENDCHAR
STARTCHAR $352f
ENCODING 18032
SWIDTH 822 0
DWIDTH 6 0
BBX 5 7 0 -1
BITMAP
58
E8
58
F0
58
C0
B8
ENDCHAR
STARTCHAR $3870
ENCODING 18034
SWIDTH 822 0
DWIDTH 6 0
BBX 5 7 0 -1
BITMAP
40
78
80
70
20
48
38
ENDCHAR
STARTCHAR $346b
ENCODING 18035
SWIDTH 822 0
DWIDTH 6 0
BBX 5 7 0 -1
BITMAP
20
50
88
10
58
50
F8
ENDCHAR
STARTCHAR $3740
ENCODING 18037
SWIDTH 822 0
DWIDTH 6 0
BBX 5 7 0 -1
BITMAP
78
D8
68
C0
F8
20
D8
ENDCHAR
STARTCHAR $6266
ENCODING 18038
SWIDTH 822 0
DWIDTH 6 0
BBX 5 7 0 -1
BITMAP
D8
58
78
98
58
78
28
ENDCHAR
STARTCHAR $346f
ENCODING 18039
SWIDTH 822 0
DWIDTH 6 0
BBX 5 7 0 -1
BITMAP
D8
D8
20
F8
50
D8
D8
ENDCHAR
STARTCHAR $5d63
ENCODING 18040
SWIDTH 822 0
DWIDTH 6 0
BBX 5 7 0 -1
BITMAP
80
F8
60
F0
10
10
08
ENDCHAR
STARTCHAR $4b78
ENCODING 18041
SWIDTH 822 0
DWIDTH 6 0
BBX 5 7 0 -1
BITMAP
A0
38
58
90
A0
98
F8
ENDCHAR
STARTCHAR $5731
ENCODING 18042
SWIDTH 822 0
DWIDTH 6 0
BBX 5 7 0 -1
BITMAP
20
F8
50
E8
50
F8
90
ENDCHAR
STARTCHAR $3525
ENCODING 18043
SWIDTH 822 0
DWIDTH 6 0
BBX 5 7 0 -1
BITMAP
A0
38
80
30
90
90
88
ENDCHAR
STARTCHAR $3563
ENCODING 18044
SWIDTH 822 0
DWIDTH 6 0
BBX 5 7 0 -1
BITMAP
90
38
88
28
A8
90
B8
ENDCHAR
STARTCHAR $3366
ENCODING 18209
SWIDTH 822 0
DWIDTH 6 0
BBX 5 7 0 -1
BITMAP
50
E8
D8
40
78
68
78
ENDCHAR
STARTCHAR $5e2a
ENCODING 18210
SWIDTH 822 0
DWIDTH 6 0
BBX 5 7 0 -1
BITMAP
90
28
B8
00
B8
A8
B8
ENDCHAR
STARTCHAR $4069
ENCODING 18215
SWIDTH 822 0
DWIDTH 6 0
BBX 5 7 0 -1
BITMAP
10
60
20
F8
20
20
20
ENDCHAR
STARTCHAR $5042
ENCODING 18218
SWIDTH 822 0
DWIDTH 6 0
BBX 5 7 0 -1
BITMAP
48
70
D0
F8
50
50
50
ENDCHAR
STARTCHAR $3425
ENCODING 18220
SWIDTH 822 0
DWIDTH 6 0
BBX 5 7 0 -1
BITMAP
E0
78
C0
F8
50
E0
58
ENDCHAR
STARTCHAR $7358
ENCODING 18221
SWIDTH 822 0
DWIDTH 6 0
BBX 5 7 0 -1
BITMAP
D0
E8
D8
40
F8
08
B0
ENDCHAR
STARTCHAR $4130
ENCODING 18224
SWIDTH 822 0
DWIDTH 6 0
BBX 5 7 0 -1
BITMAP
50
F8
00
E8
A8
E8
A8
ENDCHAR
STARTCHAR $4078
ENCODING 18225
SWIDTH 822 0
DWIDTH 6 0
BBX 5 7 0 -1
BITMAP
B0
78
B0
68
80
B0
B0
ENDCHAR
STARTCHAR $382f
ENCODING 18226
SWIDTH 822 0
DWIDTH 6 0
BBX 5 7 0 -1
BITMAP
90
78
58
F8
B0
B8
F8
ENDCHAR
STARTCHAR $4075
ENCODING 18227
SWIDTH 822 0
DWIDTH 6 0
BBX 5 7 0 -1
BITMAP
98
70
98
70
98
90
A8
ENDCHAR
STARTCHAR $5648
ENCODING 18230
SWIDTH 822 0
DWIDTH 6 0
BBX 5 7 0 -1
BITMAP
A8
F8
18
B0
F0
B0
E8
ENDCHAR
STARTCHAR $3767
ENCODING 18231
SWIDTH 822 0
DWIDTH 6 0
BBX 5 7 0 -1
BITMAP
40
78
A8
20
20
50
88
ENDCHAR
STARTCHAR $5d3e
ENCODING 18232
SWIDTH 822 0
DWIDTH 6 0
BBX 5 7 0 -1
BITMAP
B0
F8
68
F0
50
F0
48
ENDCHAR
STARTCHAR $3950
ENCODING 18235
SWIDTH 822 0
DWIDTH 6 0
BBX 5 7 0 -1
BITMAP
D0
F8
E8
C0
F8
D0
F8
ENDCHAR
STARTCHAR $6635
ENCODING 18236
SWIDTH 822 0
DWIDTH 6 0
BBX 5 7 0 -1
BITMAP
50
F8
70
20
F8
50
98
ENDCHAR
STARTCHAR $5c72
ENCODING 18241
SWIDTH 822 0
DWIDTH 6 0
BBX 5 7 0 -1
BITMAP
70
E0
78
E0
D8
50
58
ENDCHAR
STARTCHAR $5a4a
ENCODING 18243
SWIDTH 822 0
DWIDTH 6 0
BBX 5 7 0 -1
BITMAP
50
F8
70
18
E8
F0
A8
ENDCHAR
STARTCHAR $5821
ENCODING 18244
SWIDTH 822 0
DWIDTH 6 0
BBX 5 7 0 -1
BITMAP
68
C0
D0
78
68
78
68
ENDCHAR
STARTCHAR $392a
ENCODING 18249
SWIDTH 822 0
DWIDTH 6 0
BBX 5 7 0 -1
BITMAP
38
D0
50
58
48
C8
18
ENDCHAR
STARTCHAR $3e64
ENCODING 18250
SWIDTH 822 0
DWIDTH 6 0
BBX 5 7 0 -1
BITMAP
A8
D0
F8
68
F8
E8
68
ENDCHAR
STARTCHAR $5639
ENCODING 18253
SWIDTH 822 0
DWIDTH 6 0
BBX 5 7 0 -1
BITMAP
68
40
50
F8
E8
F8
28
ENDCHAR
STARTCHAR $405a
ENCODING 18256
SWIDTH 822 0
DWIDTH 6 0
BBX 5 7 0 -1
BITMAP
58
58
F8
58
78
18
28
ENDCHAR
STARTCHAR $3258
ENCODING 18257
SWIDTH 822 0
DWIDTH 6 0
BBX 5 7 0 -1
BITMAP
50
F8
50
40
F8
68
B8
ENDCHAR
STARTCHAR $336e
ENCODING 18258
SWIDTH 822 0
DWIDTH 6 0
BBX 5 7 0 -1
BITMAP
70
50
70
50
70
50
F8
ENDCHAR
STARTCHAR $3631
ENCODING 18259
SWIDTH 822 0
DWIDTH 6 0
BBX 5 7 0 -1
BITMAP
50
F8
D0
78
50
60
78
ENDCHAR
STARTCHAR $4060
ENCODING 18260
SWIDTH 822 0
DWIDTH 6 0
BBX 5 7 0 -1
BITMAP
20
F8
D8
40
F8
58
68
ENDCHAR
STARTCHAR $3f2f
ENCODING 18262
SWIDTH 822 0
DWIDTH 6 0
BBX 5 7 0 -1
BITMAP
58
48
D8
F8
68
50
68
ENDCHAR
STARTCHAR $3f41
ENCODING 18264
SWIDTH 822 0
DWIDTH 6 0
BBX 5 7 0 -1
BITMAP
20
F8
70
F8
A8
70
A8
ENDCHAR
STARTCHAR $3657
ENCODING 18265
SWIDTH 822 0
DWIDTH 6 0
BBX 5 7 0 -1
BITMAP
D8
50
A8
50
F8
10
20
ENDCHAR
STARTCHAR $3650
ENCODING 18266
SWIDTH 822 0
DWIDTH 6 0
BBX 5 7 0 -1
BITMAP
B0
F8
F8
58
F8
58
E8
ENDCHAR
STARTCHAR $365c
ENCODING 18267
SWIDTH 822 0
DWIDTH 6 0
BBX 5 7 0 -1
BITMAP
50
F8
50
78
40
78
90
ENDCHAR
STARTCHAR $5a22
ENCODING 18268
SWIDTH 822 0
DWIDTH 6 0
BBX 5 7 0 -1
BITMAP
50
E8
58
58
F8
78
E8
ENDCHAR
STARTCHAR $3659
ENCODING 18269
SWIDTH 822 0
DWIDTH 6 0
BBX 5 7 0 -1
BITMAP
20
D8
70
70
F8
E8
88
ENDCHAR
STARTCHAR $3f32
ENCODING 18270
SWIDTH 822 0
DWIDTH 6 0
BBX 5 7 0 -1
BITMAP
20
F8
98
F8
68
D0
68
ENDCHAR
STARTCHAR $5d6e
ENCODING 18271
SWIDTH 822 0
DWIDTH 6 0
BBX 5 7 0 -1
BITMAP
A0
10
A0
28
E0
A8
B8
ENDCHAR
STARTCHAR $4044
ENCODING 18272
SWIDTH 822 0
DWIDTH 6 0
BBX 5 7 0 -1
BITMAP
20
70
20
F8
50
70
50
ENDCHAR
STARTCHAR $362a
ENCODING 18276
SWIDTH 822 0
DWIDTH 6 0
BBX 5 7 0 -1
BITMAP
58
98
F8
F8
D8
70
90
ENDCHAR
STARTCHAR $4036
ENCODING 18277
SWIDTH 822 0
DWIDTH 6 0
BBX 5 7 0 -1
BITMAP
90
38
90
78
A8
B8
A8
ENDCHAR
STARTCHAR $4032
ENCODING 18279
SWIDTH 822 0
DWIDTH 6 0
BBX 5 7 0 -1
BITMAP
10
F8
D0
F8
E8
F8
28
ENDCHAR
STARTCHAR $3e70
ENCODING 18281
SWIDTH 822 0
DWIDTH 6 0
BBX 5 7 0 -1
BITMAP
50
F8
D0
78
68
78
68
ENDCHAR
STARTCHAR $3d29
ENCODING 18287
SWIDTH 822 0
DWIDTH 6 0
BBX 5 7 0 -1
BITMAP
D0
50
F8
70
D0
D0
68
ENDCHAR
STARTCHAR $3556
ENCODING 18288
SWIDTH 822 0
DWIDTH 6 0
BBX 5 7 0 -1
BITMAP
10
60
40
78
50
50
F8
ENDCHAR
STARTCHAR $6e39
ENCODING 18289
SWIDTH 822 0
DWIDTH 6 0
BBX 5 7 0 -1
BITMAP
38
D8
90
F8
B8
B0
D0
ENDCHAR
STARTCHAR $3565
ENCODING 18290
SWIDTH 822 0
DWIDTH 6 0
BBX 5 7 0 -1
BITMAP
10
F8
50
D8
70
D8
30
ENDCHAR
STARTCHAR $3561
ENCODING 18291
SWIDTH 822 0
DWIDTH 6 0
BBX 5 7 0 -1
BITMAP
28
F8
20
A8
70
A8
60
ENDCHAR
STARTCHAR $3c7c
ENCODING 18292
SWIDTH 822 0
DWIDTH 6 0
BBX 5 7 0 -1
BITMAP
F8
88
A8
A8
D8
88
F8
ENDCHAR
STARTCHAR $3d36
ENCODING 18293
SWIDTH 822 0
DWIDTH 6 0
BBX 5 7 0 -1
BITMAP
50
F8
50
F8
D8
88
F8
ENDCHAR
STARTCHAR $5d7a
ENCODING 18294
SWIDTH 822 0
DWIDTH 6 0
BBX 5 7 0 -1
BITMAP
F8
48
D8
58
E8
C8
F8
ENDCHAR
STARTCHAR $3668
ENCODING 18296
SWIDTH 822 0
DWIDTH 6 0
BBX 5 7 0 -1
BITMAP
F8
80
D0
A0
D0
80
F8
ENDCHAR
STARTCHAR $6957
ENCODING 18297
SWIDTH 822 0
DWIDTH 6 0
BBX 5 7 0 -1
BITMAP
78
E8
B8
E8
78
68
F8
ENDCHAR
STARTCHAR $364a
ENCODING 18298
SWIDTH 822 0
DWIDTH 6 0
BBX 5 7 0 -1
BITMAP
50
50
F8
D8
F8
D8
F8
ENDCHAR
STARTCHAR $366d
ENCODING 18299
SWIDTH 822 0
DWIDTH 6 0
BBX 5 7 0 -1
BITMAP
38
60
68
70
E8
60
B8
ENDCHAR
STARTCHAR $367e
ENCODING 18300
SWIDTH 822 0
DWIDTH 6 0
BBX 5 7 0 -1
BITMAP
F8
88
F8
B8
90
D8
F8
ENDCHAR
STARTCHAR $3574
ENCODING 18302
SWIDTH 822 0
DWIDTH 6 0
BBX 5 7 0 -1
BITMAP
B8
30
B8
20
F8
70
A8
ENDCHAR
STARTCHAR $3c68
ENCODING 18465
SWIDTH 822 0
DWIDTH 6 0
BBX 5 7 0 -1
BITMAP
E0
78
68
68
70
E8
20
ENDCHAR
STARTCHAR $5538
ENCODING 18466
SWIDTH 822 0
DWIDTH 6 0
BBX 5 7 0 -1
BITMAP
F8
68
F0
28
F8
50
E8
ENDCHAR
STARTCHAR $3c71
ENCODING 18468
SWIDTH 822 0
DWIDTH 6 0
BBX 5 7 0 -1
BITMAP
40
F0
58
D8
78
D0
B8
ENDCHAR
STARTCHAR $356e
ENCODING 18469
SWIDTH 822 0
DWIDTH 6 0
BBX 5 7 0 -1
BITMAP
20
70
20
F8
20
50
E8
ENDCHAR
STARTCHAR $5421
ENCODING 18470
SWIDTH 822 0
DWIDTH 6 0
BBX 5 7 0 -1
BITMAP
F8
D8
A8
D8
A8
B8
F8
ENDCHAR
STARTCHAR $4074
ENCODING 18474
SWIDTH 822 0
DWIDTH 6 0
BBX 5 7 0 -1
BITMAP
20
70
50
70
E8
70
A8
ENDCHAR
STARTCHAR $4134
ENCODING 18475
SWIDTH 822 0
DWIDTH 6 0
BBX 5 7 0 -1
BITMAP
20
50
F8
20
70
20
F8
ENDCHAR
STARTCHAR $6159
ENCODING 18476
SWIDTH 822 0
DWIDTH 6 0
BBX 5 7 0 -1
BITMAP
10
78
D0
68
F8
50
B8
ENDCHAR
STARTCHAR $377d
ENCODING 18477
SWIDTH 822 0
DWIDTH 6 0
BBX 5 7 0 -1
BITMAP
A8
70
F8
50
B8
20
60
ENDCHAR
STARTCHAR $3824
ENCODING 18478
SWIDTH 822 0
DWIDTH 6 0
BBX 5 7 0 -1
BITMAP
28
20
F8
20
20
50
88
ENDCHAR
STARTCHAR $3774
ENCODING 18479
SWIDTH 822 0
DWIDTH 6 0
BBX 5 7 0 -1
BITMAP
A8
70
F8
50
88
30
50
ENDCHAR
STARTCHAR $657e
ENCODING 18481
SWIDTH 822 0
DWIDTH 6 0
BBX 5 7 0 -1
BITMAP
90
F8
58
F8
50
D0
E8
ENDCHAR
STARTCHAR $3551
ENCODING 18484
SWIDTH 822 0
DWIDTH 6 0
BBX 5 7 0 -1
BITMAP
58
F8
58
F8
58
B0
D0
ENDCHAR
STARTCHAR $3f7d
ENCODING 18488
SWIDTH 822 0
DWIDTH 6 0
BBX 5 7 0 -1
BITMAP
20
A8
78
D0
78
50
78
ENDCHAR
STARTCHAR $6a65
ENCODING 18489
SWIDTH 822 0
DWIDTH 6 0
BBX 5 7 0 -1
BITMAP
78
D8
78
98
60
58
58
ENDCHAR
STARTCHAR $3732
ENCODING 18490
SWIDTH 822 0
DWIDTH 6 0
BBX 5 7 0 -1
BITMAP
E8
78
D0
78
90
F8
D0
ENDCHAR
STARTCHAR $4133
ENCODING 18491
SWIDTH 822 0
DWIDTH 6 0
BBX 5 7 0 -1
BITMAP
50
78
B0
50
A8
00
A8
ENDCHAR
STARTCHAR $4733
ENCODING 18492
SWIDTH 822 0
DWIDTH 6 0
BBX 5 7 0 -1
BITMAP
70
58
F0
D0
68
40
A8
ENDCHAR
STARTCHAR $5147
ENCODING 18493
SWIDTH 822 0
DWIDTH 6 0
BBX 5 7 0 -1
BITMAP
20
78
68
F8
68
78
48
ENDCHAR
STARTCHAR $4077
ENCODING 18494
SWIDTH 822 0
DWIDTH 6 0
BBX 5 7 0 -1
BITMAP
A0
70
B0
58
F8
70
A8
ENDCHAR
STARTCHAR $5461
ENCODING 18496
SWIDTH 822 0
DWIDTH 6 0
BBX 5 7 0 -1
BITMAP
50
78
E8
40
78
F0
28
ENDCHAR
STARTCHAR $5a37
ENCODING 18497
SWIDTH 822 0
DWIDTH 6 0
BBX 5 7 0 -1
BITMAP
50
F8
68
40
F8
70
E8
ENDCHAR
STARTCHAR $3c66
ENCODING 18503
SWIDTH 822 0
DWIDTH 6 0
BBX 5 7 0 -1
BITMAP
50
F8
40
B0
30
C8
B8
ENDCHAR
STARTCHAR $3f51
ENCODING 18505
SWIDTH 822 0
DWIDTH 6 0
BBX 5 7 0 -1
BITMAP
10
60
20
F8
20
20
70
ENDCHAR
STARTCHAR $3f4e
ENCODING 18506
SWIDTH 822 0
DWIDTH 6 0
BBX 5 7 0 -1
BITMAP
40
78
C0
C0
40
78
40
ENDCHAR
STARTCHAR $3f4d
ENCODING 18507
SWIDTH 822 0
DWIDTH 6 0
BBX 5 7 0 -1
BITMAP
20
20
20
20
50
50
88
ENDCHAR
ENDFONT
